<svg version="1.2" baseProfile="tiny-ps" xmlns="http://www.w3.org/2000/svg" viewBox="0 0 302 362" width="302" height="362">
	<title>footium-batch-all1</title>
	<defs>
		<clipPath clipPathUnits="userSpaceOnUse" id="cp1">
			<path d="M124.2 118.58L133.16 118.58C138.34 118.13 140.97 116.21 141.05 112.84L124.7 109.25C116.42 108.43 111.24 109.63 109.16 112.84C110.82 116.67 115.83 118.58 124.2 118.58Z" />
		</clipPath>
		<clipPath clipPathUnits="userSpaceOnUse" id="cp2">
			<path d="M175.74 118.58L166.78 118.58C161.6 118.13 158.97 116.21 158.89 112.84L175.24 109.25C183.52 108.43 188.7 109.63 190.78 112.84C189.12 116.67 184.11 118.58 175.74 118.58Z" />
		</clipPath>
	</defs>
	<style>
		tspan { white-space:pre }
		.shp0 { fill: #ff9057 } 
		.shp1 { fill: #ff6f29 } 
		.shp2 { fill: #85500f } 
		.shp3 { fill: #ff6f29;stroke: #85500f;stroke-linecap:round;stroke-linejoin:round;stroke-width: 2 } 
		.shp4 { fill: #b46918 } 
		.shp5 { fill: #ff807e } 
		.shp6 { fill: none;stroke: #85500f;stroke-linecap:round;stroke-linejoin:round;stroke-width: 2 } 
		.shp7 { fill: #4e360e } 
		.shp8 { fill: #85500f;stroke: #85500f;stroke-linecap:round;stroke-linejoin:round;stroke-width: 2 } 
		.shp9 { fill: #ff7799 } 
		.shp10 { fill: #0965cf } 
		.shp11 { fill: #000000 } 
		.shp12 { fill: none;stroke: #4e360e;stroke-linecap:round;stroke-linejoin:round } 
		.shp13 { fill: none;stroke: #4e360e;stroke-linecap:round;stroke-linejoin:round;stroke-width: 2 } 
		.shp14 { fill: #ff6f29;stroke: #4e360e;stroke-linecap:round;stroke-linejoin:round;stroke-width: 2 } 
		.shp15 { fill: #db5700 } 
		.shp16 { fill: none;stroke: #85500f;stroke-linecap:round;stroke-linejoin:round } 
		.shp17 { fill: #4e360e;stroke: #4e360e;stroke-linecap:round;stroke-linejoin:round } 
		.shp18 { fill: #ff592e } 
		.shp19 { fill: none;stroke: #b46918;stroke-linecap:round;stroke-linejoin:round } 
		.shp20 { fill: none;stroke: #ff6f29;stroke-linecap:round;stroke-linejoin:round } 
	</style>
	<g id="background5">
	</g>
	<g id="ears5">
	</g>
	<g id="neck5">
	</g>
	<g id="heads5">
	</g>
	<g id="face5">
		<g id="face4">
			<path id="&lt;Path&gt;" class="shp0" d="M194.72 101.33C178.04 91.01 169.69 85.85 169.68 85.84C165.5 83.26 160.84 81.43 156 80.56C147.79 79.09 136.97 80.53 130.26 85.84L105.21 101.33L138.19 99L153.2 101.33L152.8 98.69L161.75 99L194.72 101.33Z" />
			<path id="&lt;Path&gt;" class="shp1" d="M135.35 103.55C141.84 103.55 147.1 108.82 147.1 115.31C147.1 117.09 146.7 118.76 146 120.27L146 120.27C145.67 120.98 145.27 121.64 144.82 122.26C143.57 124.49 141.8 128.1 141.95 130.41L141.95 140.4L141.95 144.55L146.65 147.89L152.83 144.55L153.2 126.54L149.97 107.63L152.83 102.49L135.35 103.55Z" />
			<path id="&lt;Path&gt;" class="shp0" d="M151.56 110.79L153.2 110.5L156.37 107.33L158 105.15L157.39 104.69L155.67 102.33L158 100.01L158.71 97.98L153.06 96.47L146.65 97.26L144.04 102.91L142.07 104.87L145.66 109.43L146.75 110.89L148.4 110.5" />
			<path id="&lt;Path&gt;" class="shp2" d="M163.71 151.88L156.09 167.68L152.83 168L154.3 164.56L154.37 158.77" />
			<path id="&lt;Path&gt;" class="shp2" d="M147.1 169.26L150.38 167.6L151.69 168.92" />
			<path id="&lt;Path&gt;" class="shp2" d="M144.27 161.86L144.27 153.87L141.11 154.85L137.28 152.8L135.88 150.26L135.88 166.83L143.72 168.44L145.6 166.61L144.27 161.86Z" />
			<path id="&lt;Path&gt;" class="shp3" d="M149.46 151.88C146.66 151.88 144.37 153.17 144.37 155.97L144.37 162.59C144.37 165.39 146.66 167.68 149.46 167.68C152.26 167.68 154.55 165.39 154.36 162.59L154.36 155.97C154.55 153.17 152.26 151.88 149.46 151.88Z" />
			<g id="&lt;Group&gt;">
				<path id="&lt;Path&gt;" class="shp2" d="M159.59 154.12L155 154.59L151.81 153.45L149.97 151.26L147.56 153.52L143.4 154.67L140.35 154.12C140.35 157.88 142.19 161.01 145.33 162.59C145.3 162.41 145.35 162.34 145.35 162.15C145.35 159.98 147.41 158.43 149.58 158.43C151.75 158.43 153.3 159.8 153.3 161.98C153.3 162.32 153.41 162.81 153.33 163.12C156.99 161.76 159.59 158.25 159.59 154.12Z" />
			</g>
			<path id="&lt;Path&gt;" class="shp1" d="M139.36 112.47C142.53 113.52 144.99 113.52 146.75 112.47L146 120.27L143.06 124.7L141.95 129.38L128.74 129.38" />
			<path id="&lt;Path&gt;" class="shp1" d="M141.78 123.23C140.47 128.47 131.81 130.83 122.43 128.49C113.04 126.16 106.49 120.02 107.79 114.78C109.09 109.54 117.76 107.19 127.14 109.52C136.53 111.85 143.08 117.99 141.78 123.23Z" />
			<g id="&lt;Group&gt;">
				<path id="&lt;Path&gt;" class="shp4" d="M143.06 124.7L147.1 115.31L145.93 110.22L138.19 109.43L136.72 118.05L136.72 129.38L143.06 129.38L143.06 124.7Z" />
				<path id="&lt;Path&gt;" class="shp2" d="M136.72 129.38L136.72 149.74L143.06 141.29L143.06 129.38L136.72 129.38Z" />
			</g>
			<path id="&lt;Path&gt;" class="shp5" d="M167.48 172.21C166.51 170.89 164.78 170 163.14 169.93C162.07 169.88 161.08 170.08 160.03 170.22C160.03 170.22 156.68 170.69 149.97 171.62C143.26 170.69 139.91 170.22 139.91 170.22C138.86 170.08 137.87 169.88 136.79 169.93C135.16 170 133.43 170.89 132.46 172.21C131.32 173.76 131.76 175.77 132.88 177.2C133.87 178.46 135.37 179.08 136.93 179.2C137.74 179.26 138.57 179.2 139.37 179.07C140.88 178.82 142.27 178.13 143.78 177.88C147.67 177.26 151.56 177.16 155.47 177.68C157.2 177.91 158.83 178.78 160.57 179.07C161.37 179.2 162.19 179.26 163 179.2C164.57 179.08 166.07 178.46 167.05 177.2C168.17 175.77 168.62 173.76 167.48 172.21Z" />
			<path id="&lt;Path&gt;" class="shp6" d="M132.46 173.21C131.32 174.76 131.76 176.77 132.88 178.2C133.87 179.46 135.37 180.08 136.93 180.2C137.74 180.26 138.57 180.2 139.37 180.07C140.88 179.82 142.27 179.13 143.78 178.88C147.67 178.26 151.56 178.16 155.47 178.68C157.2 178.91 158.83 179.78 160.57 180.07C161.37 180.2 162.19 180.26 163 180.2C164.57 180.08 166.07 179.46 167.05 178.2C168.17 176.77 168.62 174.76 167.48 173.21" />
			<path id="&lt;Path&gt;" class="shp2" d="M156.09 171.23L153.16 170.76L152.47 170.9C152.02 169.94 151.04 169.26 149.91 169.26C148.77 169.26 147.8 169.94 147.34 170.9L146.65 170.76L143.72 171.23L148.23 174.38L148.23 174.38C148.7 174.73 149.28 174.94 149.91 174.94C150.53 174.94 151.11 174.73 151.58 174.38L151.59 174.38L156.09 171.23Z" />
			<path id="&lt;Path&gt;" class="shp7" d="M170.04 165.57C169.85 165.17 169.48 164.86 169.05 164.73C168.68 164.61 168.18 164.53 167.57 164.58L167.57 164.58C167.36 164.59 167.13 164.63 166.89 164.68L154.22 166.61C151.51 167 150.07 167.88 149.91 169.26L149.91 169.26C149.74 167.88 148.3 167 145.6 166.61L132.92 164.68C132.68 164.63 132.46 164.59 132.24 164.58L132.24 164.58C131.63 164.53 131.13 164.61 130.77 164.73C130.33 164.86 129.97 165.17 129.77 165.57C129.58 165.98 129.56 166.45 129.72 166.87C129.96 167.47 130 167.58 139.91 170.22C141.79 170.73 144.36 171.41 146.43 171.93C146.79 172.02 150.09 172.78 153.4 171.92C155.47 171.4 158.03 170.72 159.9 170.22C169.81 167.58 169.86 167.47 170.09 166.87C170.25 166.45 170.24 165.98 170.04 165.57Z" />
			<path id="&lt;Path&gt;" class="shp8" d="M138.19 180.22L161.74 180.22L153.2 178.45L146.65 178.45" />
			<g id="&lt;Group&gt;">
				<path id="&lt;Path&gt;" class="shp9" d="M124.2 118.58L133.16 118.58C138.34 118.13 140.97 116.21 141.05 112.84L124.7 109.25C116.42 108.43 111.24 109.63 109.16 112.84C110.82 116.67 115.83 118.58 124.2 118.58Z" />
				<g id="&lt;Clip Group&gt;" clip-path="url(#cp1)">
					<path id="&lt;Path&gt;" class="shp10" d="M132.89 108.02C132.89 112.42 129.33 115.98 124.93 115.98C120.54 115.98 116.97 112.42 116.97 108.02C116.97 103.63 120.54 100.06 124.93 100.06C129.33 100.06 132.89 103.63 132.89 108.02Z" />
					<path id="&lt;Path&gt;" class="shp11" d="M129.27 108.02C129.27 110.66 127.33 112.8 124.93 112.8C122.53 112.8 120.59 110.66 120.59 108.02C120.59 105.38 122.53 103.24 124.93 103.24C127.33 103.24 129.27 105.38 129.27 108.02Z" />
				</g>
				<path id="&lt;Path&gt;" class="shp12" d="M140.13 115.3C139.22 117.4 137.24 118.45 134.21 118.45L121.92 118.45C117.01 118.24 113.83 117.42 112.4 115.98" />
				<path id="&lt;Path&gt;" class="shp9" d="M128.21 112.33C128.87 112.33 129.47 112.61 129.89 113.05L129.89 113.05C130.69 113.69 131.38 113.6 131.95 112.77L132.29 115.63L130.03 116.04C129.93 116.17 129.81 116.28 129.69 116.39C128.6 117.2 127.31 117.74 125.9 117.91L125.9 114.63C125.9 113.36 126.94 112.33 128.21 112.33Z" />
			</g>
			<path id="&lt;Path&gt;" class="shp13" d="M107.98 114.01C110.11 109.36 115.68 107.78 124.7 109.25L141.05 112.84" />
			<path id="&lt;Path&gt;" class="shp14" d="M158.03 144.55C160.9 144.55 163.22 146.87 163.22 149.74C163.22 151.6 162.19 153.36 160.57 154.27C157.32 156.1 150.04 154.17 149.97 149.74C149.89 154.17 142.62 156.1 139.37 154.27C137.75 153.36 136.72 151.6 136.72 149.74C136.72 146.87 139.04 144.55 141.91 144.55" />
			<path id="&lt;Path&gt;" class="shp6" d="M157.99 140.4L157.99 130.41C158.14 128.1 156.37 124.49 155.12 122.26C154.67 121.64 154.27 120.98 153.94 120.27L153.94 120.27C153.24 118.76 152.83 117.09 152.83 115.31C152.83 108.82 158.1 103.55 164.59 103.55" />
			<path id="&lt;Path&gt;" class="shp13" d="M157.99 147.13L157.99 140.4" />
			<g id="&lt;Group&gt;">
			</g>
			<g id="&lt;Group&gt;">
				<path id="&lt;Path&gt;" class="shp15" d="M112.48 136.68C101.96 137.27 111.81 146.19 115.39 148.88C119.81 152.24 125.9 150.91 124.2 144.29C123.01 139.66 117.21 136.42 112.48 136.68Z" />
			</g>
			<g id="&lt;Group&gt;">
				<path id="&lt;Path&gt;" class="shp15" d="M187.34 136.68C197.85 137.27 188.01 146.19 184.42 148.88C180 152.24 173.91 150.91 175.61 144.29C176.8 139.66 182.6 136.42 187.34 136.68Z" />
			</g>
			<g id="&lt;Group&gt;">
			</g>
			<path id="&lt;Path&gt;" class="shp16" d="M149.91 173.94L149.91 170.31" />
			<path id="&lt;Path&gt;" class="shp13" d="M105.23 110.5C109.69 107.95 116.19 107.53 124.7 109.25" />
			<path id="&lt;Path&gt;" class="shp17" d="M113.26 116.61C115.65 118.82 119.17 120.03 123.81 120.24C128.27 120.72 132.62 119.99 136.84 118.04C136.73 118.09 136.48 118.05 136.36 118.05C135.93 118.07 135.5 118.08 135.06 118.1C133.88 118.14 132.69 118.2 131.51 118.24C128.23 118.33 124.95 118.44 121.66 118.45C119.68 118.47 117.65 117.96 115.74 117.43C115.15 117.27 113.83 116.82 113.26 116.61Z" />
			<path id="&lt;Path&gt;" class="shp7" d="M133.84 117.69C136.46 117.72 138.3 117.03 139.36 115.61L138.87 116.88L134.49 118.6" />
			<path id="&lt;Path&gt;" class="shp13" d="M144.37 162.59L144.37 154.96" />
			<path id="&lt;Path&gt;" class="shp13" d="M154.3 161.84L154.3 154.59" />
			<path id="&lt;Path&gt;" class="shp18" d="M138.59 115.3C138.59 116.15 139.28 116.84 140.13 116.84C140.98 116.84 141.66 116.15 141.66 115.3C141.66 114.45 140.98 113.76 140.13 113.76C139.28 113.76 138.59 114.45 138.59 115.3Z" />
			<path id="&lt;Path&gt;" class="shp19" d="M149.91 145.13L149.91 139.74" />
			<path id="&lt;Path&gt;" class="shp0" d="M144.23 103.12C146.1 104.25 148.01 104.68 149.97 104.41L149.97 96.35L145.28 92.76L142.29 97.19" />
			<path id="&lt;Path&gt;" class="shp15" d="M105.72 103.26L144.27 104.04L139.89 101.72L136 99.04L129.98 96.86L120.09 98.76" />
			<g id="&lt;Group&gt;">
				<path id="&lt;Path&gt;" class="shp7" d="M145.48 99.7L132.11 95.46C130.8 95.04 129.3 95.06 127.62 95.5L105.21 101.41C104.68 101.55 104.36 102.1 104.5 102.63C104.64 103.16 105.19 103.48 105.72 103.34L129.98 96.95L143.01 105.06C143.22 105.18 143.45 105.29 143.69 105.37C145.25 105.86 146.92 104.99 147.42 103.43C147.91 101.86 147.05 100.19 145.48 99.7Z" />
			</g>
			<path id="&lt;Path&gt;" class="shp6" d="M126.75 103.55L113.41 103.55" />
			<path id="&lt;Path&gt;" class="shp6" d="M141.95 140.4L141.95 130.41C141.8 128.1 143.57 124.49 144.82 122.26C145.27 121.64 145.67 120.98 146 120.27L146 120.27C146.7 118.76 147.1 117.09 147.1 115.31C147.1 108.82 141.84 103.55 135.35 103.55" />
			<path id="&lt;Path&gt;" class="shp13" d="M141.95 147.13L141.95 140.4" />
			<path id="&lt;Path&gt;" class="shp16" d="M131.75 132.23C136.24 130.92 141.54 128.14 144.82 122.26" />
			<path id="&lt;Path&gt;" class="shp16" d="M111.17 133.38L123.61 133.38" />
			<path id="&lt;Path&gt;" class="shp2" d="M138.59 129.38L142.29 125.82L141.95 130.41L138.59 131.36" />
			<path id="&lt;Path&gt;" class="shp1" d="M160.58 112.47C157.41 113.52 154.94 113.52 153.18 112.47L153.94 120.27L156.88 124.7L157.99 129.38L171.2 129.38" />
			<path id="&lt;Path&gt;" class="shp0" d="M158.16 123.23C159.46 128.47 168.13 130.83 177.51 128.49C186.9 126.16 193.45 120.02 192.15 114.78C190.85 109.54 182.18 107.19 172.8 109.52C163.41 111.85 156.86 117.99 158.16 123.23Z" />
			<g id="&lt;Group&gt;">
				<path id="&lt;Path&gt;" class="shp9" d="M175.74 118.58L166.78 118.58C161.6 118.13 158.97 116.21 158.89 112.84L175.24 109.25C183.52 108.43 188.7 109.63 190.78 112.84C189.12 116.67 184.11 118.58 175.74 118.58Z" />
				<g id="&lt;Clip Group&gt;" clip-path="url(#cp2)">
					<path id="&lt;Path&gt;" class="shp10" d="M182.96 108.02C182.96 112.42 179.4 115.98 175.01 115.98C170.61 115.98 167.05 112.42 167.05 108.02C167.05 103.63 170.61 100.06 175.01 100.06C179.4 100.06 182.96 103.63 182.96 108.02Z" />
					<path id="&lt;Path&gt;" class="shp11" d="M179.35 108.02C179.35 110.66 177.4 112.8 175.01 112.8C172.61 112.8 170.67 110.66 170.67 108.02C170.67 105.38 172.61 103.24 175.01 103.24C177.4 103.24 179.35 105.38 179.35 108.02Z" />
				</g>
				<path id="&lt;Path&gt;" class="shp12" d="M159.81 115.3C160.72 117.4 162.7 118.45 165.73 118.45L178.02 118.45C182.93 118.24 186.1 117.42 187.54 115.98" />
				<path id="&lt;Path&gt;" class="shp9" d="M178.29 112.33C178.95 112.33 179.54 112.61 179.96 113.05L179.96 113.05C180.77 113.69 181.46 113.6 182.03 112.77L182.37 115.63L180.11 116.04C180 116.17 179.89 116.28 179.76 116.39C178.68 117.2 177.39 117.74 175.98 117.91L175.98 114.63C175.98 113.36 177.01 112.33 178.29 112.33Z" />
			</g>
			<path id="&lt;Path&gt;" class="shp13" d="M191.96 114.01C189.83 109.36 184.25 107.78 175.24 109.25L158.89 112.84" />
			<path id="&lt;Path&gt;" class="shp13" d="M194.71 110.5C190.24 107.95 183.75 107.53 175.24 109.25" />
			<path id="&lt;Path&gt;" class="shp17" d="M186.68 116.61C184.29 118.82 180.77 120.03 176.13 120.24C171.67 120.72 167.32 119.99 163.1 118.04C163.21 118.09 163.45 118.05 163.58 118.05C164.01 118.07 164.44 118.08 164.88 118.1C166.06 118.14 167.24 118.2 168.43 118.24C171.71 118.33 174.99 118.44 178.27 118.45C180.26 118.47 182.29 117.96 184.2 117.43C184.79 117.27 186.11 116.82 186.68 116.61Z" />
			<path id="&lt;Path&gt;" class="shp7" d="M166.09 117.69C163.48 117.72 161.64 117.03 160.58 115.61L161.06 116.88L165.45 118.6" />
			<path id="&lt;Path&gt;" class="shp18" d="M161.35 115.3C161.35 116.15 160.66 116.84 159.81 116.84C158.96 116.84 158.27 116.15 158.27 115.3C158.27 114.45 158.96 113.76 159.81 113.76C160.66 113.76 161.35 114.45 161.35 115.3Z" />
			<path id="&lt;Path&gt;" class="shp15" d="M194.21 103.26L155.67 104.04L160.05 101.72L163.93 99.04L169.96 96.86L179.84 98.76" />
			<g id="&lt;Group&gt;">
				<path id="&lt;Path&gt;" class="shp7" d="M154.46 99.68L167.83 95.44C169.14 95.03 170.64 95.04 172.32 95.48L194.72 101.39C195.26 101.53 195.58 102.08 195.44 102.62C195.29 103.15 194.75 103.47 194.21 103.33L169.96 96.93L156.93 105.04C156.72 105.16 156.49 105.28 156.25 105.35C154.69 105.85 153.02 104.98 152.52 103.41C152.02 101.85 152.89 100.18 154.46 99.68Z" />
			</g>
			<path id="&lt;Path&gt;" class="shp6" d="M176.64 103.55L186.52 103.55" />
			<path id="&lt;Path&gt;" class="shp6" d="M157.99 140.4L157.99 130.41C158.14 128.1 156.37 124.49 155.12 122.26C154.67 121.64 154.27 120.98 153.94 120.27L153.94 120.27C153.24 118.76 152.83 117.09 152.83 115.31C152.83 108.82 158.1 103.55 164.59 103.55L168.34 103.55" />
			<path id="&lt;Path&gt;" class="shp16" d="M171.99 133.07C169.24 132.65 165.55 131.7 162.09 129.54" />
			<path id="&lt;Path&gt;" class="shp16" d="M188.77 133.38L180.38 133.38" />
			<path id="&lt;Path&gt;" class="shp0" d="M152.79 109.89C152.79 111.44 151.53 112.7 149.97 112.7C148.41 112.7 147.15 111.44 147.15 109.89C147.15 108.33 148.41 107.07 149.97 107.07C151.53 107.07 152.79 108.33 152.79 109.89Z" />
			<path id="&lt;Path&gt;" class="shp0" d="M158.24 80.02C158.24 84.59 154.53 88.29 149.97 88.29C145.4 88.29 141.7 84.59 141.7 80.02C141.7 75.45 145.4 71.75 149.97 71.75C154.53 71.75 158.24 75.45 158.24 80.02Z" />
			<path id="&lt;Path&gt;" class="shp0" d="M158.24 80.02C158.24 84.59 154.53 88.29 149.97 88.29C145.4 88.29 141.7 84.59 141.7 80.02C141.7 75.45 145.4 71.75 149.97 71.75C154.53 71.75 158.24 75.45 158.24 80.02Z" />
			<path id="&lt;Path&gt;" class="shp11" d="M125.36 150.88C125.36 152.53 124.02 153.87 122.37 153.87C120.72 153.87 119.38 152.53 119.38 150.88C119.38 149.23 120.72 147.89 122.37 147.89C124.02 147.89 125.36 149.23 125.36 150.88Z" />
			<path id="&lt;Path&gt;" class="shp19" d="M140.66 75.84L141.59 83.29C142.05 86.15 140.87 88.3 138.07 89.72" />
			<path id="&lt;Path&gt;" class="shp0" d="M141.7 80.02C141.7 84.59 145.4 88.29 149.97 88.29C154.53 88.29 158.24 84.59 158.24 80.02C158.24 75.45 154.53 71.75 149.97 71.75C145.4 71.75 141.7 75.45 141.7 80.02Z" />
			<path id="&lt;Path&gt;" class="shp20" d="M159.27 75.84L158.35 83.29C157.89 86.15 159.07 88.3 161.87 89.72" />
			<path id="&lt;Path&gt;" class="shp16" d="M131.8 153.19L124.49 162.45C121.31 166.64 121.91 170.85 126.26 175.07" />
			<path id="&lt;Path&gt;" class="shp7" d="M150 99.55C149.07 99.55 148.31 100 148.31 100.99L148.31 103.32C148.31 104.31 149.07 105.12 150 105.12C150.93 105.12 151.69 104.31 151.62 103.32L151.62 100.99C151.69 100 150.93 99.55 150 99.55Z" />
		</g>
	</g>
	<g id="haircut10">
	</g>
	<g id="facialhair10">
	</g>
	<g id="uniform5">
	</g>
</svg>