<svg version="1.2" baseProfile="tiny-ps" xmlns="http://www.w3.org/2000/svg" viewBox="0 0 302 362" width="302" height="362">
	<title>footium-batch-all1</title>
	<defs>
		<clipPath clipPathUnits="userSpaceOnUse" id="cp1">
			<path d="M133.87 129.31L129.75 131.08L124.2 131.82L119.27 130.55L116.8 123.96L126.58 120.74C128.89 120.67 131.22 121.2 133.56 122.32L136.76 124.08" />
		</clipPath>
		<clipPath clipPathUnits="userSpaceOnUse" id="cp2">
			<path d="M165.97 129.31L170.09 131.08L175.64 131.82L180.57 130.55L183.04 123.96L173.26 120.74C170.95 120.67 168.62 121.2 166.28 122.32L163.08 124.08" />
		</clipPath>
	</defs>
	<style>
		tspan { white-space:pre }
		.shp0 { fill: #ff9057 } 
		.shp1 { fill: #85500f } 
		.shp2 { fill: #a7c8ac } 
		.shp3 { fill: #000000 } 
		.shp4 { fill: #ffffff } 
		.shp5 { fill: none;stroke: #b46918 } 
		.shp6 { fill: none;stroke: #85500f;stroke-linecap:round;stroke-linejoin:round;stroke-width: 2 } 
		.shp7 { fill: #ff592e } 
		.shp8 { fill: none;stroke: #b46918;stroke-linecap:round;stroke-linejoin:round;stroke-width: 2 } 
		.shp9 { fill: #b46918 } 
		.shp10 { fill: #ff6f29;stroke: #4e360e;stroke-linecap:round;stroke-linejoin:round;stroke-width: 2 } 
		.shp11 { fill: #a33b10 } 
		.shp12 { fill: none;stroke: #b46918;stroke-linecap:round;stroke-linejoin:round } 
		.shp13 { fill: none;stroke: #a33b10;stroke-linecap:round;stroke-linejoin:round;stroke-width: 2 } 
		.shp14 { fill: none;stroke: #4e360e;stroke-linecap:round;stroke-linejoin:round } 
		.shp15 { fill: #4e360e;stroke: #4e360e;stroke-linecap:round;stroke-linejoin:round } 
	</style>
	<g id="background5">
	</g>
	<g id="ears5">
	</g>
	<g id="neck5">
	</g>
	<g id="heads5">
	</g>
	<g id="face5">
		<g id="face3">
			<path id="&lt;Compound Path&gt;" fill-rule="evenodd" class="shp0" d="M198.69 132.64L194.14 152.73C194.11 152.87 194.08 153 194.05 153.14L193.96 153.54L193.95 153.53C192.6 158.58 188.01 162.3 182.53 162.3C177.98 162.3 174.03 159.72 172.05 155.94C171.75 155.48 171.57 155.06 171.49 154.7L164.43 135.26L156.68 124.76C156.68 124.76 156.68 124.76 156.68 124.76C156.25 119.78 160.09 115.13 164.76 113.35C165.78 112.96 166.8 112.67 167.79 112.48C166.8 112.67 165.78 112.96 164.76 113.35C160.09 115.13 156.25 119.78 156.68 124.76C156.98 128.15 159.11 131.21 159.19 134.61C159.25 137.07 158.23 139.41 157.23 141.66C157.07 142.01 156.89 142.39 156.54 142.55C156.35 142.63 156.14 142.65 155.93 142.64L155.93 142.64C153.37 142.61 151.25 140.8 149.97 138.51C148.68 140.8 146.57 142.61 144.01 142.64C143.8 142.65 143.58 142.63 143.4 142.55C143.05 142.39 142.86 142.01 142.71 141.66C141.71 139.41 140.69 137.07 140.75 134.61C140.83 131.21 142.96 128.15 143.26 124.76L141.39 118.23C141.39 118.23 141.38 118.22 141.38 118.22L128.45 154.7C128.37 155.06 128.18 155.48 127.89 155.94C125.91 159.72 121.96 162.3 117.41 162.3C111.93 162.3 107.34 158.58 105.99 153.53L105.98 153.54L105.89 153.14C105.86 153 105.82 152.87 105.8 152.73L101.25 132.64C101.25 132.64 101.18 132.3 101.12 131.7L101.05 130.9C100.66 124.65 101.94 103.28 137.04 96.93L116.8 96.93C120.99 89.71 127.99 84.71 137.8 81.95L137.81 81.96C141.12 80.86 145.11 80.1 149.97 80.03L149.97 80.03C158.45 80.03 164.25 81.9 168.21 84.22C175.14 87.48 180.12 91.72 183.14 96.93L162.9 96.93C176.22 99.34 184.66 103.91 190 109C190.19 110.35 190.07 111.74 189.52 113.02C189.49 113.08 189.46 113.15 189.44 113.21C189.42 113.25 189.41 113.29 189.39 113.33L189.39 113.33C189.41 113.29 189.42 113.25 189.44 113.21C189.46 113.15 189.49 113.08 189.52 113.02C190.07 111.74 190.19 110.35 190 109C201.2 119.68 198.69 132.63 198.69 132.64ZM189.39 113.33L189.39 113.33C188.86 114.52 187.75 115.4 186.4 115.89C187.75 115.4 188.86 114.52 189.39 113.33Z" />
			<g id="&lt;Group&gt;">
				<path id="&lt;Path&gt;" class="shp1" d="M141.38 118.21L128.45 154.7C126.5 158.3 128.23 161.65 133.65 164.75C139.86 167.63 142.9 172.94 142.78 180.68L153.43 180.68L160.24 161.47L141.38 118.21Z" />
			</g>
			<path id="&lt;Path&gt;" class="shp0" d="M150.27 120.9C146.92 120.9 140.75 131.25 140.75 134.61L144 146.5C144 149.86 146.61 155.06 149.97 155.06C153.33 155.06 156.07 152.31 156.07 148.95L156.07 133.06C156.07 129.71 153.63 120.9 150.27 120.9Z" />
			<g id="&lt;Clip Group&gt;" clip-path="url(#cp1)">
				<path id="&lt;Path&gt;" class="shp2" d="M131.34 123.82C131.34 126.41 128.96 128.5 126.03 128.5C123.1 128.5 120.72 126.41 120.72 123.82C120.72 121.23 123.1 119.14 126.03 119.14C128.96 119.14 131.34 121.23 131.34 123.82Z" />
				<path id="&lt;Path&gt;" class="shp3" d="M129.67 123.69C129.67 125.54 128.07 127.04 126.11 127.04C124.14 127.04 122.55 125.54 122.55 123.69C122.55 121.83 124.14 120.33 126.11 120.33C128.07 120.33 129.67 121.83 129.67 123.69Z" />
			</g>
			<g id="&lt;Group&gt;">
				<path id="&lt;Path&gt;" class="shp4" d="M131.04 125.29C130.77 125.23 130.54 125.11 130.35 124.92L130.35 124.93C129.93 124.48 129.33 124.2 128.67 124.2C127.4 124.2 126.36 125.23 126.36 126.51L126.34 128.48C128.55 128.36 130.37 127.07 131.04 125.29Z" />
			</g>
			<path id="&lt;Path&gt;" class="shp5" d="M117.13 125.47C118.51 128.79 121.48 130.38 126.03 130.26C131.06 130.34 134.22 128.35 135.51 124.28" />
			<path id="&lt;Path&gt;" class="shp6" d="M116.13 123.47L125.91 120.25C128.22 119.52 130.54 119.71 132.89 120.84L136.09 122.59" />
			<path id="&lt;Path&gt;" class="shp7" d="M137.37 124.83C137.37 125.54 136.8 126.12 136.09 126.12C135.38 126.12 134.8 125.54 134.8 124.83C134.8 124.12 135.38 123.55 136.09 123.55C136.8 123.55 137.37 124.12 137.37 124.83Z" />
			<g id="&lt;Group&gt;">
				<path id="&lt;Path&gt;" class="shp8" d="M114.56 136.35C113.88 135.73 113.27 135.02 112.75 134.3C111.83 133.02 111.41 131.66 109.49 131.84" />
				<path id="&lt;Path&gt;" class="shp8" d="M131.8 136.88C129.11 137.5 126.39 137.99 123.65 138.34C121.62 138.61 119.49 138.78 117.56 138.16" />
			</g>
			<g id="&lt;Group&gt;">
				<path id="&lt;Path&gt;" class="shp9" d="M157.63 185.89C157.37 185.96 157.12 186.05 156.86 186.13C155.78 186.45 154.68 186.72 153.56 186.93C152.32 187.16 151.07 187.32 150.27 187.29C149.48 187.32 148.23 187.17 146.99 186.93C145.7 186.69 144.43 186.36 143.17 185.98L143.16 185.99L140.73 185.26C140.31 185.34 139.89 185.44 139.47 185.53C139.11 185.62 138.73 185.71 138.41 185.91C137.81 186.29 137.53 187.01 137.29 187.67C137.12 188.14 136.96 188.64 137.08 189.11C137.21 189.59 137.76 189.98 138.2 189.75L156.89 190.56C158.6 190.49 160.27 189.72 161.43 188.47C162.5 187.32 163.13 185.78 163.18 184.21L157.63 185.9L157.63 185.89Z" />
			</g>
			<path id="&lt;Path&gt;" class="shp10" d="M159.29 152.03C160.64 153.12 162.29 154.11 163.03 155.75C163.44 156.67 163.78 157.73 163.84 158.73C163.93 160.1 163.33 160.13 162.17 160.41C161.44 160.58 160.77 160.94 160.24 161.47C159.35 162.35 158.58 163.47 157.96 164.49C156.92 166.22 156.17 168.17 154.72 169.63C153.43 170.91 151.7 171.2 149.97 171.24C148.24 171.2 146.51 170.91 145.22 169.63C143.77 168.17 143.02 166.22 141.98 164.49C141.35 163.46 140.58 162.33 139.68 161.45C139.16 160.93 138.48 160.58 137.77 160.41C136.61 160.13 136 160.1 136.1 158.73C136.16 157.73 136.5 156.67 136.91 155.75C137.65 154.11 139.29 153.12 140.65 152.03" />
			<g id="&lt;Clip Group&gt;" clip-path="url(#cp2)">
				<path id="&lt;Path&gt;" class="shp2" d="M179.22 123.82C179.22 126.41 176.84 128.5 173.91 128.5C170.98 128.5 168.6 126.41 168.6 123.82C168.6 121.23 170.98 119.14 173.91 119.14C176.84 119.14 179.22 121.23 179.22 123.82Z" />
				<path id="&lt;Path&gt;" class="shp3" d="M177.55 123.69C177.55 125.54 175.95 127.04 173.98 127.04C172.02 127.04 170.42 125.54 170.42 123.69C170.42 121.83 172.02 120.33 173.98 120.33C175.95 120.33 177.55 121.83 177.55 123.69Z" />
			</g>
			<g id="&lt;Group&gt;">
				<path id="&lt;Path&gt;" class="shp4" d="M178.92 125.29C178.65 125.23 178.42 125.11 178.23 124.92L178.23 124.93C177.81 124.48 177.21 124.2 176.55 124.2C175.28 124.2 174.24 125.23 174.24 126.51L174.22 128.48C176.42 128.36 178.25 127.07 178.92 125.29Z" />
			</g>
			<path id="&lt;Path&gt;" class="shp5" d="M182.81 125.47C181.43 128.79 178.46 130.38 173.91 130.26C168.87 130.34 165.71 128.35 164.43 124.28" />
			<path id="&lt;Path&gt;" class="shp6" d="M183.81 123.47L174.03 120.25C171.72 119.52 169.39 119.71 167.05 120.84L163.85 122.59" />
			<path id="&lt;Path&gt;" class="shp7" d="M162.57 124.86C162.57 125.57 163.14 126.15 163.85 126.15C164.56 126.15 165.14 125.57 165.14 124.86C165.14 124.15 164.56 123.58 163.85 123.58C163.14 123.58 162.57 124.15 162.57 124.86Z" />
			<g id="&lt;Group&gt;">
				<path id="&lt;Path&gt;" class="shp8" d="M177.33 138.47C179.31 138.67 181.35 138.68 183.15 137.86C184.78 137.12 186.15 135.74 187.19 134.3C188.11 133.02 188.53 131.66 190.45 131.84" />
				<path id="&lt;Path&gt;" class="shp8" d="M162.02 135.2C163.71 135.73 165.4 136.21 167.12 136.63" />
			</g>
			<g id="&lt;Group&gt;">
				<path id="&lt;Path&gt;" class="shp1" d="M153.43 180.68L131.04 180.68L129.91 180.68L139.74 184.21L152.39 185.83L154.49 185.23L153.81 185.19C152.6 184.15 152.47 182.64 153.43 180.68Z" />
				<path id="&lt;Path&gt;" class="shp9" d="M153.43 180.68C152.47 182.64 152.6 184.15 153.81 185.19L154.49 185.23L170.63 180.68L153.43 180.68Z" />
			</g>
			<path id="&lt;Path&gt;" class="shp1" d="M179.18 177.98C178.43 177.74 177.23 177.62 175.6 178.25C167.43 181.43 158.81 185.02 150.18 185.02C141.56 185.02 132.94 181.43 124.77 178.25C123.14 177.62 121.94 177.74 121.19 177.98C120.65 178.14 120.36 178.71 120.57 179.24C120.77 179.78 121.4 180.08 121.95 179.9C123.21 179.5 125.08 180.39 126.27 180.78C127.95 181.33 129.61 181.95 131.31 182.43L143.16 185.99L143.17 185.98C144.43 186.36 145.7 186.69 146.99 186.93C148.23 187.17 149.48 187.32 150.27 187.29C151.07 187.32 152.32 187.16 153.56 186.93C154.68 186.72 155.78 186.45 156.86 186.13C157.12 186.05 157.37 185.96 157.63 185.89L157.63 185.9L170.09 182.11C170.61 181.95 171.13 181.8 171.65 181.63L172.3 181.44L172.23 181.45C173.02 181.2 173.81 180.95 174.6 180.69C175.62 180.36 177.34 179.55 178.42 179.9C178.97 180.08 179.59 179.78 179.8 179.25C180.01 178.71 179.72 178.14 179.18 177.98Z" />
			<path id="&lt;Path&gt;" class="shp8" d="M143.87 125.58C143.5 127.67 142.64 129.66 142.03 131.68C141.36 133.92 141.15 136.19 141.75 138.46C142.3 140.57 144.17 142.7 143.87 144.95" />
			<path id="&lt;Path&gt;" class="shp11" d="M141.24 113.76C139.34 109.76 136.44 107.84 132.53 108.02L117.41 108.02C115.09 108.02 113.21 109.9 113.21 112.21C113.21 114.53 115.09 116.41 117.41 116.41C119.39 116.41 121.04 115.02 121.48 113.17L126.34 112.21L134.37 113.06L140.72 116.93L144 120.51L141.24 113.76Z" />
			<path id="&lt;Path&gt;" class="shp11" d="M158.7 113.76C160.6 109.76 163.5 107.84 167.41 108.02L182.53 108.02C184.85 108.02 186.73 109.9 186.73 112.21C186.73 114.53 184.85 116.41 182.53 116.41C180.55 116.41 178.89 115.02 178.46 113.17L173.6 112.21L165.57 113.06L159.22 116.93L156.08 120.2L158.7 113.76Z" />
			<path id="&lt;Path&gt;" class="shp12" d="M150.27 122.69L148.37 128.17C147.98 129.27 148.38 130.5 149.35 131.16L149.92 131.56C150.88 132.22 151.29 133.44 150.9 134.55L149 140.03" />
			<path id="&lt;Path&gt;" class="shp0" d="M144 150.24L144 154.98C145.33 154.43 147.02 154.07 149.07 153.91C153.15 153.53 155.47 154.26 156.04 156.08L156.04 144.04L148.49 142.64" />
			<path id="&lt;Path&gt;" class="shp8" d="M156.07 148.95L156.07 158.13" />
			<path id="&lt;Path&gt;" class="shp8" d="M143.87 144.95L143.87 158.13" />
			<path id="&lt;Path&gt;" class="shp12" d="M156.54 154.98C155.05 154.44 153.34 154.03 151.48 153.91C151.08 153.88 150.68 153.87 150.27 153.87C149.87 153.87 149.47 153.88 149.07 153.91C147.21 154.03 145.49 154.44 144 154.98" />
			<path id="&lt;Path&gt;" class="shp8" d="M156.07 125.58C156.44 127.67 157.3 129.66 157.9 131.68C158.57 133.92 158.78 136.19 158.19 138.46C157.64 140.57 155.77 142.7 156.07 144.95" />
			<g id="&lt;Group&gt;">
				<path id="&lt;Path&gt;" class="shp0" d="M150.06 166.14C146.32 165.79 149.95 162.74 151.27 161.84C152.89 160.7 155.04 161.26 154.34 163.59C153.86 165.23 151.75 166.3 150.06 166.14Z" />
			</g>
			<g id="&lt;Group&gt;">
				<path id="&lt;Path&gt;" class="shp9" d="M185.68 173.53C182.88 171.03 183.12 175.76 183.34 177.34C183.61 179.31 185.48 180.51 186.72 178.41C187.59 176.94 186.94 174.66 185.68 173.53Z" />
			</g>
			<g id="&lt;Group&gt;">
				<g id="&lt;Group&gt;">
				</g>
			</g>
			<path id="&lt;Path&gt;" class="shp6" d="M166.04 201.43C166.92 203.02 167.57 204.75 167.94 206.58" />
			<path id="&lt;Path&gt;" class="shp6" d="M134.65 200.18C137.93 195.21 143.57 191.93 149.97 191.93C155.56 191.93 160.56 194.43 163.93 198.37" />
			<path id="&lt;Path&gt;" class="shp6" d="M132.18 205.79C132.42 204.83 132.74 203.9 133.12 203" />
			<path id="&lt;Path&gt;" class="shp8" d="M143.07 120.87C144.25 123.51 143.87 125.58 143.87 125.58" />
			<path id="&lt;Path&gt;" class="shp13" d="M119.33 114.79C123.04 111.49 127.56 110.81 132.89 112.75C139.14 115.03 141.89 118.23 143.07 120.87" />
			<path id="&lt;Path&gt;" class="shp8" d="M156.87 120.87C155.69 123.51 156.07 125.58 156.07 125.58" />
			<path id="&lt;Path&gt;" class="shp13" d="M180.61 114.79C176.9 111.49 172.37 110.81 167.05 112.75C160.79 115.03 158.05 118.23 156.87 120.87" />
			<path id="&lt;Path&gt;" class="shp14" d="M121.95 179.9C123.21 179.5 125.08 180.39 126.27 180.78C127.95 181.33 129.61 181.95 131.31 182.43L143.16 185.99L143.17 185.98C144.43 186.36 145.7 186.69 146.99 186.93C148.23 187.17 149.48 187.32 150.27 187.29C151.07 187.32 152.32 187.16 153.56 186.93C154.68 186.72 155.78 186.45 156.86 186.13C157.12 186.05 157.37 185.96 157.63 185.89L157.63 185.9L170.09 182.11C170.61 181.95 171.13 181.8 171.65 181.63L172.3 181.44L172.23 181.45C173.02 181.2 173.81 180.95 174.6 180.69C175.62 180.36 177.34 179.55 178.42 179.9" />
			<path id="&lt;Path&gt;" class="shp15" d="M156.54 190.98C155.05 190.44 153.34 190.03 151.48 189.91C151.08 189.88 150.68 189.87 150.27 189.87C149.87 189.87 149.47 189.88 149.07 189.91C147.21 190.03 145.49 190.44 144 190.98L156.54 190.98Z" />
		</g>
	</g>
	<g id="haircut10">
	</g>
	<g id="facialhair10">
	</g>
	<g id="uniform5">
	</g>
</svg>