<svg version="1.2" baseProfile="tiny-ps" xmlns="http://www.w3.org/2000/svg" viewBox="0 0 302 362" width="302" height="362">
	<title>footium-batch-all1</title>
	<defs>
		<clipPath clipPathUnits="userSpaceOnUse" id="cp1">
			<path d="M128.93 120.04L128.93 120.05C122.36 117.85 116.38 121.43 111.23 126.58C115.49 125.33 119.38 124.7 122.89 124.7C124.98 124.7 127.09 124.7 129.22 124.7C132.54 124.7 135.95 124.7 135.96 124.7C134.72 122.46 132.37 120.91 128.93 120.04Z" />
		</clipPath>
		<clipPath clipPathUnits="userSpaceOnUse" id="cp2">
			<path d="M171.76 120.04L171.76 120.05C178.33 117.85 184.3 121.43 189.46 126.58C185.2 125.33 181.31 124.7 177.79 124.7C175.71 124.7 173.6 124.7 171.47 124.7C168.14 124.7 164.74 124.7 164.73 124.7C165.97 122.46 168.31 120.91 171.76 120.04Z" />
		</clipPath>
	</defs>
	<style>
		tspan { white-space:pre }
		.shp0 { fill: #b46918 } 
		.shp1 { fill: #4e360e } 
		.shp2 { fill: #ff6f29 } 
		.shp3 { fill: none;stroke: #b46918;stroke-linecap:round;stroke-linejoin:round } 
		.shp4 { fill: #85500f } 
		.shp5 { fill: #ff807e } 
		.shp6 { fill: #ff9057 } 
		.shp7 { fill: #000000 } 
		.shp8 { fill: none;stroke: #4e360e;stroke-linecap:round;stroke-linejoin:round;stroke-width: 2 } 
		.shp9 { fill: #b46918;stroke: #4e360e;stroke-linecap:round;stroke-linejoin:round;stroke-width: 2 } 
		.shp10 { fill: none;stroke: #b46918;stroke-linecap:round;stroke-linejoin:round;stroke-width: 2 } 
		.shp11 { fill: #ff7799 } 
		.shp12 { fill: none;stroke: #4e360e;stroke-linecap:round;stroke-linejoin:round } 
		.shp13 { fill: #ff592e } 
		.shp14 { fill: none;stroke: #85500f;stroke-linecap:round;stroke-linejoin:round;stroke-width: 2 } 
		.shp15 { fill: #c44a20 } 
	</style>
	<g id="background5">
	</g>
	<g id="ears5">
	</g>
	<g id="neck5">
	</g>
	<g id="heads5">
	</g>
	<g id="face5">
		<g id="face2">
			<path id="&lt;Path&gt;" class="shp0" d="M149.97 155.06L149.97 138.7C138.63 140.69 133.12 141.81 133.45 142.05C133.78 142.28 132.76 145.87 130.4 152.82L131.1 162.64L143.69 166.98L149.97 167.51" />
			<path id="&lt;Path&gt;" class="shp0" d="M152.26 170.44L156.81 166.49L164.71 159.63L161 157.36L156.61 161.15L151.55 163.35L146.65 162.65L141.97 159.29L139.68 157.36L137.34 159.29L129.86 158.71L127.32 155.83L130.4 163.53C131.56 166.56 131.56 169.32 130.4 171.83L125.95 181.31L142.78 178.24L150.28 176.68L149.42 175.87C149.13 174.1 150.08 172.29 152.26 170.44Z" />
			<path id="&lt;Path&gt;" class="shp1" d="M131.31 184.26C137.63 183.68 143.93 182.92 150.2 181.99C150.72 180.44 150.96 178.8 150.91 177.17C148.84 177.48 146.65 176.99 144.89 175.83C143.96 175.22 143.11 174.4 142.02 174.15C140.81 173.87 139.57 174.34 138.42 174.81C133.54 176.79 128.66 178.77 123.78 180.74C122.98 181.07 121.31 181.7 121.05 182.89L121.36 184.04L125.95 183.73" />
			<path id="&lt;Path&gt;" class="shp1" d="M168.35 184.26C162.04 183.68 155.74 182.92 149.46 181.99C148.95 180.44 148.71 178.8 148.75 177.17C150.83 177.48 153.02 176.99 154.77 175.83C155.71 175.22 156.56 174.4 157.65 174.15C158.86 173.87 160.1 174.34 161.25 174.81C166.13 176.79 171.01 178.77 175.88 180.74C176.68 181.07 178.36 181.7 178.62 182.89L178.3 184.04L173.71 183.73" />
			<path id="&lt;Path&gt;" class="shp0" d="M200.51 117.16C200.51 127.84 172.31 136.23 150.47 136.23C128.63 136.23 98.48 127.84 98.48 117.16C98.48 106.49 128.63 97.58 150.47 97.58C172.31 97.58 200.51 106.49 200.51 117.16Z" />
			<path id="&lt;Path&gt;" class="shp2" d="M202.63 123.21C202.37 116.12 198.4 110.43 192.11 107.32C189.35 105.95 186.33 105.08 183.3 104.57C179.24 103.89 174.94 103.98 170.98 105.13C167.71 106.07 164.81 108.57 162.27 110.8C160.63 112.24 155.85 115.91 149.63 116.02C143.41 115.91 138.62 112.24 136.98 110.8C134.45 108.57 131.55 106.07 128.28 105.13C124.31 103.98 120.02 103.89 115.96 104.57C112.92 105.08 109.91 105.95 107.14 107.32C100.86 110.43 96.88 116.12 96.63 123.21C96.53 129.31 98 148.31 119.79 152.53C132.51 154.89 141.45 150.22 146.62 138.51L149.63 137.78L152.64 138.51C157.81 150.22 166.75 154.89 179.46 152.53C201.26 148.31 202.73 129.31 202.63 123.21Z" />
			<path id="&lt;Path&gt;" class="shp3" d="M110.35 134.52C117.66 137.23 127.47 138.39 134.24 133.62" />
			<path id="&lt;Path&gt;" class="shp3" d="M188.9 134.52C181.6 137.23 171.79 138.39 165.01 133.62" />
			<g id="&lt;Group&gt;">
				<path id="&lt;Path&gt;" class="shp4" d="M143.87 125.58L142.78 123.92L130.4 149.78L132.3 151.56C135.89 150.43 139.68 148.35 142.82 144.64L143.87 141.01L143.87 125.58Z" />
			</g>
			<path id="&lt;Path&gt;" class="shp5" d="M137.55 123.29L136.07 123.94C136.08 123.56 136.08 123.16 135.78 122.98L118.74 125.22C118.11 125.03 117.51 124.86 116.94 124.7L114.56 125.76L113.53 125.9C113.58 125.99 113.63 126.07 113.67 126.16L110.81 127.44L118.2 130.49C118.75 130.77 119.33 131.01 119.93 131.21L119.99 131.24L119.99 131.23C121.38 131.68 122.84 131.91 124.28 131.9C128.61 131.86 132.73 130.03 136.46 127.81C136.59 127.73 136.73 127.65 136.87 127.55C136.97 127.47 137.07 127.39 137.16 127.31C137.19 127.28 137.22 127.26 137.25 127.23C138.34 126.16 138.44 124.85 137.55 123.29Z" />
			<g id="&lt;Group&gt;">
				<path id="&lt;Path&gt;" class="shp2" d="M158.17 170.83L156.81 166.49L152.26 170.44C150.08 172.29 149.13 174.1 149.42 175.87L150.28 176.68L156.48 175.38L158.17 170.83Z" />
			</g>
			<path id="&lt;Path&gt;" class="shp2" d="M149.97 126.96C146.61 126.96 143.87 129.71 143.87 133.06L143.87 148.95C143.87 152.31 146.61 155.06 149.97 155.06C153.33 155.06 156.07 152.31 156.07 148.95L156.07 133.06C156.07 129.71 153.33 126.96 149.97 126.96Z" />
			<g id="&lt;Group&gt;">
				<path id="&lt;Path&gt;" class="shp6" d="M150.47 196.08C150.4 196.08 150.34 196.08 150.27 196.08C150.29 196.08 150.32 196.09 150.34 196.09C150.39 196.09 150.43 196.08 150.47 196.08Z" />
			</g>
			<path id="&lt;Path&gt;" class="shp7" d="M137.49 155.88C137.34 155.68 136.03 156.12 135.51 156.5C134.99 156.88 134.62 157.52 134.75 158.15C134.79 158.35 134.89 158.54 135 158.71C135.98 160.24 138.1 160.33 139.66 159.78C140.15 159.61 140.65 159.37 140.94 158.93C141.1 158.69 141.19 158.4 141.19 158.1" />
			<path id="&lt;Path&gt;" class="shp7" d="M163.19 155.88C163.34 155.68 164.66 156.12 165.18 156.5C165.69 156.88 166.07 157.52 165.93 158.15C165.89 158.35 165.8 158.54 165.69 158.71C164.7 160.24 162.59 160.33 161.02 159.78C160.53 159.61 160.04 159.37 159.75 158.93C159.58 158.69 159.5 158.4 159.5 158.1" />
			<path id="&lt;Path&gt;" class="shp8" d="M139.68 150.88C138.97 151.26 138.16 151.48 137.34 151.42" />
			<path id="&lt;Path&gt;" class="shp8" d="M163.34 151.42C162.53 151.48 161.72 151.26 161 150.88" />
			<path id="&lt;Path&gt;" class="shp9" d="M131.52 159.62L131.53 159.63C131.5 159.62 131.46 159.6 131.42 159.59C131.41 159.58 131.4 159.58 131.39 159.57C130.74 159.3 127.78 157.91 126.77 154.48C125.82 151.94 126.52 150.47 128.88 150.08L134.32 150.08" />
			<path id="&lt;Path&gt;" class="shp0" d="M141.5 146.1C142.36 145.27 142.83 143.92 142.89 142.05L144.07 142.44L143.87 144.81L142.04 148.25" />
			<path id="&lt;Path&gt;" class="shp10" d="M155.39 130.26L155.39 125.58C154.45 120.27 158.11 115.99 166.36 112.75" />
			<path id="&lt;Path&gt;" class="shp10" d="M155.39 145.68L155.39 135.26" />
			<path id="&lt;Path&gt;" class="shp0" d="M156.45 146.46L157.47 146.58C156.79 145.43 156.43 143.92 156.37 142.05L155.06 142.05L155.53 146.36L156.03 146.41L156.47 147.51L156.45 146.46Z" />
			<path id="&lt;Path&gt;" class="shp10" d="M156.61 147.09C155.12 145.97 153.41 145.14 151.55 144.89C151.15 144.84 150.74 144.81 150.34 144.81C149.94 144.81 149.54 144.84 149.14 144.89C147.28 145.14 145.56 145.97 144.07 147.09" />
			<path id="&lt;Path&gt;" class="shp0" d="M144.18 150.88C143.45 149.14 144.38 147.7 146.95 146.55L142.33 146.36L141.79 147.8" />
			<path id="&lt;Path&gt;" class="shp0" d="M146.95 160.09L148.64 163.53L154.91 162.24L161 156.81C160.1 155.55 158.64 154.96 156.61 155.06L149.97 155.06L146.95 160.09Z" />
			<path id="&lt;Path&gt;" class="shp10" d="M143.87 145.68L143.87 125.58C144.81 120.27 141.15 115.99 132.89 112.75" />
			<path id="&lt;Path&gt;" class="shp11" d="M128.93 120.04L128.93 120.05C122.36 117.85 116.38 121.43 111.23 126.58C115.49 125.33 119.38 124.7 122.89 124.7C124.98 124.7 127.09 124.7 129.22 124.7C132.54 124.7 135.95 124.7 135.96 124.7C134.72 122.46 132.37 120.91 128.93 120.04Z" />
			<g id="&lt;Clip Group&gt;" clip-path="url(#cp1)">
				<g id="&lt;Group&gt;">
					<path id="&lt;Path&gt;" class="shp1" d="M130.03 119.69C130.03 123.25 127.15 126.13 123.59 126.13C120.04 126.13 117.16 123.25 117.16 119.69C117.16 116.14 120.04 113.26 123.59 113.26C127.15 113.26 130.03 116.14 130.03 119.69Z" />
					<path id="&lt;Path&gt;" class="shp7" d="M127.93 119.69C127.93 122.34 125.99 124.48 123.59 124.48C121.19 124.48 119.25 122.34 119.25 119.69C119.25 117.05 121.19 114.91 123.59 114.91C125.99 114.91 127.93 117.05 127.93 119.69Z" />
					<path id="&lt;Path&gt;" class="shp11" d="M131.47 126.11L131.13 123.26C130.96 123.71 130.68 123.96 130.04 123.89C129.57 123.84 129.15 123.57 128.79 123.29C128.41 123 127.87 122.81 127.39 122.81C126.11 122.81 125.08 123.85 125.08 125.12L125.08 128.4C126.49 128.23 127.78 127.69 128.86 126.88C128.99 126.77 129.1 126.65 129.21 126.52L131.47 126.11Z" />
				</g>
			</g>
			<path id="&lt;Path&gt;" class="shp8" d="M111.23 126.58C114.79 125.33 118.68 124.7 122.89 124.7L135.96 124.7" />
			<path id="&lt;Path&gt;" class="shp12" d="M135.96 124.7C134.72 122.46 132.37 120.91 128.93 120.04L128.93 120.05C122.36 117.85 116.38 121.43 111.23 126.58" />
			<path id="&lt;Path&gt;" class="shp10" d="M133.45 117.61C132.34 117.14 131.37 116.81 130.54 116.6L130.54 116.62C123.27 114.19 116.5 116.49 110.35 120.98" />
			<path id="&lt;Path&gt;" class="shp13" d="M137.67 123.92C137.67 124.87 136.9 125.64 135.96 125.64C135.01 125.64 134.24 124.87 134.24 123.92C134.24 122.98 135.01 122.21 135.96 122.21C136.9 122.21 137.67 122.98 137.67 123.92Z" />
			<path id="&lt;Path&gt;" class="shp5" d="M163.14 123.29L164.61 123.94C164.61 123.56 164.6 123.16 164.9 122.98L181.94 125.22C182.57 125.03 183.17 124.86 183.74 124.7L186.12 125.76L187.15 125.9C187.11 125.99 187.06 126.07 187.01 126.16L189.87 127.44L182.49 130.49C181.93 130.77 181.35 131.01 180.76 131.21L180.69 131.24L180.69 131.23C179.31 131.68 177.85 131.91 176.41 131.9C172.08 131.86 167.95 130.03 164.23 127.81C164.09 127.73 163.95 127.65 163.82 127.55C163.71 127.47 163.62 127.39 163.53 127.31C163.5 127.28 163.46 127.26 163.44 127.23C162.35 126.16 162.25 124.85 163.14 123.29Z" />
			<path id="&lt;Path&gt;" class="shp11" d="M171.76 120.04L171.76 120.05C178.33 117.85 184.3 121.43 189.46 126.58C185.2 125.33 181.31 124.7 177.79 124.7C175.71 124.7 173.6 124.7 171.47 124.7C168.14 124.7 164.74 124.7 164.73 124.7C165.97 122.46 168.31 120.91 171.76 120.04Z" />
			<g id="&lt;Clip Group&gt;" clip-path="url(#cp2)">
				<g id="&lt;Group&gt;">
					<path id="&lt;Path&gt;" class="shp1" d="M183.53 119.69C183.53 123.25 180.65 126.13 177.09 126.13C173.54 126.13 170.66 123.25 170.66 119.69C170.66 116.14 173.54 113.26 177.09 113.26C180.65 113.26 183.53 116.14 183.53 119.69Z" />
					<path id="&lt;Path&gt;" class="shp7" d="M181.44 119.69C181.44 122.34 179.49 124.48 177.09 124.48C174.7 124.48 172.75 122.34 172.75 119.69C172.75 117.05 174.7 114.91 177.09 114.91C179.49 114.91 181.44 117.05 181.44 119.69Z" />
					<path id="&lt;Path&gt;" class="shp11" d="M184.97 126.11L184.63 123.26C184.46 123.71 184.19 123.96 183.55 123.89C183.07 123.84 182.66 123.57 182.29 123.29C181.92 123 181.37 122.81 180.89 122.81C179.62 122.81 178.58 123.85 178.58 125.12L178.58 128.4C179.99 128.23 181.28 127.69 182.36 126.88C182.49 126.77 182.61 126.65 182.71 126.52L184.97 126.11Z" />
				</g>
			</g>
			<path id="&lt;Path&gt;" class="shp8" d="M189.46 126.58C185.89 125.33 182.01 124.7 177.79 124.7L164.73 124.7" />
			<path id="&lt;Path&gt;" class="shp12" d="M164.73 124.7C165.97 122.46 168.31 120.91 171.76 120.04L171.76 120.05C178.33 117.85 184.3 121.43 189.46 126.58" />
			<path id="&lt;Path&gt;" class="shp10" d="M167.24 117.61C168.35 117.14 169.32 116.81 170.15 116.6L170.15 116.62C177.41 114.19 184.19 116.49 190.33 120.98" />
			<path id="&lt;Path&gt;" class="shp13" d="M163.02 123.92C163.02 124.87 163.78 125.64 164.73 125.64C165.68 125.64 166.44 124.87 166.44 123.92C166.44 122.98 165.68 122.21 164.73 122.21C163.78 122.21 163.02 122.98 163.02 123.92Z" />
			<path id="&lt;Path&gt;" class="shp12" d="M145.54 162.1L142.78 169.38C141.52 173.04 142.83 175.26 146.73 176.05" />
			<path id="&lt;Path&gt;" class="shp14" d="M145.54 162.1L142.78 169.38C141.52 173.04 142.83 175.26 146.73 176.05C148.4 176.78 150.8 176.78 153.95 176.05C157.83 175.15 159.15 172.93 157.9 169.38L155.14 162.1" />
			<path id="&lt;Path&gt;" class="shp8" d="M163.34 156.82C162.53 156.76 161.72 156.98 161 157.36C160.11 157.83 159.41 158.58 158.71 159.29C158.05 159.96 157.36 160.59 156.61 161.15C155.12 162.27 153.41 163.1 151.55 163.35C151.15 163.4 150.74 163.43 150.34 163.43C149.94 163.43 149.54 163.4 149.14 163.35C147.28 163.1 145.56 162.27 144.07 161.15C143.33 160.59 142.63 159.96 141.97 159.29C141.28 158.58 140.57 157.83 139.68 157.36C138.97 156.98 138.16 156.76 137.34 156.82" />
			<g id="&lt;Group&gt;">
				<path id="&lt;Path&gt;" class="shp7" d="M115.96 104.57C112.95 105.08 109.97 105.94 107.22 107.29C105.99 107.96 104.87 108.65 103.86 109.37L135.33 109.37C133.2 107.58 130.86 105.87 128.28 105.13C124.31 103.98 120.02 103.89 115.96 104.57Z" />
			</g>
			<g id="&lt;Group&gt;">
				<path id="&lt;Path&gt;" class="shp7" d="M183.03 104.57C186.04 105.08 189.02 105.94 191.77 107.29C193 107.96 194.12 108.65 195.13 109.37L163.66 109.37C165.78 107.58 168.13 105.87 170.71 105.13C174.68 103.98 178.97 103.89 183.03 104.57Z" />
			</g>
			<path id="&lt;Path&gt;" class="shp10" d="M202.73 127.22C203.68 120.03 201.23 115.32 198.86 112.55" />
			<path id="&lt;Path&gt;" class="shp10" d="M200.51 135.26C201.11 133.77 201.59 132.36 201.95 131.02" />
			<path id="&lt;Path&gt;" class="shp0" d="M150.34 91.9C150.68 95.38 153.06 97.37 157.47 97.86L144.97 102.41L139.68 98.91L139.21 96.09" />
			<path id="&lt;Path&gt;" class="shp14" d="M123.36 101.23C129.14 99.3 138.17 98.08 150.47 97.58" />
			<path id="&lt;Path&gt;" class="shp14" d="M123.36 95.23C129.14 93.3 138.17 92.08 150.47 91.58" />
			<path id="&lt;Path&gt;" class="shp9" d="M126.62 151.86L125.06 160.47" />
			<path id="&lt;Path&gt;" class="shp1" d="M126.38 158.84C126.57 157.67 127.13 157.56 128.07 158.51L128.39 157.11L127.32 155.83L126.13 156.01L126.06 156.76" />
			<path id="&lt;Path&gt;" class="shp8" d="M169.16 159.62L169.16 159.63C169.19 159.62 169.22 159.6 169.27 159.59C169.28 159.58 169.29 159.58 169.29 159.57C169.95 159.3 172.9 157.91 173.91 154.48C174.87 151.94 174.16 150.47 171.8 150.08L166.36 150.08" />
			<path id="&lt;Path&gt;" class="shp9" d="M174.06 151.86L175.63 160.47" />
			<path id="&lt;Path&gt;" class="shp1" d="M174.3 158.84C174.12 157.67 173.55 157.56 172.61 158.51L172.3 157.11L173.37 155.83L174.56 156.01L174.62 156.76" />
			<g id="&lt;Group&gt;">
				<path id="&lt;Path&gt;" class="shp15" d="M150.06 184.73L124.62 184.73C130.97 191.26 139.85 195.32 149.69 195.32C149.79 195.32 149.89 195.31 149.99 195.31C150.06 195.31 150.12 195.31 150.19 195.31C159.83 195.17 168.51 191.15 174.76 184.73L150.06 184.73Z" />
				<path id="&lt;Path&gt;" class="shp14" d="M124.62 184.73C130.97 191.26 139.85 195.32 149.69 195.32C149.79 195.32 149.89 195.31 149.99 195.31C150.06 195.31 150.12 195.31 150.19 195.31C159.83 195.17 168.51 191.15 174.76 184.73" />
			</g>
			<path id="&lt;Path&gt;" class="shp6" d="M153.56 192.51C153.74 192.45 153.91 192.39 154.08 192.32L174.76 184.73L153.2 184.73L151.28 185.5C151.16 185.54 151.05 185.58 150.94 185.63L150.84 185.67L150.85 185.68C149.64 186.29 148.81 187.53 148.81 188.97C148.81 191.02 150.47 192.68 152.51 192.68C152.82 192.68 153.12 192.63 153.4 192.56L153.4 192.56L153.56 192.51Z" />
			<path id="&lt;Compound Path&gt;" class="shp7" d="M156.86 181.9C154.6 181.41 152.28 180.95 149.97 180.9C148.67 180.84 146.38 181.18 143.08 181.9L137.72 183.14L162.22 183.14L156.86 181.9Z" />
			<path id="&lt;Path&gt;" class="shp7" d="M178.46 182.62C178.08 182.22 177.45 182.2 177.05 182.57C176.64 182.96 175.99 183.16 175.17 183.16L124.61 183.16C123.79 183.16 123.14 182.96 122.73 182.57C122.32 182.2 121.69 182.22 121.31 182.62C120.94 183.03 120.96 183.66 121.36 184.04C121.91 184.55 122.92 185.16 124.61 185.16L175.17 185.16C176.85 185.16 177.86 184.55 178.41 184.04C178.81 183.66 178.84 183.03 178.46 182.62Z" />
		</g>
	</g>
	<g id="haircut10">
	</g>
	<g id="facialhair10">
	</g>
	<g id="uniform5">
	</g>
</svg>