<svg version="1.2" baseProfile="tiny-ps" xmlns="http://www.w3.org/2000/svg" viewBox="0 0 302 362" width="302" height="362">
	<title>footium-batch-all1</title>
	<defs>
		<clipPath clipPathUnits="userSpaceOnUse" id="cp1">
			<path d="M102.11 125.71L120.12 121.76L133.9 125.68L117.48 134.01L105.07 130.09" />
		</clipPath>
		<clipPath clipPathUnits="userSpaceOnUse" id="cp2">
			<path d="M131.89 112.31C131.86 112.31 131.83 112.3 131.8 112.29C130.67 111.91 129.53 111.55 128.38 111.26C125.37 110.48 122.27 110.06 119.17 110.32C115.71 110.63 113.19 112.28 110.26 114C108.65 115.07 107.3 116.26 106.17 117.48L130.1 117.48C130.37 117.48 130.51 117.48 130.51 117.48C130.74 117.48 130.97 117.46 131.19 117.42C131.5 117.37 131.8 117.27 132.07 117.13C132.92 116.68 133.51 115.8 133.51 114.77C133.51 113.67 132.84 112.72 131.89 112.31Z" />
		</clipPath>
		<clipPath clipPathUnits="userSpaceOnUse" id="cp3">
			<path d="M198.94 125.8L180.92 121.85L167.15 125.77L183.57 134.1L195.98 130.18" />
		</clipPath>
		<clipPath clipPathUnits="userSpaceOnUse" id="cp4">
			<path d="M169.16 112.41C169.19 112.4 169.21 112.39 169.24 112.38C170.37 112 171.51 111.65 172.66 111.35C175.67 110.57 178.77 110.15 181.88 110.42C185.34 110.72 187.85 112.38 190.78 114.09C192.4 115.17 193.74 116.35 194.88 117.57L170.94 117.57C170.67 117.57 170.53 117.57 170.53 117.57C170.31 117.57 170.08 117.55 169.85 117.51C169.55 117.46 169.25 117.36 168.97 117.22C168.12 116.77 167.53 115.89 167.53 114.86C167.53 113.76 168.2 112.81 169.16 112.41Z" />
		</clipPath>
	</defs>
	<style>
		tspan { white-space:pre }
		.shp0 { fill: none;stroke: #b46918;stroke-linecap:round;stroke-linejoin:round;stroke-width: 2 } 
		.shp1 { fill: none;stroke: #85500f;stroke-linecap:round;stroke-linejoin:round;stroke-width: 2 } 
		.shp2 { fill: #ff6f29 } 
		.shp3 { fill: none;stroke: #b46918;stroke-linecap:round;stroke-linejoin:round } 
		.shp4 { fill: #db5700 } 
		.shp5 { fill: #85500f } 
		.shp6 { fill: #b46918 } 
		.shp7 { fill: none;stroke: #ff6f29;stroke-linecap:round;stroke-linejoin:round;stroke-width: 2 } 
		.shp8 { fill: #ff807e } 
		.shp9 { fill: #ff9057 } 
		.shp10 { fill: none;stroke: #a33b10 } 
		.shp11 { fill: #a33b10 } 
		.shp12 { fill: none;stroke: #a33b10;stroke-linecap:round;stroke-linejoin:round;stroke-width: 0.4 } 
		.shp13 { fill: #ffffff } 
		.shp14 { fill: none;stroke: #000000;stroke-linecap:round;stroke-linejoin:round;stroke-width: 2 } 
		.shp15 { fill: none;stroke: #a7c8ac;stroke-linecap:round;stroke-linejoin:round } 
		.shp16 { fill: #000000;stroke: #000000;stroke-linecap:round;stroke-linejoin:round;stroke-width: 2 } 
		.shp17 { fill: none;stroke: #4e360e;stroke-linecap:round;stroke-linejoin:round;stroke-width: 2 } 
		.shp18 { fill: #ff592e } 
		.shp19 { fill: #2ac3f2 } 
		.shp20 { fill: #000000 } 
		.shp21 { fill: #ef9b06 } 
		.shp22 { fill: none;stroke: #b46918;stroke-width: 2 } 
		.shp23 { fill: #b46918;stroke: #b46918;stroke-width: 2 } 
	</style>
	<g id="background5">
	</g>
	<g id="ears5">
	</g>
	<g id="neck5">
	</g>
	<g id="heads5">
	</g>
	<g id="face5">
		<g id="face5">
			<path id="&lt;Path&gt;" class="shp0" d="M176.29 130.23C174.14 130.27 172.39 129.38 171.05 127.57" />
			<path id="&lt;Path&gt;" class="shp0" d="M195.99 132.79C194.71 130.93 192.36 130.08 188.95 130.23L185.64 130.23" />
			<path id="&lt;Path&gt;" class="shp1" d="M185.64 130.23L176.29 130.23" />
			<path id="&lt;Path&gt;" class="shp2" d="M122.28 170.6C109.25 167.84 102.81 160.69 102.95 149.18L102.95 123.97L114.74 119.91L133.9 118.66L143.4 127.68L132.49 149.84L124.47 151.92L120.56 153.34L119.1 154.68" />
			<path id="&lt;Path&gt;" class="shp2" d="M149.97 71.78C117.95 72.97 102.28 83.83 102.95 104.36L102.95 123.97L149.97 119.91L196.99 123.97L196.99 104.36C197.66 83.83 181.99 72.97 149.97 71.78Z" />
			<path id="&lt;Path&gt;" class="shp3" d="M185.16 82.23C178.24 76.84 167.3 72.42 149.97 71.78C117.95 72.97 102.28 83.83 102.95 104.36L102.95 123.97" />
			<path id="&lt;Path&gt;" class="shp3" d="M195.2 95.58C194.74 94.36 194.15 93.08 193.41 91.75" />
			<path id="&lt;Path&gt;" class="shp3" d="M196.82 101.9C196.72 101.18 196.58 100.33 196.36 99.37" />
			<path id="&lt;Path&gt;" class="shp3" d="M196.99 123.97L196.99 104.36" />
			<path id="&lt;Path&gt;" class="shp4" d="M102.95 123.97L102.95 124.94L106.49 124.61L107.57 122.85L106.65 121.93" />
			<path id="&lt;Path&gt;" class="shp4" d="M197.07 121.09C198.18 123.32 198.57 124.83 198.23 125.65L194.39 124.33L194.39 122.26" />
			<path id="&lt;Path&gt;" class="shp4" d="M155.18 117.02C161.08 115.74 166.74 112.88 172.66 111.35C175.67 110.57 178.77 110.15 181.88 110.42C185.34 110.72 187.85 112.38 190.78 114.09C192.4 115.17 193.74 116.35 194.88 117.57C195.38 118.16 195.86 118.83 196.28 119.56L196.28 119.56C196.99 120.64 197.59 122.14 198.09 124.06L197.34 124.06L196.01 124.06L164.79 124.06C162.76 126.91 161.39 130.26 160.97 133.92L153.61 134.44L153.57 134.8L151.07 134.62L150.69 134.65L150.69 117.46C152.2 117.48 153.7 117.34 155.18 117.02Z" />
			<path id="&lt;Path&gt;" class="shp5" d="M126.65 148.43L140.16 148.43L140.22 157.17L134.04 156.47L126.27 159.04L119.51 155.7C117.34 151.34 119.72 148.91 126.65 148.43Z" />
			<path id="&lt;Path&gt;" class="shp4" d="M145.86 116.93C139.96 115.65 134.31 112.79 128.38 111.26C125.37 110.48 122.27 110.06 119.17 110.32C115.71 110.63 113.19 112.28 110.26 114C108.65 115.07 107.3 116.26 106.17 117.48C105.67 118.07 105.19 118.74 104.76 119.47L104.76 119.47C104.06 120.55 103.45 122.05 102.95 123.97L103.7 123.97L105.03 123.97L136.25 123.97C138.29 126.81 139.65 130.17 140.07 133.82L147.43 134.35L147.48 134.71L149.97 134.53L150.35 134.56L150.35 117.36C148.85 117.39 147.34 117.25 145.86 116.93Z" />
			<g id="&lt;Group&gt;">
				<path id="&lt;Path&gt;" class="shp4" d="M154.83 116.93C160.74 115.65 166.39 112.79 172.32 111.26C175.32 110.48 178.42 110.06 181.53 110.32C184.99 110.63 187.5 112.28 190.43 114C192.05 115.07 193.4 116.26 194.53 117.48C195.54 118.67 196.47 120.16 196.99 121.92C193.14 117.77 187.66 115.16 181.55 115.16C170.73 115.16 161.82 123.32 160.63 133.82L153.26 134.35L153.22 134.71L150.73 134.53L150.35 134.56L150.35 117.36C151.85 117.39 153.35 117.25 154.83 116.93Z" />
			</g>
			<path id="&lt;Path&gt;" class="shp4" d="M194.88 117.57C193.74 116.35 192.4 115.17 190.78 114.09C187.85 112.38 185.34 110.72 181.88 110.42C178.77 110.15 175.67 110.57 172.66 111.35C166.74 112.88 161.08 115.74 155.18 117.02C153.7 117.34 152.2 117.48 150.69 117.46C149.19 117.48 147.69 117.34 146.21 117.02C140.31 115.74 134.65 112.88 128.73 111.35C125.72 110.57 122.62 110.15 119.51 110.42C116.05 110.72 113.54 112.38 110.61 114.09C108.99 115.17 107.65 116.35 106.51 117.57C106.01 118.16 105.53 118.83 105.11 119.56L105.11 119.56C104.4 120.64 103.8 122.14 103.3 124.06L104.05 124.06L105.38 124.06L136.6 124.06C138.63 126.91 140 130.26 140.42 133.92L147.78 134.44L147.82 134.8L150.32 134.62L150.69 134.65L151.07 134.62L153.57 134.8L153.61 134.44L160.97 133.92C162.17 123.41 171.08 115.25 181.9 115.25C188.01 115.25 193.49 117.86 197.34 122.01C196.82 120.26 195.89 118.77 194.88 117.57Z" />
			<path id="&lt;Path&gt;" class="shp6" d="M172.66 105.35C166.74 106.88 161.08 109.74 155.18 111.02C153.7 111.34 152.2 111.48 150.69 111.46C149.19 111.48 147.69 111.34 146.21 111.02C140.31 109.74 134.65 106.88 128.73 105.35" />
			<path id="&lt;Path&gt;" class="shp2" d="M150.34 176.63L155.4 175.39C158.37 174.57 159.71 173.16 159.43 171.17L159.43 164.38L141.25 164.38L141.25 171.17C140.98 173.16 142.32 174.57 145.28 175.39L150.34 176.63Z" />
			<path id="&lt;Path&gt;" class="shp5" d="M119.1 155.4L135.97 155.4L151.4 161.84L164.92 155.4L180.89 155.4L176.73 158.73L169.17 158.47L164.5 156.46L161.73 158.21L155.81 162.68L148.66 164.38L142.37 161.47L136.19 156.46L133.34 157.68L126.27 159.04L121.97 157.92L120.09 156.47" />
			<path id="&lt;Path&gt;" class="shp5" d="M119.51 155.7L126.32 164.82C129.25 169.76 134.78 171.06 142.9 168.72L177.8 159.52L124.84 158.97L119.51 155.7Z" />
			<path id="&lt;Path&gt;" class="shp7" d="M127.65 184.78C133.31 189.43 141.21 192.32 149.97 192.32C158.72 192.32 166.63 189.43 172.29 184.78" />
			<path id="&lt;Path&gt;" class="shp8" d="M161.73 182.02L156.22 183.78L144.89 183.78L145.5 182.94L121.41 178.6L127.65 183.78C133.31 188.43 141.21 191.32 149.97 191.32C158.72 191.32 166.63 188.43 172.29 183.78L179.27 178.6L161.73 182.02Z" />
			<g id="&lt;Group&gt;">
				<path id="&lt;Path&gt;" class="shp9" d="M188.19 96.45C187.6 106.96 178.68 97.12 175.99 93.53C172.63 89.11 173.95 83.02 180.57 84.73C185.21 85.91 188.45 91.71 188.19 96.45Z" />
			</g>
			<g id="&lt;Group&gt;">
				<path id="&lt;Path&gt;" class="shp9" d="M182.39 152.5C183.69 158.63 177.04 154.36 174.94 152.72C172.32 150.71 172.14 147.01 176.2 146.96C179.05 146.92 181.8 149.74 182.39 152.5Z" />
			</g>
			<path id="&lt;Path&gt;" class="shp10" d="" />
			<path id="&lt;Path&gt;" class="shp11" d="" />
			<g id="&lt;Group&gt;">
				<path id="&lt;Path&gt;" class="shp12" d="M128.51 177.39C128.19 177.39 127.91 177.43 127.64 177.47" />
			</g>
			<g id="&lt;Group&gt;">
				<path id="&lt;Path&gt;" class="shp13" d="M154.84 177.65L154.84 177.65C151.44 177.51 145.52 177.66 145.5 177.66L121.41 178.6L144.54 185.7C148.43 186.87 152.3 186.87 156.14 185.7L179.27 178.6L154.84 177.65Z" />
			</g>
			<g id="&lt;Group&gt;">
				<path id="&lt;Path&gt;" class="shp1" d="" />
				<path id="&lt;Path&gt;" class="shp1" d="" />
			</g>
			<path id="&lt;Path&gt;" class="shp14" d="M149.97 177.6L149.93 185.83" />
			<path id="&lt;Path&gt;" class="shp15" d="M141.71 179.39L141.71 182.04" />
			<path id="&lt;Path&gt;" class="shp15" d="M158.97 179.39L158.97 182.04" />
			<g id="&lt;Group&gt;">
				<path id="&lt;Path&gt;" class="shp15" d="M143.49 177.27L139.94 177.27C140.92 177.27 141.71 178.06 141.71 179.04C141.71 178.06 142.51 177.27 143.49 177.27Z" />
			</g>
			<path id="&lt;Path&gt;" class="shp15" d="M134.71 179.39L134.71 181.04" />
			<g id="&lt;Group&gt;">
				<path id="&lt;Path&gt;" class="shp15" d="M136.49 177.27L132.94 177.27C133.92 177.27 134.71 178.06 134.71 179.04C134.71 178.06 135.51 177.27 136.49 177.27Z" />
			</g>
			<path id="&lt;Path&gt;" class="shp15" d="M165.97 179.39L165.97 181.04" />
			<g id="&lt;Group&gt;">
				<path id="&lt;Path&gt;" class="shp15" d="M164.2 177.27L167.74 177.27C166.77 177.27 165.97 178.06 165.97 179.04C165.97 178.06 165.18 177.27 164.2 177.27Z" />
			</g>
			<g id="&lt;Group&gt;">
				<path id="&lt;Path&gt;" class="shp15" d="M157.2 177.27L160.74 177.27C159.77 177.27 158.97 178.06 158.97 179.04C158.97 178.06 158.18 177.27 157.2 177.27Z" />
			</g>
			<path id="&lt;Path&gt;" class="shp6" d="M154.84 177.65L154.84 177.65L179.27 178.6C170.99 173.87 161.34 173.21 150.34 176.63C139.34 173.21 129.7 173.87 121.41 178.6L145.5 177.66C145.52 177.66 151.44 177.51 154.84 177.65Z" />
			<g id="&lt;Group&gt;">
				<path id="&lt;Path&gt;" class="shp9" d="M141.82 148.46C138.14 148.09 136.35 149.24 136.47 151.92C136.47 153.75 137.7 156.1 140.16 158.97C144.01 162.66 147.13 164.5 149.51 164.5L150.34 164.5L150.34 148.46L141.82 148.46Z" />
			</g>
			<g id="&lt;Group&gt;">
				<path id="&lt;Path&gt;" class="shp9" d="M158.86 148.46C162.55 148.09 164.33 149.24 164.21 151.92C164.21 153.75 162.98 156.1 160.53 158.97C156.68 162.66 153.56 164.5 151.17 164.5L150.34 164.5L150.34 148.46L158.86 148.46Z" />
			</g>
			<g id="&lt;Group&gt;">
				<path id="&lt;Path&gt;" class="shp16" d="M127.64 158.97L140.16 158.97L136.19 156.46L131.51 158.47L127.64 158.97Z" />
				<path id="&lt;Path&gt;" class="shp17" d="M120.04 150.86C118.23 152.89 118.29 155.75 121.97 157.92C123.98 159.11 126.45 159.25 128.7 158.81C129.88 158.57 131.04 158.18 132.12 157.64C133.49 156.95 134.57 156.29 136.19 156.46C139.31 156.8 140.27 159.61 142.37 161.47C144.55 163.42 147.42 164.5 150.34 164.5" />
				<path id="&lt;Path&gt;" class="shp17" d="M122.5 149.14C123.24 148.81 124.07 148.58 124.96 148.46" />
			</g>
			<g id="&lt;Group&gt;">
				<path id="&lt;Path&gt;" class="shp16" d="M173.05 158.97L160.53 158.97L164.5 156.46L169.17 158.47L173.05 158.97Z" />
				<path id="&lt;Path&gt;" class="shp17" d="M180.64 150.86C182.45 152.89 182.39 155.75 178.71 157.92C176.7 159.11 174.24 159.25 171.99 158.81C170.8 158.57 169.64 158.18 168.56 157.64C167.19 156.95 166.11 156.29 164.5 156.46C161.37 156.8 160.42 159.61 158.32 161.47C156.13 163.42 153.27 164.5 150.34 164.5" />
			</g>
			<g id="&lt;Group&gt;">
				<path id="&lt;Path&gt;" class="shp0" d="M141.71 190.43C144.34 191.01 147.11 191.32 149.97 191.32C156.1 191.32 161.82 189.89 166.64 187.45" />
				<path id="&lt;Path&gt;" class="shp0" d="M134.04 187.81C134.83 188.19 135.64 188.53 136.47 188.86" />
			</g>
			<path id="&lt;Path&gt;" class="shp0" d="M124.75 130.14C126.91 130.18 128.65 129.29 130 127.48" />
			<path id="&lt;Path&gt;" class="shp0" d="M105.05 132.7C106.33 130.84 108.68 129.99 112.09 130.14L115.4 130.14" />
			<path id="&lt;Path&gt;" class="shp4" d="M132 123.97C135.77 123.96 138.13 125.79 139.08 129.45L140.57 121.76L137.52 119.57L133.9 118.66" />
			<path id="&lt;Path&gt;" class="shp6" d="M120.56 120.85L134.24 124.37L127.68 124.22L123.34 122.91" />
			<path id="&lt;Path&gt;" class="shp18" d="M128.25 127.59C128.25 128.44 128.94 129.13 129.79 129.13C130.64 129.13 131.33 128.44 131.33 127.59C131.33 126.74 130.64 126.05 129.79 126.05C128.94 126.05 128.25 126.74 128.25 127.59Z" />
			<g id="&lt;Clip Group&gt;" clip-path="url(#cp1)">
				<path id="&lt;Path&gt;" class="shp19" d="M124.82 124.44C124.82 127.03 122.44 129.12 119.51 129.12C116.58 129.12 114.2 127.03 114.2 124.44C114.2 121.85 116.58 119.76 119.51 119.76C122.44 119.76 124.82 121.85 124.82 124.44Z" />
				<path id="&lt;Path&gt;" class="shp20" d="M123.15 124.31C123.15 126.16 121.55 127.67 119.59 127.67C117.62 127.67 116.03 126.16 116.03 124.31C116.03 122.45 117.62 120.95 119.59 120.95C121.55 120.95 123.15 122.45 123.15 124.31Z" />
				<g id="&lt;Group&gt;">
					<path id="&lt;Path&gt;" class="shp13" d="M124.52 125.91C124.25 125.85 124.02 125.73 123.83 125.54L123.83 125.55C123.41 125.1 122.82 124.82 122.15 124.82C120.88 124.82 119.84 125.85 119.84 127.13L119.82 129.1C122.03 128.98 123.85 127.69 124.52 125.91Z" />
				</g>
			</g>
			<g id="&lt;Group&gt;">
				<path id="&lt;Path&gt;" class="shp1" d="M133.9 125.68L120.12 121.76L102.11 125.71" />
			</g>
			<path id="&lt;Path&gt;" class="shp4" d="M131.33 123.62C137.22 125.51 140.16 129.53 140.16 135.7L140.16 120.85L131.07 117.44" />
			<path id="&lt;Path&gt;" class="shp5" d="M70.15 92.8C70.18 92.81 70.2 92.82 70.23 92.83C70.2 92.81 70.17 92.81 70.15 92.8Z" />
			<g id="&lt;Group&gt;">
				<path id="&lt;Path&gt;" class="shp21" d="M131.89 112.31C131.86 112.31 131.83 112.3 131.8 112.29C130.67 111.91 129.53 111.55 128.38 111.26C125.37 110.48 122.27 110.06 119.17 110.32C115.71 110.63 113.19 112.28 110.26 114C108.65 115.07 107.3 116.26 106.17 117.48L130.1 117.48C130.37 117.48 130.51 117.48 130.51 117.48C130.74 117.48 130.97 117.46 131.19 117.42C131.5 117.37 131.8 117.27 132.07 117.13C132.92 116.68 133.51 115.8 133.51 114.77C133.51 113.67 132.84 112.72 131.89 112.31Z" />
			</g>
			<path id="&lt;Path&gt;" class="shp5" d="M141.16 125.71L127.4 148.43L141.82 148.43" />
			<g id="&lt;Group&gt;">
				<path id="&lt;Path&gt;" class="shp2" d="M150.34 119.91C144.72 119.91 140.16 124.47 140.16 130.09L140.16 148.11L160.53 148.11L160.53 130.09C160.53 124.47 155.97 119.91 150.34 119.91Z" />
				<path id="&lt;Path&gt;" class="shp3" d="M153.11 137.29C152.23 137.04 151.3 136.91 150.34 136.91C144.72 136.91 140.16 141.47 140.16 147.09L140.16 143.09C140.16 139.28 142.25 135.96 145.35 134.22" />
				<path id="&lt;Path&gt;" class="shp3" d="M150.34 132.91C155.97 132.91 160.53 137.47 160.53 143.09L160.53 147.09C160.53 144.18 159.3 141.55 157.34 139.69" />
				<g id="&lt;Group&gt;">
					<path id="&lt;Path&gt;" class="shp1" d="M150.34 148.46L140.22 148.46" />
					<path id="&lt;Path&gt;" class="shp1" d="M150.34 148.46L160.46 148.46" />
				</g>
			</g>
			<path id="&lt;Path&gt;" class="shp5" d="M125.96 148.49C127.08 148.19 127.89 147.61 128.4 146.77L129.87 149.32L128.58 150.86L127.27 151.59" />
			<g id="&lt;Clip Group&gt;" clip-path="url(#cp2)">
				<path id="&lt;Path&gt;" class="shp22" d="M128.07 106.76L128.07 119.91" />
				<path id="&lt;Path&gt;" class="shp23" d="M123.07 106.76L123.07 117.57L119.53 108.4" />
			</g>
			<path id="&lt;Path&gt;" class="shp6" d="M180.49 120.94L166.81 124.46L173.37 124.31L177.7 123" />
			<path id="&lt;Path&gt;" class="shp18" d="M172.79 127.68C172.79 128.53 172.1 129.22 171.25 129.22C170.4 129.22 169.71 128.53 169.71 127.68C169.71 126.83 170.4 126.14 171.25 126.14C172.1 126.14 172.79 126.83 172.79 127.68Z" />
			<g id="&lt;Clip Group&gt;" clip-path="url(#cp3)">
				<path id="&lt;Path&gt;" class="shp19" d="M186.69 124.53C186.69 127.12 184.31 129.22 181.38 129.22C178.45 129.22 176.07 127.12 176.07 124.53C176.07 121.95 178.45 119.85 181.38 119.85C184.31 119.85 186.69 121.95 186.69 124.53Z" />
				<path id="&lt;Path&gt;" class="shp20" d="M185.02 124.4C185.02 126.25 183.42 127.76 181.46 127.76C179.49 127.76 177.9 126.25 177.9 124.4C177.9 122.54 179.49 121.04 181.46 121.04C183.42 121.04 185.02 122.54 185.02 124.4Z" />
				<g id="&lt;Group&gt;">
					<path id="&lt;Path&gt;" class="shp13" d="M186.39 126.01C186.12 125.94 185.89 125.82 185.7 125.64L185.7 125.64C185.28 125.19 184.68 124.91 184.02 124.91C182.75 124.91 181.71 125.95 181.71 127.22L181.69 129.19C183.9 129.07 185.72 127.78 186.39 126.01Z" />
				</g>
			</g>
			<g id="&lt;Group&gt;">
				<path id="&lt;Path&gt;" class="shp1" d="M167.15 125.77L180.92 121.85L198.94 125.8" />
			</g>
			<path id="&lt;Path&gt;" class="shp4" d="M169.71 123.71C163.83 125.6 160.89 129.63 160.89 135.8L160.89 120.94L169.98 117.53" />
			<g id="&lt;Group&gt;">
				<path id="&lt;Path&gt;" class="shp21" d="M169.16 112.41C169.19 112.4 169.21 112.39 169.24 112.38C170.37 112 171.51 111.65 172.66 111.35C175.67 110.57 178.77 110.15 181.88 110.42C185.34 110.72 187.85 112.38 190.78 114.09C192.4 115.17 193.74 116.35 194.88 117.57L170.94 117.57C170.67 117.57 170.53 117.57 170.53 117.57C170.31 117.57 170.08 117.55 169.85 117.51C169.55 117.46 169.25 117.36 168.97 117.22C168.12 116.77 167.53 115.89 167.53 114.86C167.53 113.76 168.2 112.81 169.16 112.41Z" />
			</g>
			<g id="&lt;Clip Group&gt;" clip-path="url(#cp4)">
			</g>
			<path id="&lt;Path&gt;" class="shp6" d="M162.55 174.77L146.06 174.77C143.33 174.91 141.73 173.71 141.25 171.17L139.94 176.21L142.35 177.08L151.24 177.08L163.44 176.25" />
			<path id="&lt;Path&gt;" class="shp6" d="M181.48 178.6C181.48 179.82 180.49 180.8 179.27 180.8C178.06 180.8 177.07 179.82 177.07 178.6C177.07 177.38 178.06 176.39 179.27 176.39C180.49 176.39 181.48 177.38 181.48 178.6Z" />
			<path id="&lt;Path&gt;" class="shp5" d="M123.62 178.6C123.62 179.82 122.63 180.8 121.41 180.8C120.19 180.8 119.2 179.82 119.2 178.6C119.2 177.38 120.19 176.39 121.41 176.39C122.63 176.39 123.62 177.38 123.62 178.6Z" />
			<path id="&lt;Path&gt;" class="shp1" d="M115.4 130.14L124.75 130.14" />
		</g>
	</g>
	<g id="haircut10">
	</g>
	<g id="facialhair10">
	</g>
	<g id="uniform5">
	</g>
</svg>