<svg version="1.2" baseProfile="tiny-ps" xmlns="http://www.w3.org/2000/svg" viewBox="0 0 302 362" width="302" height="362">
	<title>footium-batch-all1</title>
	<defs>
		<clipPath clipPathUnits="userSpaceOnUse" id="cp1">
			<path d="M179.53 133.58L188.49 133.58C193.67 133.13 196.3 131.21 196.38 127.84L173.27 124.25C169.5 123.43 166.57 124.63 164.49 127.84C166.15 131.67 171.16 133.58 179.53 133.58Z" />
		</clipPath>
		<clipPath clipPathUnits="userSpaceOnUse" id="cp2">
			<path d="M120.41 133.58L111.45 133.58C106.27 133.13 103.64 131.21 103.56 127.84L126.66 124.25C130.44 123.43 133.37 124.63 135.45 127.84C133.79 131.67 128.78 133.58 120.41 133.58Z" />
		</clipPath>
	</defs>
	<style>
		tspan { white-space:pre }
		.shp0 { fill: #ff6f29 } 
		.shp1 { fill: #db5700 } 
		.shp2 { fill: #ffab80 } 
		.shp3 { fill: #ff7799 } 
		.shp4 { fill: #1a5023 } 
		.shp5 { fill: #000000 } 
		.shp6 { fill: #ff592e } 
		.shp7 { fill: none;stroke: #4e360e;stroke-linecap:round;stroke-linejoin:round } 
		.shp8 { fill: #4e360e } 
		.shp9 { fill: #a35400 } 
		.shp10 { fill: #85500f } 
		.shp11 { fill: #c44a20 } 
		.shp12 { fill: #ff807e } 
		.shp13 { fill: none;stroke: #ff6f29;stroke-linecap:round;stroke-linejoin:round;stroke-width: 2 } 
		.shp14 { fill: #ff6f29;stroke: #4e360e;stroke-linecap:round;stroke-linejoin:round;stroke-width: 2 } 
		.shp15 { fill: none;stroke: #000000;stroke-linecap:round;stroke-linejoin:round;stroke-width: 2 } 
		.shp16 { fill: none;stroke: #4e360e;stroke-linecap:round;stroke-linejoin:round;stroke-width: 2 } 
		.shp17 { fill: none;stroke: #b46918;stroke-linecap:round;stroke-linejoin:round } 
		.shp18 { fill: #ff9057 } 
		.shp19 { fill: none;stroke: #85500f;stroke-linecap:round;stroke-linejoin:round;stroke-width: 2 } 
	</style>
	<g id="background5">
	</g>
	<g id="ears5">
	</g>
	<g id="neck5">
	</g>
	<g id="heads5">
	</g>
	<g id="face5">
		<g id="face1">
			<g id="&lt;Group&gt;">
				<g id="&lt;Group&gt;">
					<g id="&lt;Group&gt;">
						<path id="&lt;Compound Path&gt;" class="shp0" d="M146.06 124.6C146.06 146.57 147.45 164.38 169.42 164.38C191.39 164.38 209.2 146.57 209.2 124.6C209.2 102.62 191.39 84.81 169.42 84.81C147.45 84.81 146.06 102.62 146.06 124.6Z" />
					</g>
					<g id="&lt;Group&gt;">
						<path id="&lt;Path&gt;" class="shp1" d="M164.49 111.51L182.57 109.84L189.68 114C191.29 115.07 192.64 116.26 193.77 117.48C196.21 120.37 198.25 124.97 194.91 130.98L195.01 131.31L147.48 134.71L146.06 123.61L146.06 119.69C154.81 118.01 160.95 115.28 164.49 111.51Z" />
					</g>
				</g>
				<path id="&lt;Path&gt;" class="shp2" d="M193.63 132.51L194.91 130.98L167.73 124.59L164.49 127.84L160.51 130.2L157.54 130.64L156.96 132.45C158.32 139.41 163.16 142.88 171.5 142.88L172.9 142.88C186.06 144.35 193.48 140.64 195.15 131.75L193.63 132.51Z" />
				<path id="&lt;Path&gt;" class="shp3" d="M179.53 133.58L188.49 133.58C193.67 133.13 196.3 131.21 196.38 127.84L173.27 124.25C169.5 123.43 166.57 124.63 164.49 127.84C166.15 131.67 171.16 133.58 179.53 133.58Z" />
				<g id="&lt;Clip Group&gt;" clip-path="url(#cp1)">
					<path id="&lt;Path&gt;" class="shp4" d="M188.22 124.02C188.22 128.42 184.66 131.98 180.26 131.98C175.87 131.98 172.3 128.42 172.3 124.02C172.3 119.63 175.87 116.06 180.26 116.06C184.66 116.06 188.22 119.63 188.22 124.02Z" />
					<path id="&lt;Path&gt;" class="shp5" d="M184.6 124.02C184.6 126.66 182.66 128.8 180.26 128.8C177.86 128.8 175.92 126.66 175.92 124.02C175.92 121.38 177.86 119.24 180.26 119.24C182.66 119.24 184.6 121.38 184.6 124.02Z" />
				</g>
				<path id="&lt;Path&gt;" class="shp6" d="M164.65 129.8C164.65 130.65 165.34 131.34 166.19 131.34C167.04 131.34 167.73 130.65 167.73 129.8C167.73 128.95 167.04 128.26 166.19 128.26C165.34 128.26 164.65 128.95 164.65 129.8Z" />
				<path id="&lt;Path&gt;" class="shp7" d="M195.46 130.3C194.55 132.4 192.57 133.45 189.53 133.45L177.25 133.45C173.35 133.51 170.17 132.68 167.73 130.98" />
				<g id="&lt;Group&gt;">
					<path id="&lt;Path&gt;" class="shp3" d="M185.85 129.63C185.85 128.36 184.82 127.33 183.54 127.33C182.27 127.33 181.23 128.36 181.23 129.63L181.23 132.91C182.64 132.74 183.93 132.2 185.01 131.39C185.52 130.97 185.85 130.35 185.85 129.63Z" />
				</g>
				<path id="&lt;Path&gt;" class="shp8" d="M196.77 126.92C192.38 122.96 184.42 121.49 172.9 122.49L196.77 126.92Z" />
				<path id="&lt;Path&gt;" class="shp3" d="M185.22 128.05C186.02 128.69 186.71 128.6 187.28 127.77L187.62 130.63L184.58 131.18L183.54 130.8" />
			</g>
			<g id="&lt;Group&gt;">
				<g id="&lt;Group&gt;">
					<g id="&lt;Group&gt;">
						<path id="&lt;Compound Path&gt;" class="shp0" d="M130.52 84.81C108.55 84.81 90.73 102.62 90.73 124.6C90.73 146.57 108.55 164.38 130.52 164.38C152.49 164.38 153.88 146.57 153.88 124.6C153.88 102.62 152.49 84.81 130.52 84.81Z" />
					</g>
					<g id="&lt;Group&gt;">
						<path id="&lt;Path&gt;" class="shp1" d="M135.45 111.51L117.36 109.84L110.26 114C108.65 115.07 107.3 116.26 106.17 117.48C103.72 120.37 101.69 124.97 105.03 130.98L104.93 131.31L152.46 134.71L153.88 123.61L153.88 119.69C145.13 118.01 138.99 115.28 135.45 111.51Z" />
					</g>
				</g>
				<path id="&lt;Path&gt;" class="shp2" d="M142.4 130.64L139.42 130.2L135.45 127.84L132.21 124.59L105.03 130.98L106.3 132.51L104.79 131.75C106.46 140.64 113.88 144.35 127.04 142.88L128.43 142.88C136.78 142.88 141.62 139.41 142.97 132.45L142.4 130.64Z" />
				<path id="&lt;Path&gt;" class="shp3" d="M120.41 133.58L111.45 133.58C106.27 133.13 103.64 131.21 103.56 127.84L126.66 124.25C130.44 123.43 133.37 124.63 135.45 127.84C133.79 131.67 128.78 133.58 120.41 133.58Z" />
				<g id="&lt;Clip Group&gt;" clip-path="url(#cp2)">
					<path id="&lt;Path&gt;" class="shp4" d="M127.64 124.02C127.64 128.42 124.07 131.98 119.68 131.98C115.28 131.98 111.72 128.42 111.72 124.02C111.72 119.63 115.28 116.06 119.68 116.06C124.07 116.06 127.64 119.63 127.64 124.02Z" />
					<path id="&lt;Path&gt;" class="shp5" d="M124.02 124.02C124.02 126.66 122.08 128.8 119.68 128.8C117.28 128.8 115.34 126.66 115.34 124.02C115.34 121.38 117.28 119.24 119.68 119.24C122.08 119.24 124.02 121.38 124.02 124.02Z" />
				</g>
				<path id="&lt;Path&gt;" class="shp6" d="M135.28 129.8C135.28 130.65 134.59 131.34 133.74 131.34C132.9 131.34 132.21 130.65 132.21 129.8C132.21 128.95 132.9 128.26 133.74 128.26C134.59 128.26 135.28 128.95 135.28 129.8Z" />
				<path id="&lt;Path&gt;" class="shp7" d="M104.48 130.3C105.39 132.4 107.37 133.45 110.4 133.45L122.69 133.45C126.59 133.51 129.76 132.68 132.21 130.98" />
				<g id="&lt;Group&gt;">
					<path id="&lt;Path&gt;" class="shp3" d="M125.27 129.63C125.27 128.36 124.23 127.33 122.96 127.33C121.68 127.33 120.65 128.36 120.65 129.63L120.65 132.91C122.06 132.74 123.35 132.2 124.43 131.39C124.94 130.97 125.27 130.35 125.27 129.63Z" />
				</g>
				<path id="&lt;Path&gt;" class="shp8" d="M103.17 126.92C107.56 122.96 115.52 121.49 127.04 122.49L103.17 126.92Z" />
				<path id="&lt;Path&gt;" class="shp3" d="M124.63 128.05C125.44 128.69 126.13 128.6 126.7 127.77L127.04 130.63L124 131.18L122.96 130.8" />
			</g>
			<g id="&lt;Group&gt;">
				<path id="&lt;Path&gt;" class="shp9" d="M170.97 163.73C169.78 164.36 168.38 164.86 166.74 165.03C162.9 165.73 160.9 164.41 160.73 161.09L159.74 160.83C158.03 164.51 154.3 167.07 149.97 167.07C145.29 167.07 141.31 164.08 139.82 159.91L138.36 159.89L139.23 160.68C139.27 164.33 137.26 165.78 133.2 165.03C128.12 164.48 125.27 160.88 124.45 159.69L124.43 159.69L123.39 158.19L123.39 175.54C123.54 177.16 124.54 181.68 131.25 179.28L129.68 182.29L132.94 181.36L149.16 181.36L172.29 164.07L170.97 163.73Z" />
			</g>
			<path id="&lt;Path&gt;" class="shp0" d="M149.97 121.72C145.36 121.72 141.59 125.49 141.59 130.1L141.59 151.92C141.59 156.53 145.36 160.3 149.97 160.3C154.58 160.3 158.35 156.53 158.35 151.92L158.35 130.1C158.35 125.49 154.58 121.72 149.97 121.72Z" />
			<g id="&lt;Group&gt;">
				<path id="&lt;Path&gt;" class="shp9" d="M149.97 167.07C155.24 167.07 159.61 163.29 160.55 158.3L139.39 158.3C140.33 163.29 144.7 167.07 149.97 167.07Z" />
			</g>
			<g id="&lt;Group&gt;">
				<path id="&lt;Path&gt;" class="shp10" d="M158.48 177.34C156.55 177.39 154.66 177.74 152.92 178.54C152.13 178.91 151.27 179.47 150.34 179.56C149.18 179.66 148.29 178.96 147.29 178.46C142.98 176.34 137.16 177.44 132.75 178.77C130 179.61 127.26 180.88 125.15 182.88C124.96 183.06 123.52 185.08 123.39 185.08C123.4 185.08 176.96 185.08 176.98 185.08C176.84 185.08 175.27 182.92 175.06 182.73C172.86 180.72 170.04 179.46 167.21 178.65C164.48 177.87 161.44 177.25 158.48 177.34Z" />
			</g>
			<g id="&lt;Group&gt;">
				<path id="&lt;Path&gt;" class="shp11" d="M149.97 194.51C158.72 194.51 166.63 190.89 172.29 185.08L127.65 185.08C133.31 190.89 141.21 194.51 149.97 194.51Z" />
			</g>
			<g id="&lt;Group&gt;">
				<path id="&lt;Path&gt;" class="shp12" d="M149.95 185.08L161.34 192.36C165.5 190.72 169.23 188.23 172.29 185.08L149.95 185.08Z" />
			</g>
			<g id="&lt;Group&gt;">
				<path id="&lt;Path&gt;" class="shp13" d="M127.65 185.08C133.31 190.89 141.21 194.51 149.97 194.51C158.72 194.51 166.63 190.89 172.29 185.08" />
			</g>
			<path id="&lt;Path&gt;" class="shp14" d="M149.97 181.52L149.97 187.72" />
			<g id="&lt;Group&gt;">
				<path id="&lt;Path&gt;" class="shp15" d="M138.12 185.08L124.39 185.08" />
				<path id="&lt;Path&gt;" class="shp15" d="M144.69 185.08C147.26 185.04 149.02 183.85 149.97 181.52L149.97 184.65" />
				<path id="&lt;Path&gt;" class="shp15" d="M155.25 185.08C152.68 185.04 150.92 183.85 149.97 181.52L149.97 184.65" />
			</g>
			<path id="&lt;Path&gt;" class="shp16" d="M171.18 151.1C174.14 151.1 176.55 153.5 176.55 156.47" />
			<path id="&lt;Path&gt;" class="shp16" d="M176.55 156.47C176.55 157.51 176.24 158.48 175.73 159.3L175.74 159.3C175.71 159.34 175.68 159.39 175.65 159.45C175.64 159.46 175.63 159.47 175.62 159.48C175.04 160.39 172.15 164.45 166.74 165.03C162.68 165.78 160.67 164.33 160.71 160.68" />
			<path id="&lt;Path&gt;" class="shp16" d="M123.39 156.47C123.39 157.51 123.7 158.48 124.21 159.3L124.2 159.3C124.22 159.34 124.26 159.39 124.29 159.45C124.3 159.46 124.31 159.47 124.32 159.48C124.9 160.39 127.79 164.45 133.2 165.03C137.26 165.78 139.27 164.33 139.23 160.68" />
			<path id="&lt;Path&gt;" class="shp8" d="M122.34 162.83C122.89 161.11 123.81 160.85 125.11 162.06L125.11 160.55L123.4 158.54L122.1 159.17" />
			<path id="&lt;Path&gt;" class="shp16" d="M141.57 137.78L141.57 146.97C141.57 150.2 140.1 152.31 137.17 153.32" />
			<path id="&lt;Path&gt;" class="shp16" d="M160.65 157.73C159.95 163 155.44 167.07 149.97 167.07C144.51 167.07 139.99 163.01 139.29 157.74" />
			<path id="&lt;Path&gt;" class="shp5" d="M161.18 160.16C161.18 160.69 160.97 161.22 161.34 161.69C161.97 162.48 162.79 161.81 163.52 161.62C164.24 161.44 164.99 161.53 165.73 161.48C166.6 161.42 167.15 161.11 167.15 160.16C167.15 158.51 165.81 157.17 164.17 157.17C162.52 157.17 161.18 158.51 161.18 160.16Z" />
			<path id="&lt;Path&gt;" class="shp5" d="M138.76 160.16C138.76 160.69 138.96 161.22 138.59 161.69C137.97 162.48 137.15 161.81 136.42 161.62C135.7 161.44 134.94 161.53 134.21 161.48C133.34 161.42 132.79 161.11 132.79 160.16C132.79 158.51 134.12 157.17 135.77 157.17C137.42 157.17 138.76 158.51 138.76 160.16Z" />
			<path id="&lt;Path&gt;" class="shp8" d="M122.88 159.17L124.04 159.01L123.89 157.73L123.15 157.17L122.75 157.88" />
			<path id="&lt;Path&gt;" class="shp0" d="M162.75 108.94C162.75 116 157.03 121.72 149.97 121.72C142.91 121.72 137.19 116 137.19 108.94C137.19 101.88 142.91 96.16 149.97 96.16C157.03 96.16 162.75 101.88 162.75 108.94Z" />
			<path id="&lt;Path&gt;" class="shp8" d="M155.86 114C156.9 107.29 161.31 104.4 169.09 105.35C178.24 107.27 185.11 110.15 189.68 114L155.86 114Z" />
			<path id="&lt;Path&gt;" class="shp0" d="M146.89 90.83C148.87 93.1 150.92 93.1 153.05 90.83L154.4 95.47L150.65 98.07L144.45 97.41L142.63 95.59" />
			<path id="&lt;Path&gt;" class="shp17" d="M164.17 85.39C159.76 86.27 156.49 88.16 154.05 90.84L154.05 90.83C151.92 93.1 149.87 93.1 147.89 90.83" />
			<path id="&lt;Path&gt;" class="shp17" d="M197.15 95.13C190.09 88.72 180.71 84.81 170.42 84.81" />
			<path id="&lt;Path&gt;" class="shp16" d="M196.38 127.84C182.13 125.03 174.99 123.63 174.96 123.63C172.43 123.25 169.3 123.85 167.02 125.33C164.48 126.99 164.16 129.97 160.51 130.2L158.74 130.2C157.64 130.18 157.05 130.75 156.96 131.9" />
			<path id="&lt;Path&gt;" class="shp16" d="M103.56 127.84C117.81 125.03 124.94 123.63 124.97 123.63C127.51 123.25 130.64 123.85 132.92 125.33C135.46 126.99 135.78 129.97 139.42 130.2L141.2 130.2C142.3 130.18 142.89 130.75 142.97 131.9" />
			<path id="&lt;Path&gt;" class="shp15" d="M120.65 182.19L122.34 184.23C122.8 184.65 123.59 185.08 124.9 185.08L172.29 185.08L175.46 185.08C176.78 185.08 177.57 184.65 178.03 184.23L179.72 182.19" />
			<path id="&lt;Path&gt;" class="shp0" d="M145.04 120.73C146.44 121.41 146.44 122.28 145.04 123.34L148 124.33L149.97 121.72L149.43 118.09L146.65 116.56" />
			<path id="&lt;Path&gt;" class="shp0" d="M154.9 120.73C153.5 121.41 153.5 122.28 154.9 123.34L151.94 124.33L149.97 121.72L150.51 118.09L153.29 116.56" />
			<g id="&lt;Group&gt;">
				<path id="&lt;Path&gt;" class="shp18" d="M153.86 155.75C150.12 155.39 153.75 152.35 155.07 151.44C156.69 150.3 158.84 150.86 158.14 153.2C157.66 154.83 155.55 155.91 153.86 155.75Z" />
			</g>
			<path id="&lt;Path&gt;" class="shp9" d="M121.62 166.25C121.73 165.58 122.11 165.29 122.75 165.38C123.18 165.36 123.39 165.79 123.39 166.69L125.11 164.69L124.94 162.96L123.61 160.15L121.81 160.68L121.62 161.9" />
			<path id="&lt;Path&gt;" class="shp16" d="M128.76 151.1C125.79 151.1 123.36 153.1 123.39 156.47" />
			<path id="&lt;Path&gt;" class="shp16" d="M118.34 174.65L118 175.98C117.11 179.07 115.31 180.87 112.59 181.36" />
			<path id="&lt;Path&gt;" class="shp16" d="M123.39 155.47L119.5 170.26" />
			<path id="&lt;Path&gt;" class="shp8" d="M122.34 162.83C122.89 161.11 123.81 160.85 125.11 162.06L125.11 160.55L123.4 158.54L122.1 159.17" />
			<g id="&lt;Group&gt;">
				<path id="&lt;Path&gt;" class="shp8" d="M144.08 114C143.04 107.29 138.63 104.4 130.85 105.35C130.52 105.42 130.21 105.5 129.89 105.57L127.04 109.64L127.04 106.28C119.59 108.29 114 110.87 110.26 114L144.08 114Z" />
			</g>
			<g id="&lt;Group&gt;">
				<path id="&lt;Path&gt;" class="shp13" d="M130.89 206.83C133.52 207.96 136.35 208.66 139.19 208.96" />
				<path id="&lt;Path&gt;" class="shp13" d="M113.59 187.5C117.07 192.23 119.68 197.85 123.81 202.06C124.7 202.96 125.66 203.77 126.69 204.49" />
				<path id="&lt;Path&gt;" class="shp19" d="M181.05 195.64C179.58 197.93 178.01 200.14 176.13 202.06C172.07 206.18 166.42 208.36 160.74 208.96" />
				<path id="&lt;Path&gt;" class="shp19" d="M186.35 187.5C185.25 188.99 184.24 190.57 183.24 192.17" />
			</g>
			<path id="&lt;Path&gt;" class="shp17" d="M148.67 122L151.26 122" />
		</g>
	</g>
	<g id="haircut10">
	</g>
	<g id="facialhair10">
	</g>
	<g id="uniform5">
	</g>
</svg>