<svg version="1.2" baseProfile="tiny-ps" xmlns="http://www.w3.org/2000/svg" viewBox="0 0 302 362" width="302" height="362">
	<title>footium-batch-all1</title>
	<style>
		tspan { white-space:pre }
		.shp0 { fill: #ff6f29 } 
		.shp1 { fill: #000000 } 
		.shp2 { fill: #4e360e } 
		.shp3 { fill: none;stroke: #000000;stroke-linecap:round;stroke-linejoin:round;stroke-width: 3 } 
		.shp4 { fill: none;stroke: #4e360e;stroke-linecap:round;stroke-linejoin:round;stroke-width: 3 } 
		.shp5 { fill: none;stroke: #000000;stroke-linecap:round;stroke-linejoin:round } 
	</style>
	<g id="background5">
	</g>
	<g id="ears5">
	</g>
	<g id="neck5">
	</g>
	<g id="heads5">
	</g>
	<g id="face5">
	</g>
	<g id="haircut10">
		<g id="haircut7">
			<g id="&lt;Group&gt;">
				<path id="&lt;Path&gt;" class="shp0" d="" />
				<path id="&lt;Path&gt;" class="shp1" d="M82.79 114.86C82.79 114.85 82.79 114.85 82.79 114.85C82.84 113.94 82.91 113.04 83 112.14C83 112.14 83 112.14 83 112.14C83.04 111.71 83.1 111.28 83.15 110.85C83.2 110.41 83.26 109.97 83.32 109.53C83.35 109.32 83.37 109.11 83.4 108.91C83.4 108.91 83.4 108.91 83.4 108.91C83.47 108.42 83.56 107.93 83.64 107.44C83.64 107.44 83.64 107.44 83.64 107.44C83.74 106.87 83.84 106.3 83.95 105.74C83.95 105.74 83.95 105.74 83.95 105.74C84.05 105.21 84.17 104.69 84.29 104.17C84.29 104.17 84.29 104.17 84.29 104.17C84.31 104.08 84.33 103.99 84.35 103.9C84.44 103.48 84.54 103.05 84.64 102.63C84.78 102.08 84.92 101.53 85.07 100.99C85.07 100.99 85.07 100.99 85.07 100.99C85.2 100.53 85.33 100.06 85.47 99.61C85.47 99.6 85.47 99.6 85.47 99.6C85.64 99.03 85.82 98.46 86 97.89C86 97.88 86 97.88 86 97.88C86.09 97.6 86.19 97.33 86.29 97.05C86.33 96.92 86.37 96.79 86.42 96.67C86.63 96.06 86.84 95.45 87.07 94.85C87.13 94.7 87.19 94.55 87.25 94.4C87.32 94.22 87.4 94.03 87.47 93.84C87.47 93.84 87.47 93.84 87.47 93.84C87.73 93.19 88 92.54 88.28 91.9C88.38 91.66 88.49 91.42 88.6 91.18C88.93 90.45 89.26 89.73 89.61 89.02C89.64 88.96 89.67 88.9 89.7 88.84C90.83 86.57 92.08 84.38 93.44 82.27C93.5 82.19 93.55 82.1 93.61 82.02C94.04 81.35 94.49 80.69 94.94 80.05C94.99 79.98 95.03 79.92 95.08 79.85C97.03 77.09 99.19 74.48 101.53 72.05L105.82 54.21C90.38 70.34 82.66 90.79 82.66 115.58L82.75 115.43L82.75 115.43C82.76 115.24 82.78 115.05 82.79 114.86Z" />
				<g id="&lt;Group&gt;">
					<path id="&lt;Path&gt;" class="shp2" d="M201 61.39L202.56 73.53C199.13 64.55 194.04 55.19 186.42 47.24L189.09 58.35C189.46 59.68 189.27 60.38 188.52 60.43C187.75 60.53 187.27 59.8 187.08 59.42C187.06 59.38 187.04 59.34 187.02 59.3C187 59.26 186.98 59.23 186.97 59.2L186.97 59.2C180.44 45.93 172.17 35.09 162.17 26.67C157.63 29.61 153.58 32.53 149.97 35.38L149.97 62.84L174.06 62.84C187.12 62.8 194.53 67.79 197.55 70.44C198.62 71.49 199.68 72.56 200.68 73.68C200.69 73.68 200.7 73.69 200.7 73.7C201.45 74.53 202.17 75.37 202.87 76.24C202.94 76.32 203.01 76.41 203.08 76.5C203.71 77.29 204.33 78.09 204.93 78.91C205.03 79.04 205.12 79.18 205.22 79.31C205.78 80.09 206.33 80.88 206.86 81.68C206.97 81.85 207.07 82.01 207.18 82.17C207.69 82.96 208.19 83.76 208.66 84.57C208.77 84.75 208.87 84.92 208.97 85.1C209.44 85.91 209.89 86.73 210.32 87.55C210.42 87.74 210.51 87.92 210.61 88.11C211.03 88.94 211.45 89.79 211.84 90.64C211.92 90.82 212.01 91.01 212.09 91.19C212.48 92.06 212.85 92.93 213.2 93.82C213.28 94 213.35 94.18 213.42 94.36C213.77 95.26 214.1 96.17 214.42 97.1C214.47 97.26 214.53 97.43 214.58 97.59C214.9 98.54 215.19 99.5 215.46 100.47C215.5 100.61 215.55 100.76 215.59 100.9C215.86 101.9 216.12 102.92 216.35 103.94C216.37 104.05 216.4 104.16 216.42 104.28C216.66 105.35 216.87 106.43 217.05 107.51C217.07 107.58 217.08 107.65 217.09 107.72C217.28 108.88 217.45 110.04 217.58 111.22L217.58 111.22C216.89 98.04 213.58 77.74 201 61.39Z" />
					<path id="&lt;Path&gt;" class="shp1" d="M132.43 51.94L144.71 29.7C133.12 36.62 124.62 46.57 118.58 55.99L118.58 55.98C117.81 57.05 117.18 57.53 116.68 57.44C116.05 57.4 115.85 56.95 116.07 56.1L116.07 56.1L119.85 40.38C110.87 49.76 105.39 61.07 102.02 71.42C101.7 71.82 101.53 72.05 101.53 72.05C101.53 72.05 101.68 71.86 101.99 71.54C101.98 71.55 101.98 71.57 101.97 71.58C101.97 71.58 101.97 71.58 101.97 71.58L101.97 71.58C102.43 71.11 102.92 70.67 103.39 70.22C106.56 67.52 113.92 62.8 126.62 62.84L149.97 62.84L149.97 35.38C142.17 41.53 136.46 47.29 132.43 51.94Z" />
				</g>
			</g>
			<path id="&lt;Path&gt;" class="shp2" d="M149.97 62.84C167.37 62.24 179.37 64.43 185.96 69.38C183.35 63.11 180.96 59.14 178.78 57.47" />
			<path id="&lt;Path&gt;" class="shp3" d="M81.41 119.25C81.08 106.7 84.04 91.48 95.19 76.24" />
			<path id="&lt;Path&gt;" class="shp4" d="" />
			<path id="&lt;Path&gt;" class="shp4" d="M218.72 119.25C219.05 106.7 216.09 91.48 204.93 76.24" />
			<path id="&lt;Path&gt;" class="shp4" d="" />
			<path id="&lt;Path&gt;" class="shp5" d="M183.1 63.43C177.98 52.65 171.5 43.33 163.66 35.44C168.07 43.24 170.71 49.92 171.6 55.46C167.42 49.68 162.99 45.41 158.33 42.68" />
			<path id="&lt;Path&gt;" class="shp1" d="M168.58 50.98C168.9 51.25 169.21 51.3 169.5 51.15C169.87 51.05 169.96 50.77 169.77 50.29C170.13 50.53 170.32 50.66 170.32 50.67C170.33 50.68 170.59 51.63 171.12 53.5L170.28 53.76L169.6 53.21" />
			<path id="&lt;Path&gt;" class="shp1" d="M167.55 42.05C167.41 41.65 167.43 41.38 167.61 41.25C167.88 41.1 168.17 41.24 168.48 41.65L167.98 40.26L166.02 38.5L165.71 38.5L165.59 38.92" />
			<path id="&lt;Path&gt;" class="shp3" d="M185.96 69.38C182.56 64.4 172.62 61.78 156.13 61.51L140.54 61.51L114.74 61.51" />
			<path id="&lt;Path&gt;" class="shp2" d="M213.42 95.21C205.9 77.36 197.72 67.41 188.89 65.36L193.14 65.63L203.48 75.18L208.97 79.72L210.61 83.7L212.27 88.51" />
			<path id="&lt;Path&gt;" class="shp1" d="M105.82 54.21L102.28 70.64L102.85 70.08L101.99 71.54L101.04 72.48L98.83 72.05L97.93 69.87" />
			<path id="&lt;Path&gt;" class="shp2" d="M149.97 35.38C145.52 41.77 142.39 47.32 140.57 52.03L153.95 43.31" />
		</g>
	</g>
	<g id="facialhair10">
	</g>
	<g id="uniform5">
	</g>
</svg>