<svg version="1.2" baseProfile="tiny-ps" xmlns="http://www.w3.org/2000/svg" viewBox="0 0 302 362" width="302" height="362">
	<title>footium-batch-all1</title>
	<style>
		tspan { white-space:pre }
		.shp0 { fill: #000000 } 
		.shp1 { fill: #000000;stroke: #4e360e;stroke-linecap:round;stroke-linejoin:round;stroke-width: 2 } 
		.shp2 { fill: #4e360e } 
		.shp3 { fill: none;stroke: #4e360e;stroke-linecap:round;stroke-linejoin:round;stroke-width: 2 } 
	</style>
	<g id="background5">
	</g>
	<g id="ears5">
	</g>
	<g id="neck5">
	</g>
	<g id="heads5">
	</g>
	<g id="face5">
	</g>
	<g id="haircut10">
		<g id="haircut6">
			<path id="&lt;Path&gt;" class="shp0" d="M235.89 112.3C242.41 101.02 246.08 88.28 246.08 74.79C246.08 28.69 203.22 -8.68 150.34 -8.68C97.47 -8.68 54.6 28.69 54.6 74.79C54.6 84.72 56.6 94.25 60.26 103.09C64.75 103.67 75.81 105.22 83.84 106.36C89.72 74.98 117.25 51.22 150.34 51.22C184.91 51.22 213.41 77.15 217.5 110.61L217.53 110.58C221.85 117.56 227.97 118.14 235.89 112.3Z" />
			<path id="&lt;Path&gt;" class="shp1" d="M174.67 -4.19C177.08 -4.19 179.04 -2.23 179.04 0.19C179.04 3.21 176.6 5.66 173.58 5.66C169.8 5.66 166.74 2.6 166.74 -1.18C166.74 -5.9 170.57 -9.72 175.28 -9.72C181.18 -9.72 185.96 -4.94 185.96 0.96L185.96 3.29" />
			<g id="&lt;Group&gt;">
				<path id="&lt;Path&gt;" class="shp2" d="M215.91 135.61C224.03 128.95 230.82 121.07 235.89 112.3C227.97 118.14 221.85 117.56 217.53 110.58L217.5 110.61C217.84 113.32 218.03 116.07 218.03 118.87C218.03 124.65 217.27 130.25 215.91 135.61Z" />
			</g>
			<g id="&lt;Group&gt;">
				<path id="&lt;Path&gt;" class="shp1" d="M123.68 7.16C129.41 12.88 138.69 12.88 144.42 7.16C149 2.57 149 -4.86 144.42 -9.44C140.75 -13.11 134.81 -13.11 131.15 -9.44C128.21 -6.51 128.21 -1.75 131.15 1.18C133.49 3.53 137.3 3.53 139.64 1.18C141.52 -0.7 141.52 -3.74 139.64 -5.62C138.14 -7.12 135.71 -7.12 134.2 -5.62" />
				<path id="&lt;Path&gt;" class="shp1" d="M128.37 -4.55C122.64 -10.28 113.35 -10.28 107.63 -4.55C103.04 0.03 103.04 7.46 107.63 12.04C111.29 15.71 117.24 15.71 120.9 12.04C123.83 9.11 123.83 4.35 120.9 1.42C118.56 -0.93 114.75 -0.93 112.41 1.42C110.53 3.3 110.53 6.34 112.41 8.22C113.91 9.72 116.34 9.72 117.84 8.22" />
			</g>
			<path id="&lt;Path&gt;" class="shp0" d="M142 49.11L140.19 49.11L137.65 54.64C139.58 53.07 141.28 53.49 142.77 55.91L145.59 52.03L142 49.11Z" />
			<path id="&lt;Path&gt;" class="shp1" d="M61.94 47.77C61.6 47.48 61.26 47.18 60.94 46.86C56.36 42.27 56.36 34.85 60.94 30.26C64.04 27.16 68.78 26.68 72.38 28.83" />
			<g id="&lt;Group&gt;">
				<path id="&lt;Path&gt;" class="shp2" d="M84.76 135.59C83.4 130.25 82.66 124.65 82.66 118.88C82.66 114.6 83.08 110.42 83.84 106.36C75.81 105.22 64.75 103.67 60.26 103.09C65.42 115.57 73.89 126.68 84.76 135.59Z" />
			</g>
			<path id="&lt;Path&gt;" class="shp1" d="M62.32 48.28C60.11 48.96 58.02 50.18 56.27 51.93C51.68 56.51 51.68 63.94 56.27 68.52C57.06 69.32 57.97 69.95 58.94 70.4" />
			<path id="&lt;Path&gt;" class="shp0" d="M132.64 38.25C127.88 38.25 124.02 42.11 124.02 46.88C124.02 51.64 127.88 55.5 132.64 55.5C137.41 55.5 141.27 51.64 141.27 46.88C141.27 42.11 137.41 38.25 132.64 38.25Z" />
			<path id="&lt;Path&gt;" class="shp0" d="M162.93 47.81C162.93 54.97 158.08 60.78 152.1 60.78C146.12 60.78 141.27 54.97 141.27 47.81C141.27 40.66 146.12 34.85 152.1 34.85C158.08 34.85 162.93 40.66 162.93 47.81Z" />
			<path id="&lt;Path&gt;" class="shp3" d="M86.5 55.34C80.78 61.07 71.49 61.07 65.76 55.34C61.18 50.76 61.18 43.33 65.76 38.74C69.43 35.08 75.37 35.08 79.04 38.74C81.97 41.68 81.97 46.43 79.04 49.36C76.69 51.71 72.89 51.71 70.54 49.36C68.66 47.49 68.66 44.44 70.54 42.57C72.04 41.07 74.48 41.07 75.98 42.57" />
			<path id="&lt;Path&gt;" class="shp3" d="M81.81 43.63C87.54 37.9 96.83 37.9 102.56 43.63C107.14 48.21 107.14 55.64 102.56 60.22C98.89 63.89 92.95 63.89 89.28 60.22C86.35 57.29 86.35 52.54 89.28 49.6C91.63 47.26 95.43 47.26 97.78 49.6C99.65 51.48 99.65 54.52 97.78 56.4C96.28 57.9 93.84 57.9 92.34 56.4" />
			<path id="&lt;Path&gt;" class="shp3" d="M102.56 43.63C106.73 39.46 113.49 39.46 117.66 43.63C121 46.97 121 52.38 117.66 55.71C114.99 58.38 110.66 58.38 107.99 55.71C105.86 53.58 105.86 50.11 107.99 47.98C109.7 46.27 112.47 46.27 114.18 47.98" />
			<path id="&lt;Path&gt;" class="shp3" d="M190.14 18.1C193.73 17.1 197.73 18.02 200.55 20.84C203.89 24.17 203.89 29.58 200.55 32.92C197.88 35.59 193.56 35.59 190.89 32.92C188.75 30.78 188.75 27.32 190.89 25.19C192.59 23.48 195.36 23.48 197.07 25.19" />
			<path id="&lt;Path&gt;" class="shp3" d="M101.9 31.85C99.48 31.85 97.52 33.81 97.52 36.23C97.52 39.25 99.97 41.69 102.99 41.69C106.77 41.69 109.83 38.63 109.83 34.86C109.83 30.14 106 26.31 101.28 26.31C95.39 26.31 90.6 31.1 90.6 36.99L90.6 39.33" />
			<path id="&lt;Path&gt;" class="shp1" d="M159.07 -6.89C156.66 -6.89 154.7 -4.93 154.7 -2.52C154.7 0.5 157.15 2.95 160.17 2.95C163.94 2.95 167 -0.11 167 -3.88C167 -8.6 163.18 -12.43 158.46 -12.43C152.56 -12.43 147.78 -7.64 147.78 -1.75L147.78 0.59" />
			<path id="&lt;Path&gt;" class="shp3" d="M82.59 31C80.17 31 78.22 32.96 78.22 35.38C78.22 38.4 80.66 40.84 83.68 40.84C87.46 40.84 90.52 37.78 90.52 34.01C90.52 29.29 86.69 25.46 81.98 25.46C76.45 25.46 71.9 29.67 71.35 35.05" />
			<path id="&lt;Path&gt;" class="shp3" d="M131.55 45.66C129.13 45.66 127.18 47.62 127.18 50.04C127.18 53.06 129.62 55.5 132.64 55.5C136.42 55.5 139.48 52.44 139.48 48.67C139.48 43.95 135.65 40.13 130.94 40.13C125.04 40.13 120.07 44.29 120.07 50.19" />
			<g id="&lt;Group&gt;">
				<path id="&lt;Path&gt;" class="shp1" d="M132.54 35.57C126.81 41.3 117.52 41.3 111.79 35.57C107.21 30.99 107.21 23.56 111.79 18.97C115.46 15.31 121.4 15.31 125.07 18.97C128 21.91 128 26.66 125.07 29.6C122.72 31.94 118.92 31.94 116.57 29.6C114.7 27.72 114.7 24.68 116.57 22.8C118.07 21.3 120.51 21.3 122.01 22.8" />
				<path id="&lt;Path&gt;" class="shp1" d="M127.85 23.86C133.57 18.13 142.86 18.13 148.59 23.86C153.17 28.44 153.17 35.87 148.59 40.45C144.92 44.12 138.98 44.12 135.31 40.45C132.38 37.52 132.38 32.77 135.31 29.83C137.66 27.49 141.46 27.49 143.81 29.83C145.69 31.71 145.69 34.75 143.81 36.63C142.31 38.13 139.87 38.13 138.37 36.63" />
				<path id="&lt;Path&gt;" class="shp1" d="M161.62 50.02C161.37 52.63 160.24 55.18 158.24 57.18C154.58 60.84 148.63 60.84 144.97 57.18C142.03 54.25 142.03 49.49 144.97 46.56C147.31 44.21 151.12 44.21 153.46 46.56C155.34 48.43 155.34 51.48 153.46 53.36C151.96 54.86 149.53 54.86 148.02 53.36" />
				<path id="&lt;Path&gt;" class="shp1" d="M226.21 82.18C225.95 84.79 224.83 87.33 222.82 89.34C219.16 93 213.21 93 209.55 89.34C206.62 86.4 206.62 81.65 209.55 78.72C211.89 76.37 215.7 76.37 218.05 78.72C219.92 80.59 219.92 83.64 218.05 85.51C216.54 87.01 214.11 87.01 212.61 85.51" />
				<path id="&lt;Path&gt;" class="shp1" d="M148.59 23.86C152.76 19.69 159.52 19.69 163.69 23.86C167.03 27.2 167.03 32.61 163.69 35.94C161.02 38.61 156.7 38.61 154.03 35.94C151.89 33.81 151.89 30.35 154.03 28.21C155.73 26.5 158.5 26.5 160.21 28.21" />
				<path id="&lt;Path&gt;" class="shp1" d="M147.93 12.08C145.52 12.08 143.56 14.04 143.56 16.46C143.56 19.48 146.01 21.92 149.03 21.92C152.8 21.92 155.86 18.86 155.86 15.09C155.86 10.37 152.03 6.55 147.32 6.55C141.42 6.55 136.64 11.33 136.64 17.23L136.64 19.56" />
			</g>
			<g id="&lt;Group&gt;">
				<path id="&lt;Path&gt;" class="shp1" d="M217.08 73.17C211.35 78.9 202.07 78.9 196.34 73.17C191.76 68.59 191.76 61.16 196.34 56.58C200 52.91 205.95 52.91 209.61 56.58C212.55 59.51 212.55 64.27 209.61 67.2C207.27 69.55 203.46 69.55 201.12 67.2C199.24 65.32 199.24 62.28 201.12 60.4C202.62 58.9 205.05 58.9 206.56 60.4" />
				<path id="&lt;Path&gt;" class="shp1" d="M216.92 38.87C217.17 36.25 218.3 33.71 220.3 31.71C223.97 28.04 229.91 28.04 233.58 31.71C236.51 34.64 236.51 39.39 233.58 42.33C231.23 44.67 227.43 44.67 225.08 42.33C223.21 40.45 223.21 37.41 225.08 35.53C226.58 34.03 229.02 34.03 230.52 35.53" />
				<path id="&lt;Path&gt;" class="shp1" d="M233.13 61.47C237.3 57.29 244.07 57.29 248.24 61.47C251.57 64.8 251.57 70.21 248.24 73.55C245.57 76.22 241.24 76.22 238.57 73.55C236.44 71.41 236.44 67.95 238.57 65.82C240.28 64.11 243.05 64.11 244.76 65.82" />
				<path id="&lt;Path&gt;" class="shp3" d="M232.48 49.69C230.06 49.69 228.1 51.65 228.1 54.06C228.1 57.08 230.55 59.53 233.57 59.53C237.34 59.53 240.4 56.47 240.4 52.69C240.4 47.98 236.58 44.15 231.86 44.15C225.96 44.15 221.18 48.93 221.18 54.83L221.18 57.17" />
			</g>
			<g id="&lt;Group&gt;">
				<path id="&lt;Path&gt;" class="shp3" d="M71.53 97.8C65.8 92.08 65.8 82.79 71.53 77.06C76.11 72.48 83.54 72.48 88.13 77.06C91.79 80.73 91.79 86.67 88.13 90.34C85.19 93.27 80.44 93.27 77.51 90.34C75.16 87.99 75.16 84.19 77.51 81.84C79.38 79.96 82.43 79.96 84.3 81.84C85.8 83.34 85.8 85.78 84.3 87.28" />
				<path id="&lt;Path&gt;" class="shp1" d="M95.69 63.03C98.3 63.28 102.85 65.41 104.85 67.41C108.52 71.07 108.52 77.02 104.85 80.68C101.92 83.62 97.16 83.62 94.23 80.68C91.88 78.34 91.88 74.53 94.23 72.19C96.11 70.31 99.15 70.31 101.03 72.19C102.53 73.69 102.53 76.12 101.03 77.62" />
				<path id="&lt;Path&gt;" class="shp3" d="M71.53 77.06C67.36 72.89 67.36 66.13 71.53 61.96C74.87 58.62 80.28 58.62 83.61 61.96C86.28 64.63 86.28 68.95 83.61 71.62C81.48 73.76 78.02 73.76 75.88 71.62C74.17 69.91 74.17 67.14 75.88 65.44" />
				<path id="&lt;Path&gt;" class="shp3" d="M59.75 77.72C59.75 80.13 61.71 82.09 64.13 82.09C67.15 82.09 69.6 79.64 69.6 76.62C69.6 72.85 66.54 69.79 62.76 69.79C58.04 69.79 54.22 73.61 54.22 78.33C54.22 84.23 59 89.01 64.9 89.01L67.23 89.01" />
			</g>
			<g id="&lt;Group&gt;">
				<path id="&lt;Path&gt;" class="shp3" d="M192.85 49.65C198.58 55.38 207.86 55.38 213.59 49.65C218.17 45.07 218.17 37.64 213.59 33.06C209.92 29.39 203.98 29.39 200.32 33.06C197.38 35.99 197.38 40.75 200.32 43.68C202.66 46.02 206.47 46.02 208.81 43.68C210.69 41.8 210.69 38.76 208.81 36.88C207.31 35.38 204.88 35.38 203.37 36.88" />
				<path id="&lt;Path&gt;" class="shp3" d="M197.54 37.94C191.81 32.22 182.52 32.22 176.8 37.94C172.21 42.53 172.21 49.96 176.8 54.54C180.46 58.2 186.41 58.2 190.07 54.54C193 51.61 193 46.85 190.07 43.92C187.73 41.57 183.92 41.57 181.58 43.92C179.7 45.79 179.7 48.84 181.58 50.71C183.08 52.22 185.51 52.22 187.01 50.71" />
				<path id="&lt;Path&gt;" class="shp3" d="M176.8 37.94C172.63 33.77 165.86 33.77 161.69 37.94C158.36 41.28 158.36 46.69 161.69 50.03C164.36 52.7 168.69 52.7 171.36 50.03C173.49 47.89 173.49 44.43 171.36 42.29C169.65 40.58 166.88 40.58 165.17 42.29" />
				<path id="&lt;Path&gt;" class="shp3" d="M177.45 26.16C179.87 26.16 181.83 28.12 181.83 30.54C181.83 33.56 179.38 36.01 176.36 36.01C172.58 36.01 169.52 32.95 169.52 29.17C169.52 24.45 173.35 20.63 178.07 20.63C183.97 20.63 188.75 25.41 188.75 31.31L188.75 33.65" />
			</g>
			<g id="&lt;Group&gt;">
				<path id="&lt;Path&gt;" class="shp1" d="M88.31 21.66C94.03 27.39 103.32 27.39 109.05 21.66C113.63 17.08 113.63 9.65 109.05 5.07C105.38 1.4 99.44 1.4 95.77 5.07C92.84 8 92.84 12.75 95.77 15.69C98.12 18.03 101.92 18.03 104.27 15.69C106.15 13.81 106.15 10.77 104.27 8.89C102.77 7.39 100.33 7.39 98.83 8.89" />
				<path id="&lt;Path&gt;" class="shp1" d="M93 9.95C87.27 4.22 77.98 4.22 72.25 9.95C67.67 14.53 67.67 21.96 72.25 26.55C75.92 30.21 81.86 30.21 85.53 26.55C88.46 23.61 88.46 18.86 85.53 15.93C83.18 13.58 79.38 13.58 77.03 15.93C75.16 17.8 75.16 20.85 77.03 22.72C78.54 24.22 80.97 24.22 82.47 22.72" />
				<path id="&lt;Path&gt;" class="shp1" d="M220.3 31.71C226.03 25.98 226.04 16.34 220.31 10.61C215.73 6.03 208.3 6.03 203.72 10.61C200.05 14.28 200.05 20.22 203.72 23.89C206.65 26.82 211.41 26.82 214.34 23.89C216.69 21.54 216.69 17.74 214.34 15.39C212.46 13.51 209.42 13.51 207.54 15.39C206.04 16.89 206.04 19.33 207.54 20.83" />
			</g>
			<g id="&lt;Group&gt;">
				<path id="&lt;Path&gt;" class="shp1" d="M176.79 16.33C182.52 22.06 191.81 22.06 197.53 16.33C202.12 11.75 202.12 4.32 197.53 -0.27C193.87 -3.93 187.92 -3.93 184.26 -0.27C181.33 2.67 181.33 7.42 184.26 10.36C186.6 12.7 190.41 12.7 192.75 10.36C194.63 8.48 194.63 5.44 192.75 3.56C191.25 2.06 188.82 2.06 187.32 3.56" />
				<path id="&lt;Path&gt;" class="shp1" d="M181.48 4.62C175.75 -1.11 166.47 -1.11 160.74 4.62C156.16 9.2 156.16 16.63 160.74 21.21C164.4 24.88 170.35 24.88 174.01 21.21C176.95 18.28 176.95 13.53 174.01 10.59C171.67 8.25 167.86 8.25 165.52 10.59C163.64 12.47 163.64 15.51 165.52 17.39C167.02 18.89 169.45 18.89 170.96 17.39" />
			</g>
			<path id="&lt;Path&gt;" class="shp2" d="M102.78 25.37L106.73 28.05L108.79 25.37L108.79 23.3L107.66 22.88" />
			<path id="&lt;Path&gt;" class="shp2" d="M105.99 28.05L107.66 28.65L107.89 27.12C108.42 26.07 108.27 25.68 107.43 25.96C106.59 26.23 106.18 26.37 106.18 26.37" />
			<path id="&lt;Path&gt;" class="shp2" d="M110.91 37.5L108.36 39.87L113.48 41.05L118.34 44.4L120.16 46.88L127.02 40.42L110.91 37.5Z" />
			<path id="&lt;Path&gt;" class="shp2" d="M109.83 38.91L110.26 34.43L111.36 34.43L112.82 37.5L113.12 38.91L111.48 39.33" />
			<path id="&lt;Path&gt;" class="shp2" d="M128.28 39.33L132.54 36.34L133.92 39.33L133.39 39.87L129.64 39.87" />
			<path id="&lt;Path&gt;" class="shp1" d="M59.01 96.72C59.01 99.14 60.97 101.09 63.39 101.09C66.41 101.09 68.86 98.65 68.86 95.63C68.86 91.85 65.8 88.79 62.02 88.79C57.3 88.79 53.48 92.62 53.48 97.34C53.48 103.23 58.26 108.02 64.16 108.02" />
			<path id="&lt;Path&gt;" class="shp3" d="" />
			<path id="&lt;Path&gt;" class="shp3" d="M67.92 98.69L69.27 96.03L71.08 97.4L70.79 98.4L69.5 98.69" />
			<path id="&lt;Path&gt;" class="shp1" d="M83.24 93.11C88.97 98.84 88.97 108.13 83.24 113.86C78.66 118.44 71.23 118.44 66.65 113.86C62.98 110.19 62.98 104.25 66.65 100.58C69.58 97.65 74.33 97.65 77.27 100.58C79.61 102.93 79.61 106.73 77.27 109.08C75.39 110.95 72.35 110.95 70.47 109.08C68.97 107.57 68.97 105.14 70.47 103.64" />
			<path id="&lt;Path&gt;" class="shp1" d="M237.6 94.27C241.35 99.96 240.73 107.7 235.72 112.71C231.13 117.29 223.7 117.29 219.12 112.71C215.45 109.04 215.45 103.1 219.12 99.43C222.05 96.5 226.81 96.5 229.74 99.43C232.09 101.78 232.09 105.58 229.74 107.93C227.86 109.81 224.82 109.81 222.94 107.93C221.44 106.43 221.44 103.99 222.94 102.49" />
			<path id="&lt;Path&gt;" class="shp1" d="M65.88 56.17C64.15 56.01 62.37 56.58 61.05 57.9C59.17 59.78 59.17 62.82 61.05 64.7C62.55 66.2 64.98 66.2 66.48 64.7" />
			<path id="&lt;Path&gt;" class="shp2" d="M83.03 42.54L81.33 42.54L81.33 40.84L83.03 40.84L83.03 42.54Z" />
			<path id="&lt;Path&gt;" class="shp2" d="M58.2 49.11C59.52 48.23 59.63 47.02 58.51 45.49L61.91 47.3L61.57 48.53" />
			<path id="&lt;Path&gt;" class="shp3" d="M237.46 88.73C235.05 88.73 233.09 86.77 233.09 84.36C233.09 81.34 235.54 78.89 238.56 78.89C242.33 78.89 245.39 81.95 245.39 85.72C245.39 90.44 241.57 94.27 236.85 94.27C230.95 94.27 226.17 89.49 226.17 83.59L226.17 81.25" />
			<path id="&lt;Path&gt;" class="shp2" d="M213.61 76.13C213.81 76.17 215.29 76.62 218.03 77.47L217.81 74.27L216.37 73.84" />
			<path id="&lt;Path&gt;" class="shp2" d="M164.74 23.96L169.39 23.96L169.73 27.32L170.25 32.24L170.62 34.82L166.59 35.15L164.74 34.67L166.19 29.56L164.74 23.96Z" />
			<path id="&lt;Path&gt;" class="shp2" d="M154.01 20.95L159.19 20.95L157.39 16.23L155.84 15.66L154.01 20.95Z" />
			<path id="&lt;Path&gt;" class="shp2" d="M175.49 20.63C179.2 20.46 180.99 20.36 180.86 20.32C180.67 20.25 179.29 18.75 178.85 18.3C178.55 18 177.63 17.67 176.08 17.3" />
			<path id="&lt;Path&gt;" class="shp3" d="" />
			<path id="&lt;Path&gt;" class="shp2" d="M195.31 35.66L198.12 38.61L198.84 35.15L197.08 35.15" />
			<path id="&lt;Path&gt;" class="shp3" d="M212.39 61.47C218.12 55.74 227.41 55.74 233.13 61.47C237.72 66.05 237.72 73.48 233.13 78.06C229.47 81.73 223.52 81.73 219.86 78.06C216.92 75.13 216.92 70.37 219.86 67.44C222.2 65.09 226.01 65.09 228.35 67.44C230.23 69.32 230.23 72.36 228.35 74.24C226.85 75.74 224.42 75.74 222.92 74.24" />
			<path id="&lt;Path&gt;" class="shp2" d="M112.39 14.79L115.84 15.21L115.84 16.59L111.79 18.97L112.39 14.79Z" />
			<path id="&lt;Path&gt;" class="shp2" d="M196.62 17.98L200.69 20.25L201.55 16.03L201.2 13.88L199.71 13.88L197.23 16.63" />
		</g>
	</g>
	<g id="facialhair10">
	</g>
	<g id="uniform5">
	</g>
</svg>