<svg version="1.2" baseProfile="tiny-ps" xmlns="http://www.w3.org/2000/svg" viewBox="0 0 302 362" width="302" height="362">
	<title>footium-batch-all1</title>
	<style>
		tspan { white-space:pre }
		.shp0 { fill: #db5700 } 
		.shp1 { fill: #a33b10 } 
		.shp2 { fill: #85500f } 
		.shp3 { fill: none;stroke: #4e360e;stroke-linecap:round;stroke-linejoin:round;stroke-width: 1.5 } 
		.shp4 { fill: #4e360e } 
		.shp5 { fill: none;stroke: #db5700;stroke-linecap:round;stroke-linejoin:round;stroke-width: 2 } 
	</style>
	<g id="background5">
	</g>
	<g id="ears5">
	</g>
	<g id="neck5">
	</g>
	<g id="heads5">
	</g>
	<g id="face5">
	</g>
	<g id="haircut10">
		<g id="haircut2">
			<g id="&lt;Group&gt;">
				<path id="&lt;Path&gt;" class="shp0" d="M193.43 45.58L104.6 25.61L136.72 45.58L169.04 45.58L193.43 45.58Z" />
				<path id="&lt;Path&gt;" class="shp1" d="M169.04 45.58L136.72 45.58L160.46 51.97L206.26 48.47L193.43 45.58L169.04 45.58Z" />
			</g>
			<g id="&lt;Group&gt;">
				<g id="&lt;Group&gt;">
					<path id="&lt;Path&gt;" class="shp0" d="M172.85 45.58L142.65 42.41C124.54 39.8 109.88 28.15 109.85 28.12C100.37 20.58 81.71 28.33 86.68 41.76L86.72 41.85C86.94 42.42 87.19 42.97 87.49 43.49L88.46 45.58L169.04 45.58L172.85 45.58Z" />
					<path id="&lt;Path&gt;" class="shp1" d="M199.35 47.7C196.38 47.72 193.41 47.63 190.45 47.43L190.31 47.41C187.54 47.22 184.77 46.93 182.01 46.54L172.85 45.58L169.04 45.58L88.46 45.58L100.91 72.23C101.01 72.13 101.12 72.03 101.21 71.93C103.28 70.52 115.05 62.9 131.04 60.58L159.25 50.75C169.32 53.29 178.27 56.91 186.12 61.63C198.6 69.53 208.31 81.41 213.49 95.47L216.34 93.93L222.03 88.06L225.21 81.92L226.09 79.92L226.54 76.18C226.71 59.98 216.74 47.7 199.35 47.7Z" />
				</g>
				<path id="&lt;Path&gt;" class="shp2" d="M190.45 47.43L190.44 47.42C190.4 47.42 190.36 47.42 190.31 47.41L190.45 47.43Z" />
			</g>
			<path id="&lt;Path&gt;" class="shp1" d="M198.27 93.93C204.97 90.53 208.33 84.62 208.36 76.18L174.51 52.48L174.51 60.48C174.43 69.75 187.77 68.35 193.44 71.41C202.46 76.27 202.97 85.51 198.27 93.93Z" />
			<path id="&lt;Path&gt;" class="shp1" d="M131.04 57.22L108.98 64.16L100.91 72.23L115.05 72.23C130.37 72.69 143.72 67.68 155.1 57.22L131.04 57.22Z" />
			<g id="&lt;Group&gt;">
				<path id="&lt;Path&gt;" class="shp3" d="" />
				<path id="&lt;Path&gt;" class="shp3" d="" />
			</g>
			<g id="&lt;Group&gt;">
				<path id="&lt;Path&gt;" class="shp3" d="M183.81 47.3C198.12 47.3 209.71 58.9 209.71 73.2C209.71 82.64 204.67 90.9 197.13 95.43" />
				<path id="&lt;Path&gt;" class="shp3" d="M210.47 54.74C215.25 59.44 218.21 65.97 218.21 73.2C218.21 82.64 213.17 90.9 205.63 95.43" />
				<path id="&lt;Path&gt;" class="shp3" d="M200.81 47.3C215.12 47.3 226.71 58.9 226.71 73.2C226.71 82.64 221.67 90.9 214.13 95.43" />
			</g>
			<path id="&lt;Path&gt;" class="shp4" d="M171.9 46.45C173.65 47.02 174.52 49.14 174.52 52.81L168.62 53.05" />
			<g id="&lt;Group&gt;">
				<path id="&lt;Path&gt;" class="shp4" d="M174.51 52.48C174.58 51.74 174.46 51 174.16 50.26C173.91 47.64 171.72 45.58 169.04 45.58C167.41 45.58 165.97 46.35 165.03 47.53L165.01 47.52L160.46 51.97C165.34 52.73 170.03 54.02 174.51 55.76L174.51 52.48Z" />
			</g>
			<path id="&lt;Path&gt;" class="shp1" d="M155.1 57.22L160.46 51.97L157.78 48.77L144.78 50.02L136.42 55.76L138.79 60.51" />
			<path id="&lt;Path&gt;" class="shp5" d="M139.37 34.3C152.09 37.89 164.28 37.49 175.95 33.1" />
			<path id="&lt;Path&gt;" class="shp5" d="M151.05 37.3L171.57 37.3C178.53 37.48 183.39 39.21 186.16 42.49" />
			<g id="&lt;Group&gt;">
				<path id="&lt;Path&gt;" class="shp5" d="M131.2 61.94C145.36 58.07 154.76 51.59 159.4 42.49" />
				<path id="&lt;Path&gt;" class="shp5" d="M109.71 61.94C122.87 58.07 131.77 51.59 136.4 42.49" />
				<path id="&lt;Path&gt;" class="shp5" d="M113.41 42.49C108.78 51.59 100.38 58.07 88.22 61.94" />
			</g>
			<path id="&lt;Path&gt;" class="shp5" d="M70.47 41.18C71.59 43.37 73.63 44.46 76.6 44.46L149.01 44.46" />
		</g>
	</g>
	<g id="facialhair10">
	</g>
	<g id="uniform5">
	</g>
</svg>