<svg version="1.2" baseProfile="tiny-ps" xmlns="http://www.w3.org/2000/svg" viewBox="0 0 302 362" width="302" height="362">
	<title>footium-batch-all1</title>
	<style>
		tspan { white-space:pre }
		.shp0 { fill: none;stroke: #cc6600;stroke-linecap:round;stroke-linejoin:round;stroke-width: 2 } 
		.shp1 { fill: #4e360e } 
		.shp2 { fill: #cc6600 } 
		.shp3 { fill: none;stroke: #000000;stroke-linecap:round;stroke-linejoin:round;stroke-width: 2 } 
		.shp4 { fill: #000000 } 
		.shp5 { fill: none;stroke: #cc6600;stroke-linecap:round;stroke-linejoin:round } 
	</style>
	<g id="background5">
	</g>
	<g id="ears5">
	</g>
	<g id="neck5">
	</g>
	<g id="heads5">
	</g>
	<g id="face5">
	</g>
	<g id="haircut10">
		<g id="haircut10">
			<path id="&lt;Path&gt;" class="shp0" d="M119.5 33.51L185.02 14.24" />
			<g id="&lt;Group&gt;">
				<g id="&lt;Group&gt;">
					<path id="&lt;Path&gt;" class="shp1" d="M199.93 15.24L115.51 33.51L115.5 33.51L115.51 33.51L199.93 15.24Z" />
					<path id="&lt;Path&gt;" class="shp1" d="M199.96 15.34C200.09 15.75 200.58 17.51 200.73 19.99C200.58 17.49 200.08 15.73 199.96 15.34Z" />
					<path id="&lt;Path&gt;" class="shp1" d="M199.93 15.24C199.94 15.26 199.95 15.29 199.96 15.32C199.95 15.29 199.94 15.27 199.93 15.24Z" />
					<g id="&lt;Group&gt;">
						<path id="&lt;Path&gt;" class="shp1" d="M228.56 34.62L222.24 35.98C222.25 33.56 221.97 31.49 221.4 29.77L215.08 31.14C215.09 28.71 214.81 26.64 214.25 24.93L207.92 26.3C207.93 23.87 207.65 21.8 207.09 20.09L200.77 21.45C200.77 20.94 200.75 20.46 200.73 19.99C200.63 24.97 199.18 29.22 198.17 31.56C197.8 32.21 197.38 32.87 196.91 33.51L115.5 33.51C103.78 35.59 94.87 45.82 94.87 58.14C94.87 63.94 96.85 69.26 100.15 73.5C112.54 59.82 130.43 51.22 150.34 51.22C167.73 51.22 183.58 57.79 195.57 68.56L215.56 60.56C228.08 54.89 232.41 46.24 228.56 34.62Z" />
					</g>
					<path id="&lt;Path&gt;" class="shp2" d="M196.91 33.51C197.38 32.87 197.8 32.21 198.17 31.56C199.18 29.22 200.63 24.97 200.73 19.99C200.73 19.99 200.73 19.99 200.73 19.99C200.58 17.51 200.09 15.75 199.96 15.34C199.96 15.33 199.96 15.33 199.96 15.32C199.95 15.29 199.94 15.26 199.93 15.24L115.51 33.51L115.5 33.51L196.91 33.51Z" />
				</g>
			</g>
			<path id="&lt;Path&gt;" class="shp3" d="M204.3 14C208.32 19.5 209.24 25.61 207.06 32.33C206.21 38.59 200.55 43.69 190.08 47.64" />
			<path id="&lt;Path&gt;" class="shp3" d="M211.46 18.85C215.47 24.35 216.39 30.45 214.22 37.17C213.36 43.43 207.7 48.53 197.24 52.48" />
			<path id="&lt;Path&gt;" class="shp3" d="M218.62 23.69C222.63 29.19 223.55 35.3 221.37 42.01C220.52 48.27 214.86 53.38 204.4 57.32" />
			<path id="&lt;Path&gt;" class="shp3" d="M225.77 28.53C229.79 34.03 230.71 40.14 228.53 46.85C227.68 53.12 222.02 58.22 211.55 62.16C222.54 61.81 229.39 58.17 232.11 51.24" />
			<g id="&lt;Group&gt;">
				<path id="&lt;Path&gt;" class="shp4" d="M158.54 51.74L158.54 51.72L123.59 46.72C117.35 44.84 114.66 46.76 115.51 52.48L115.51 60.7C116.11 60.39 116.73 60.1 117.35 59.81C127.11 54.35 138.36 51.22 150.34 51.22C153.12 51.22 155.85 51.41 158.54 51.74Z" />
			</g>
			<path id="&lt;Path&gt;" class="shp4" d="M121.33 46.22L156.18 51.38L124.66 48.77" />
			<path id="&lt;Path&gt;" class="shp1" d="M182.93 33.51C192.74 33.88 198.36 30.68 199.8 23.9L202.54 31.92L199.51 37.67L196 41.18L187.05 41.98" />
			<path id="&lt;Path&gt;" class="shp3" d="M197.15 9.16C201.16 14.66 202.08 20.77 199.9 27.48C199.05 33.74 193.39 38.85 182.93 42.79" />
			<path id="&lt;Path&gt;" class="shp5" d="M124.05 31.66L148.19 20.92" />
			<path id="&lt;Path&gt;" class="shp1" d="M103.32 69.03C95.69 75.75 90.68 83.36 88.29 91.84C104.62 85.15 113.7 74.77 115.51 60.7L109.65 60.18L103.32 69.03Z" />
			<path id="&lt;Path&gt;" class="shp1" d="M115.51 60.7L118.55 50.56C119.42 47.52 121.94 46.31 126.13 46.93L117.02 41.98L111.73 43.54L108.02 47.86L107.71 60.94" />
			<path id="&lt;Path&gt;" class="shp1" d="M114.06 66.11L118.28 51.46L108.68 59.62" />
			<path id="&lt;Path&gt;" class="shp1" d="M97.91 70.09C98.85 71.96 98.64 73.73 97.28 75.38L101.81 74.73C103.04 72.77 103.66 71.72 103.66 71.59C103.66 71.46 103.2 70.82 102.27 69.67" />
		</g>
	</g>
	<g id="facialhair10">
	</g>
	<g id="uniform5">
	</g>
</svg>