<svg version="1.2" baseProfile="tiny-ps" xmlns="http://www.w3.org/2000/svg" viewBox="0 0 302 362" width="302" height="362">
	<title>footium-batch-all1</title>
	<style>
		tspan { white-space:pre }
		.shp0 { fill: #000000 } 
		.shp1 { fill: #af4c22 } 
		.shp2 { fill: none;stroke: #af4c22;stroke-linecap:round;stroke-linejoin:round;stroke-width: 2 } 
		.shp3 { fill: none;stroke: #000000;stroke-linecap:round;stroke-linejoin:round;stroke-width: 2 } 
		.shp4 { fill: none;stroke: #ef9b06;stroke-linecap:round;stroke-linejoin:round } 
		.shp5 { fill: none;stroke: #ef9b06;stroke-linecap:round;stroke-linejoin:round;stroke-width: 2 } 
		.shp6 { fill: #ef9b06 } 
		.shp7 { fill: none;stroke: #af4c22;stroke-linecap:round;stroke-width: 2 } 
		.shp8 { fill: none;stroke: #af4c22;stroke-linecap:round;stroke-linejoin:round;stroke-width: 3 } 
	</style>
	<g id="background5">
	</g>
	<g id="ears5">
	</g>
	<g id="neck5">
	</g>
	<g id="heads5">
	</g>
	<g id="face5">
	</g>
	<g id="haircut10">
		<g id="haircut9">
			<g id="&lt;Group&gt;">
				<path id="&lt;Path&gt;" class="shp0" d="M49.04 126.8C38.32 126.8 29.64 135.49 29.64 146.2L68.44 146.2C68.44 135.49 59.75 126.8 49.04 126.8Z" />
			</g>
			<path id="&lt;Path&gt;" class="shp1" d="M134.61 53.08C128.58 48.61 121.12 45.97 113.04 45.97C95.12 45.97 80.24 58.97 77.31 76.05C72.56 99.86 60.41 117.38 40.86 128.61C42.55 127.63 48.6 131.01 49.95 131.75C57.55 135.88 62.29 142.45 63.95 150.79C64.88 155.48 66.2 160.03 68.28 164.35C75.07 178.39 88.38 186.01 103.86 186.18L103.86 98.33C104.15 75.65 113.04 61 130.55 54.39C131.85 53.94 133.18 53.51 134.61 53.08Z" />
			<g id="&lt;Group&gt;">
				<path id="&lt;Path&gt;" class="shp1" d="M157.46 51.6C160.33 42.1 167.42 34.45 176.56 30.81L109.18 55.04L116.85 60.1C126.73 54.46 138.15 51.22 150.34 51.22C152.75 51.22 155.12 51.35 157.46 51.6Z" />
			</g>
			<path id="&lt;Path&gt;" class="shp0" d="M219.19 49.93L219.15 49.95C214.63 37.44 202.65 28.5 188.58 28.5C185.16 28.5 181.87 29.03 178.78 30.01C178.78 30.01 178.77 30.01 178.77 30.01L176.56 30.81C167.42 34.45 160.33 42.1 157.46 51.6C165.87 52.48 173.81 54.91 181.01 58.58C184 60.1 186.85 61.83 189.56 63.76C189.58 63.77 189.59 63.78 189.61 63.79C192.29 65.71 194.83 67.82 197.2 70.09C197.24 70.13 197.28 70.17 197.32 70.21C199.69 72.49 201.88 74.94 203.9 77.54C203.91 77.56 203.93 77.58 203.95 77.61C205.98 80.23 207.81 83.01 209.44 85.92C209.44 85.92 209.44 85.92 209.44 85.92C214.9 95.67 218.02 106.91 218.03 118.87C218.03 122.7 217.7 126.44 217.09 130.09C232.27 105.99 232.97 79.27 219.19 49.93Z" />
			<path id="&lt;Path&gt;" class="shp1" d="M88.83 112.23C123.69 108.55 146.57 88.35 157.46 51.6L146.65 47.94L109.18 61.57L92.33 78.79" />
			<path id="&lt;Path&gt;" class="shp2" d="M29.64 146.2C28.21 139.93 31.95 134.07 40.86 128.61C60.05 116.66 72.01 104.06 76.74 90.8" />
			<path id="&lt;Path&gt;" class="shp3" d="M158.46 50.6C157.82 53.64 155.98 57.64 154.93 60.56C148.21 79.33 134.25 92.83 116.93 102.09C109.32 106.15 95.02 109.53 86.46 116.27C89.99 109.04 96.96 102.84 107.35 97.65C90.31 100.86 77.33 107.94 68.44 118.87" />
			<path id="&lt;Path&gt;" class="shp1" d="M39.59 130.64C42.03 128.92 44.71 128.89 47.64 130.53L48.22 127.05L43.8 127.4" />
			<path id="&lt;Path&gt;" class="shp4" d="M87.73 65.66C92.62 61.04 98.41 57.37 104.68 54.92" />
			<path id="&lt;Path&gt;" class="shp5" d="M96.09 68.93C99.94 61.18 109.11 55.24 123.61 51.11C114.51 56.11 109.1 61.72 107.37 67.93C113.57 60.13 122.65 55.18 134.61 53.08" />
			<path id="&lt;Path&gt;" class="shp6" d="M109 58.28C112.2 56.77 113.08 57.05 111.63 59.12L114.93 57.48L118.03 53.95L116.77 53.49L113.52 54.92" />
			<path id="&lt;Path&gt;" class="shp1" d="M219.19 49.93L219.15 49.95C215.8 40.69 208.35 33.39 199 30.22C212.14 36.04 207.23 51.6 203.38 61.85C202.03 65.46 200.92 69.22 200.1 73.06C198.26 81.72 197.93 90.77 199.84 99.3C200.74 103.27 202.15 107.12 204.11 110.69L217.09 130.09C232.27 105.99 232.97 79.27 219.19 49.93Z" />
			<path id="&lt;Path&gt;" class="shp0" d="M207.89 42.89C207.89 53.46 199.53 57.79 188.96 57.79C178.39 57.79 169.61 53.46 169.61 42.89C169.61 32.32 178.18 23.75 188.75 23.75C199.32 23.75 207.89 32.32 207.89 42.89Z" />
			<path id="&lt;Path&gt;" class="shp0" d="M157.46 50.6C162.63 33.53 173.06 24.58 188.75 23.75L176.56 38.26L168.74 45.07" />
			<path id="&lt;Path&gt;" class="shp7" d="M185.96 77.3C197.81 74.68 205.28 65.22 208.36 48.94" />
			<path id="&lt;Path&gt;" class="shp5" d="M218.96 100.08C223.53 92.73 223.76 81.81 219.65 67.3C220.18 77.67 218.26 85.22 213.88 89.96C217.26 80.58 216.69 70.26 212.19 58.98" />
			<path id="&lt;Path&gt;" class="shp8" d="M34.82 119.26C59.71 115.84 74.54 101.44 79.31 76.05" />
		</g>
	</g>
	<g id="facialhair10">
	</g>
	<g id="uniform5">
	</g>
</svg>