<svg version="1.2" baseProfile="tiny-ps" xmlns="http://www.w3.org/2000/svg" viewBox="0 0 302 362" width="302" height="362">
	<title>footium-batch-all1</title>
	<style>
		tspan { white-space:pre }
		.shp0 { fill: #000000 } 
		.shp1 { fill: none;stroke: #0965cf;stroke-linecap:round;stroke-linejoin:round } 
		.shp2 { fill: #0965cf } 
	</style>
	<g id="background5">
	</g>
	<g id="ears5">
	</g>
	<g id="neck5">
	</g>
	<g id="heads5">
	</g>
	<g id="face5">
	</g>
	<g id="haircut10">
		<g id="haircut4">
			<g id="&lt;Group&gt;">
				<path id="&lt;Path&gt;" class="shp0" d="M182.88 59.55L182.88 51.22C182.88 39.07 172.94 29.13 160.79 29.13L139.89 29.13C127.74 29.13 117.8 39.07 117.8 51.22L117.8 59.55C127.46 54.25 138.55 51.22 150.34 51.22C162.14 51.22 173.23 54.25 182.88 59.55Z" />
			</g>
			<path id="&lt;Path&gt;" class="shp0" d="M163.85 40.52L182.88 59.55L117.8 59.55L130.6 41.93" />
			<g id="&lt;Group&gt;">
				<path id="&lt;Path&gt;" class="shp1" d="M173.37 38.52C169.08 34.71 164.52 32.83 159.7 32.89C162.65 34.68 164.47 36.51 165.17 38.38" />
				<path id="&lt;Path&gt;" class="shp1" d="M165.17 38.38C160.88 34.57 156.32 32.69 151.5 32.75C154.45 34.54 156.27 36.37 156.97 38.25" />
				<path id="&lt;Path&gt;" class="shp2" d="M160.42 34.12C160.36 34.05 159.93 33.6 159.6 33.43L160.06 33.25C160.26 33.34 160.38 33.4 160.43 33.43C160.47 33.45 160.63 33.58 160.89 33.81L160.76 33.9C161.12 34.01 161.47 34.13 161.48 34.14C161.5 34.15 162.17 34.8 163.5 36.09L162.71 36.55L161.99 36.09L159.7 34.27C160.59 34.68 160.83 34.63 160.42 34.12Z" />
			</g>
		</g>
	</g>
	<g id="facialhair10">
	</g>
	<g id="uniform5">
	</g>
</svg>