<svg version="1.2" baseProfile="tiny-ps" xmlns="http://www.w3.org/2000/svg" viewBox="0 0 302 362" width="302" height="362">
	<title>footium-batch-all1</title>
	<style>
		tspan { white-space:pre }
		.shp0 { fill: #ffa475 } 
		.shp1 { fill: #ff6f29 } 
		.shp2 { fill: none;stroke: #ff6f29;stroke-linecap:round;stroke-linejoin:round;stroke-width: 2 } 
		.shp3 { fill: none;stroke: #ffa475;stroke-linecap:round;stroke-linejoin:round;stroke-width: 2 } 
		.shp4 { fill: none;stroke: #ffa475;stroke-linecap:round;stroke-linejoin:round } 
		.shp5 { fill: none;stroke: #ff8042;stroke-linecap:round;stroke-linejoin:round;stroke-width: 2 } 
		.shp6 { fill: #ff8042 } 
	</style>
	<g id="background5">
	</g>
	<g id="ears5">
	</g>
	<g id="neck5">
	</g>
	<g id="heads5">
	</g>
	<g id="face5">
	</g>
	<g id="haircut10">
		<g id="haircut8">
			<path id="&lt;Path&gt;" class="shp0" d="M82.28 118.84C82.28 112.53 83.16 106.44 84.78 100.65C84.9 100.22 85.03 99.8 85.15 99.38C85.31 98.85 85.48 98.31 85.65 97.78C85.77 97.42 85.89 97.07 86.01 96.71C86.22 96.12 86.43 95.53 86.65 94.95C88.19 90.87 90.1 86.98 92.36 83.32C92.88 82.47 92.29 81.37 91.29 81.31L85 80.97C84.16 80.92 83.57 80.11 83.79 79.29L84.15 77.97C84.37 77.17 83.81 76.39 82.99 76.3C62.84 74.26 54.54 62.58 51.26 55.1C50.69 53.79 48.71 54.17 48.71 55.6C48.71 55.62 48.71 55.65 48.71 55.67C48.71 63.53 50.65 70.56 54 76.66L54 76.66L54.01 76.68C54.78 78.08 55.64 79.43 56.55 80.74L82.72 122.62L82.72 122.62C82.54 121.37 82.38 120.11 82.28 118.85C82.28 118.85 82.28 118.84 82.28 118.84Z" />
			<path id="&lt;Path&gt;" class="shp0" d="M226.05 71.96C224.58 71.87 223.07 71.85 221.53 71.72C216.5 71.32 211.63 69.27 207.89 65.87C203.62 61.99 201.23 56.38 197.55 51.96C190.32 43.28 180.72 36.95 169.88 33.77C163.42 31.88 156.68 31.08 149.97 31.08C115.22 31.08 85.46 52.36 72.95 82.59L90.07 87.31C101.41 65.82 123.97 51.15 149.97 51.15C170.13 51.15 188.22 59.97 200.61 73.96C210.93 85.58 217.29 100.78 217.62 117.46L235.92 93.43C236.33 92.96 236.7 92.47 237.04 91.95C237.06 91.94 237.06 91.92 237.07 91.91C238.39 89.86 239.17 87.43 239.17 84.81C239.17 81.06 237.53 77.43 234.71 74.96C232.06 72.63 229.14 72.15 226.05 71.96Z" />
			<g id="&lt;Group&gt;">
				<path id="&lt;Path&gt;" class="shp0" d="M109.18 41.93C86.78 49.67 73.87 47.35 70.44 34.96L70.44 75.44C68.92 85.3 74.32 91.78 86.66 94.88C89.22 88.11 92.84 81.87 97.3 76.34L109.18 41.93Z" />
			</g>
			<g id="&lt;Group&gt;">
				<path id="&lt;Path&gt;" class="shp1" d="M104.52 68.69L102.33 61.78L82.72 59.02L82.72 111.24C84.6 94.43 92.63 79.47 104.52 68.69Z" />
			</g>
			<path id="&lt;Path&gt;" class="shp0" d="M87.59 49.93L139.21 39.57L180.43 48.77L200.61 73.96C193.45 64.84 182.33 61.97 167.24 65.36L130.4 72.58C104.9 77.18 87.42 73.44 77.96 61.36L87.59 49.93Z" />
			<path id="&lt;Path&gt;" class="shp2" d="M71.41 48.77C73.35 61.01 82.13 68.89 97.74 72.41C106.39 75.63 121.01 74.76 141.61 69.79" />
			<path id="&lt;Path&gt;" class="shp3" d="M203.68 59.99C200.14 56.44 197.95 51.55 197.95 46.14C197.95 38.03 202.88 31.07 209.91 28.1" />
			<path id="&lt;Path&gt;" class="shp4" d="M83.57 38.32C92.63 44.65 104.3 44.47 118.59 37.8" />
			<g id="&lt;Group&gt;">
				<path id="&lt;Path&gt;" class="shp1" d="M224.02 86.65C222.32 84.92 219.49 85.22 217.36 84.64C211.03 82.91 205.1 78.69 200.62 73.96C207.75 82 212.99 91.75 215.66 102.52C218.37 98.95 221.09 95.39 223.8 91.83C225.06 90.23 225.56 88.22 224.02 86.65Z" />
			</g>
			<path id="&lt;Path&gt;" class="shp1" d="M100.42 73.95C87.53 86.99 81.63 103.21 82.72 122.62L82.72 66.47L100.42 73.95Z" />
			<path id="&lt;Path&gt;" class="shp0" d="M82.72 122.62L82.72 97.2L72.95 90.23" />
			<path id="&lt;Path&gt;" class="shp1" d="M95.97 79.07C97.89 76.01 101.96 74.61 108.19 74.9L103.19 73.08L95.21 73.25L92.79 75.09" />
			<path id="&lt;Path&gt;" class="shp5" d="M163.02 44.89C158.06 44.84 152.89 44.92 148.36 47.19C143.06 49.84 139.69 55.12 135.44 59.07C125.34 68.47 109.45 71.79 97.1 65.64C106.12 67.46 112.77 65.53 117.06 59.87C105.43 63.85 95.62 63.3 87.64 58.21C100.6 59.42 109.87 55.44 115.46 46.26" />
			<path id="&lt;Path&gt;" class="shp6" d="M108.37 64.3C111.33 63.17 111.18 62.67 107.92 62.81L112.71 61.01L114.23 61.17C114.53 61.55 114.61 61.85 114.47 62.07C114.26 62.41 112.88 63.28 112.63 63.54C112.46 63.72 111.95 64.01 111.1 64.43" />
			<path id="&lt;Path&gt;" class="shp2" d="M221.53 71.72C210.71 71.72 201.95 62.96 201.95 52.14C201.95 44.03 206.88 37.07 213.91 34.1" />
			<path id="&lt;Path&gt;" class="shp5" d="M70.35 63.99L70.35 81.59C70.01 87.88 72.55 92.31 77.96 94.88" />
			<path id="&lt;Path&gt;" class="shp5" d="M64.35 63.99L64.35 81.59" />
			<path id="&lt;Path&gt;" class="shp6" d="M100.42 61.01C98.36 60.84 97.67 60.24 98.34 59.2C98.63 58.63 99.36 58.2 100.51 57.91L92.55 57.91L91.04 58.88L91.33 59.7L96.38 61.54L99.29 61.62" />
		</g>
	</g>
	<g id="facialhair10">
	</g>
	<g id="uniform5">
	</g>
</svg>