<svg version="1.2" baseProfile="tiny-ps" xmlns="http://www.w3.org/2000/svg" viewBox="0 0 302 362" width="302" height="362">
	<title>footium-batch-all1</title>
	<style>
		tspan { white-space:pre }
		.shp0 { fill: #ff6f29 } 
		.shp1 { fill: #363739 } 
	</style>
	<g id="background5">
	</g>
	<g id="ears5">
	</g>
	<g id="neck5">
	</g>
	<g id="heads5">
	</g>
	<g id="face5">
	</g>
	<g id="haircut10">
		<g id="haircut3">
			<g id="&lt;Group&gt;">
				<path id="&lt;Compound Path&gt;" class="shp0" d="M179.38 59.64C180.15 59.64 180.77 60.26 180.77 61.03C180.77 61.8 180.15 62.42 179.38 62.42C178.61 62.42 177.98 61.8 177.98 61.03C177.98 60.26 178.61 59.64 179.38 59.64ZM176.59 56.85C177.36 56.85 177.98 57.47 177.98 58.24C177.98 59.01 177.36 59.64 176.59 59.64C175.82 59.64 175.19 59.01 175.19 58.24C175.19 57.47 175.82 56.85 176.59 56.85ZM173.8 59.64C174.57 59.64 175.19 60.26 175.19 61.03C175.19 61.8 174.57 62.42 173.8 62.42C173.03 62.42 172.41 61.8 172.41 61.03C172.41 60.26 173.03 59.64 173.8 59.64ZM171.01 56.85C171.78 56.85 172.41 57.47 172.41 58.24C172.41 59.01 171.78 59.64 171.01 59.64C170.24 59.64 169.62 59.01 169.62 58.24C169.62 57.47 170.24 56.85 171.01 56.85ZM168.23 54.06C169 54.06 169.62 54.68 169.62 55.45C169.62 56.22 169 56.85 168.23 56.85C167.46 56.85 166.83 56.22 166.83 55.45C166.83 54.68 167.46 54.06 168.23 54.06ZM169.62 61.03C169.62 61.8 169 62.42 168.23 62.42C167.46 62.42 166.83 61.8 166.83 61.03C166.83 60.26 167.46 59.64 168.23 59.64C169 59.64 169.62 60.26 169.62 61.03ZM165.44 56.85C166.21 56.85 166.83 57.47 166.83 58.24C166.83 59.01 166.21 59.64 165.44 59.64C164.67 59.64 164.04 59.01 164.04 58.24C164.04 57.47 164.67 56.85 165.44 56.85ZM162.65 54.06C163.42 54.06 164.04 54.68 164.04 55.45C164.04 56.22 163.42 56.85 162.65 56.85C161.88 56.85 161.26 56.22 161.26 55.45C161.26 54.68 161.88 54.06 162.65 54.06ZM164.04 61.03C164.04 61.8 163.42 62.42 162.65 62.42C161.88 62.42 161.26 61.8 161.26 61.03C161.26 60.26 161.88 59.64 162.65 59.64C163.42 59.64 164.04 60.26 164.04 61.03ZM159.86 56.85C160.63 56.85 161.26 57.47 161.26 58.24C161.26 59.01 160.63 59.64 159.86 59.64C159.09 59.64 158.47 59.01 158.47 58.24C158.47 57.47 159.09 56.85 159.86 56.85ZM157.08 54.06C157.85 54.06 158.47 54.68 158.47 55.45C158.47 56.22 157.85 56.85 157.08 56.85C156.31 56.85 155.68 56.22 155.68 55.45C155.68 54.68 156.31 54.06 157.08 54.06ZM158.47 61.03C158.47 61.8 157.85 62.42 157.08 62.42C156.31 62.42 155.68 61.8 155.68 61.03C155.68 60.26 156.31 59.64 157.08 59.64C157.85 59.64 158.47 60.26 158.47 61.03ZM154.29 56.85C155.06 56.85 155.68 57.47 155.68 58.24C155.68 59.01 155.06 59.64 154.29 59.64C153.52 59.64 152.89 59.01 152.89 58.24C152.89 57.47 153.52 56.85 154.29 56.85ZM151.5 54.06C152.27 54.06 152.89 54.68 152.89 55.45C152.89 56.22 152.27 56.85 151.5 56.85C150.73 56.85 150.11 56.22 150.11 55.45C150.11 54.68 150.73 54.06 151.5 54.06ZM151.5 59.64C152.27 59.64 152.89 60.26 152.89 61.03C152.89 61.8 152.27 62.42 151.5 62.42C150.73 62.42 150.11 61.8 150.11 61.03C150.11 60.26 150.73 59.64 151.5 59.64ZM151.5 68C150.73 68 150.11 67.37 150.11 66.6C150.11 65.83 150.73 65.21 151.5 65.21C152.27 65.21 152.89 65.83 152.89 66.6C152.89 67.37 152.27 68 151.5 68ZM154.29 62.42C155.06 62.42 155.68 63.05 155.68 63.82C155.68 64.59 155.06 65.21 154.29 65.21C153.52 65.21 152.89 64.59 152.89 63.82C152.89 63.05 153.52 62.42 154.29 62.42ZM157.08 68C156.31 68 155.68 67.37 155.68 66.6C155.68 65.83 156.31 65.21 157.08 65.21C157.85 65.21 158.47 65.83 158.47 66.6C158.47 67.37 157.85 68 157.08 68ZM159.86 62.42C160.63 62.42 161.26 63.05 161.26 63.82C161.26 64.59 160.63 65.21 159.86 65.21C159.09 65.21 158.47 64.59 158.47 63.82C158.47 63.05 159.09 62.42 159.86 62.42ZM162.65 68C161.88 68 161.26 67.37 161.26 66.6C161.26 65.83 161.88 65.21 162.65 65.21C163.42 65.21 164.04 65.83 164.04 66.6C164.04 67.37 163.42 68 162.65 68ZM165.44 62.42C166.21 62.42 166.83 63.05 166.83 63.82C166.83 64.59 166.21 65.21 165.44 65.21C164.67 65.21 164.04 64.59 164.04 63.82C164.04 63.05 164.67 62.42 165.44 62.42ZM168.23 68C167.46 68 166.83 67.37 166.83 66.6C166.83 65.83 167.46 65.21 168.23 65.21C169 65.21 169.62 65.83 169.62 66.6C169.62 67.37 169 68 168.23 68ZM171.01 62.42C171.78 62.42 172.41 63.05 172.41 63.82C172.41 64.59 171.78 65.21 171.01 65.21C170.24 65.21 169.62 64.59 169.62 63.82C169.62 63.05 170.24 62.42 171.01 62.42ZM173.8 68C173.03 68 172.41 67.37 172.41 66.6C172.41 65.83 173.03 65.21 173.8 65.21C174.57 65.21 175.19 65.83 175.19 66.6C175.19 67.37 174.57 68 173.8 68ZM176.59 62.42C177.36 62.42 177.98 63.05 177.98 63.82C177.98 64.59 177.36 65.21 176.59 65.21C175.82 65.21 175.19 64.59 175.19 63.82C175.19 63.05 175.82 62.42 176.59 62.42ZM179.38 68C178.61 68 177.98 67.37 177.98 66.6C177.98 65.83 178.61 65.21 179.38 65.21C180.15 65.21 180.77 65.83 180.77 66.6C180.77 67.37 180.15 68 179.38 68ZM182.16 62.42C182.93 62.42 183.56 63.05 183.56 63.82C183.56 64.59 182.93 65.21 182.16 65.21C181.39 65.21 180.77 64.59 180.77 63.82C180.77 63.05 181.39 62.42 182.16 62.42ZM184.95 68C184.18 68 183.56 67.37 183.56 66.6C183.56 65.83 184.18 65.21 184.95 65.21C185.72 65.21 186.34 65.83 186.34 66.6C186.34 67.37 185.72 68 184.95 68ZM215.61 112.6C216.38 112.6 217.01 113.22 217.01 113.99C217.01 114.76 216.38 115.39 215.61 115.39C214.84 115.39 214.22 114.76 214.22 113.99C214.22 113.22 214.84 112.6 215.61 112.6ZM210.04 115.39C209.27 115.39 208.64 114.76 208.64 113.99C208.64 113.22 209.27 112.6 210.04 112.6C210.81 112.6 211.43 113.22 211.43 113.99C211.43 114.76 210.81 115.39 210.04 115.39ZM211.43 119.57C211.43 120.34 210.81 120.96 210.04 120.96C209.27 120.96 208.64 120.34 208.64 119.57C208.64 118.8 209.27 118.17 210.04 118.17C210.81 118.17 211.43 118.8 211.43 119.57ZM210.04 101.45C210.81 101.45 211.43 102.07 211.43 102.84C211.43 103.61 210.81 104.24 210.04 104.24C209.27 104.24 208.64 103.61 208.64 102.84C208.64 102.07 209.27 101.45 210.04 101.45ZM208.64 97.27C208.64 96.5 209.27 95.87 210.04 95.87C210.81 95.87 211.43 96.5 211.43 97.27C211.43 98.04 210.81 98.66 210.04 98.66C209.27 98.66 208.64 98.04 208.64 97.27ZM210.04 107.02C210.81 107.02 211.43 107.65 211.43 108.42C211.43 109.19 210.81 109.81 210.04 109.81C209.27 109.81 208.64 109.19 208.64 108.42C208.64 107.65 209.27 107.02 210.04 107.02ZM212.83 115.39C213.6 115.39 214.22 116.01 214.22 116.78C214.22 117.55 213.6 118.17 212.83 118.17C212.06 118.17 211.43 117.55 211.43 116.78C211.43 116.01 212.06 115.39 212.83 115.39ZM212.83 112.6C212.06 112.6 211.43 111.97 211.43 111.2C211.43 110.43 212.06 109.81 212.83 109.81C213.6 109.81 214.22 110.43 214.22 111.2C214.22 111.97 213.6 112.6 212.83 112.6ZM212.83 107.02C212.06 107.02 211.43 106.4 211.43 105.63C211.43 104.86 212.06 104.24 212.83 104.24C213.6 104.24 214.22 104.86 214.22 105.63C214.22 106.4 213.6 107.02 212.83 107.02ZM212.83 98.66C213.6 98.66 214.22 99.28 214.22 100.05C214.22 100.82 213.6 101.45 212.83 101.45C212.06 101.45 211.43 100.82 211.43 100.05C211.43 99.28 212.06 98.66 212.83 98.66ZM210.04 90.3C210.81 90.3 211.43 90.92 211.43 91.69C211.43 92.46 210.81 93.09 210.04 93.09C209.27 93.09 208.64 92.46 208.64 91.69C208.64 90.92 209.27 90.3 210.04 90.3ZM212.83 123.75C212.06 123.75 211.43 123.12 211.43 122.35C211.43 121.58 212.06 120.96 212.83 120.96C213.6 120.96 214.22 121.58 214.22 122.35C214.22 123.12 213.6 123.75 212.83 123.75ZM215.61 120.96C214.84 120.96 214.22 120.34 214.22 119.57C214.22 118.8 214.84 118.17 215.61 118.17C216.38 118.17 217.01 118.8 217.01 119.57C217.01 120.34 216.38 120.96 215.61 120.96Z" />
				<path id="&lt;Path&gt;" class="shp1" d="M184.95 62.42C185.49 62.42 185.95 62.11 186.18 61.67C185.4 61.17 184.61 60.69 183.81 60.23C183.65 60.46 183.56 60.73 183.56 61.03C183.56 61.8 184.18 62.42 184.95 62.42Z" />
				<path id="&lt;Path&gt;" class="shp1" d="M186.34 63.82C186.34 64.59 186.97 65.21 187.74 65.21C188.51 65.21 189.13 64.59 189.13 63.82C189.13 63.76 189.12 63.7 189.11 63.64C188.55 63.24 187.99 62.84 187.42 62.46C186.81 62.61 186.34 63.16 186.34 63.82Z" />
				<path id="&lt;Path&gt;" class="shp1" d="M184.95 65.21C184.18 65.21 183.56 65.83 183.56 66.6C183.56 67.37 184.18 68 184.95 68C185.72 68 186.34 67.37 186.34 66.6C186.34 65.83 185.72 65.21 184.95 65.21Z" />
				<path id="&lt;Path&gt;" class="shp1" d="M179.38 62.42C180.15 62.42 180.77 61.8 180.77 61.03C180.77 60.26 180.15 59.64 179.38 59.64C178.61 59.64 177.98 60.26 177.98 61.03C177.98 61.8 178.61 62.42 179.38 62.42Z" />
				<path id="&lt;Path&gt;" class="shp1" d="M182.16 65.21C182.93 65.21 183.56 64.59 183.56 63.82C183.56 63.05 182.93 62.42 182.16 62.42C181.39 62.42 180.77 63.05 180.77 63.82C180.77 64.59 181.39 65.21 182.16 65.21Z" />
				<path id="&lt;Path&gt;" class="shp1" d="M179.38 65.21C178.61 65.21 177.98 65.83 177.98 66.6C177.98 67.37 178.61 68 179.38 68C180.15 68 180.77 67.37 180.77 66.6C180.77 65.83 180.15 65.21 179.38 65.21Z" />
				<path id="&lt;Path&gt;" class="shp1" d="M173.8 56.85C174.38 56.85 174.88 56.49 175.09 55.99C174.23 55.64 173.36 55.31 172.49 55.01C172.44 55.15 172.41 55.3 172.41 55.45C172.41 56.22 173.03 56.85 173.8 56.85Z" />
				<path id="&lt;Path&gt;" class="shp1" d="M176.59 59.64C177.36 59.64 177.98 59.01 177.98 58.24C177.98 57.47 177.36 56.85 176.59 56.85C175.82 56.85 175.19 57.47 175.19 58.24C175.19 59.01 175.82 59.64 176.59 59.64Z" />
				<path id="&lt;Path&gt;" class="shp1" d="M173.8 62.42C174.57 62.42 175.19 61.8 175.19 61.03C175.19 60.26 174.57 59.64 173.8 59.64C173.03 59.64 172.41 60.26 172.41 61.03C172.41 61.8 173.03 62.42 173.8 62.42Z" />
				<path id="&lt;Path&gt;" class="shp1" d="M176.59 65.21C177.36 65.21 177.98 64.59 177.98 63.82C177.98 63.05 177.36 62.42 176.59 62.42C175.82 62.42 175.19 63.05 175.19 63.82C175.19 64.59 175.82 65.21 176.59 65.21Z" />
				<path id="&lt;Path&gt;" class="shp1" d="M173.8 65.21C173.03 65.21 172.41 65.83 172.41 66.6C172.41 67.37 173.03 68 173.8 68C174.57 68 175.19 67.37 175.19 66.6C175.19 65.83 174.57 65.21 173.8 65.21Z" />
				<path id="&lt;Path&gt;" class="shp1" d="M165.44 54.06C166 54.06 166.49 53.72 166.7 53.24C165.83 53.02 164.94 52.82 164.05 52.63C164.05 52.64 164.04 52.65 164.04 52.67C164.04 53.44 164.67 54.06 165.44 54.06Z" />
				<path id="&lt;Path&gt;" class="shp1" d="M168.23 56.85C169 56.85 169.62 56.22 169.62 55.45C169.62 54.68 169 54.06 168.23 54.06C167.46 54.06 166.83 54.68 166.83 55.45C166.83 56.22 167.46 56.85 168.23 56.85Z" />
				<path id="&lt;Path&gt;" class="shp1" d="M171.01 59.64C171.78 59.64 172.41 59.01 172.41 58.24C172.41 57.47 171.78 56.85 171.01 56.85C170.24 56.85 169.62 57.47 169.62 58.24C169.62 59.01 170.24 59.64 171.01 59.64Z" />
				<path id="&lt;Path&gt;" class="shp1" d="M168.23 59.64C167.46 59.64 166.83 60.26 166.83 61.03C166.83 61.8 167.46 62.42 168.23 62.42C169 62.42 169.62 61.8 169.62 61.03C169.62 60.26 169 59.64 168.23 59.64Z" />
				<path id="&lt;Path&gt;" class="shp1" d="M171.01 65.21C171.78 65.21 172.41 64.59 172.41 63.82C172.41 63.05 171.78 62.42 171.01 62.42C170.24 62.42 169.62 63.05 169.62 63.82C169.62 64.59 170.24 65.21 171.01 65.21Z" />
				<path id="&lt;Path&gt;" class="shp1" d="M168.23 65.21C167.46 65.21 166.83 65.83 166.83 66.6C166.83 67.37 167.46 68 168.23 68C169 68 169.62 67.37 169.62 66.6C169.62 65.83 169 65.21 168.23 65.21Z" />
				<path id="&lt;Path&gt;" class="shp1" d="M159.86 54.06C160.63 54.06 161.26 53.44 161.26 52.67C161.26 52.46 161.21 52.26 161.13 52.09C160.36 51.96 159.59 51.85 158.82 51.75C158.61 51.99 158.47 52.31 158.47 52.67C158.47 53.44 159.09 54.06 159.86 54.06Z" />
				<path id="&lt;Path&gt;" class="shp1" d="M162.65 56.85C163.42 56.85 164.04 56.22 164.04 55.45C164.04 54.68 163.42 54.06 162.65 54.06C161.88 54.06 161.26 54.68 161.26 55.45C161.26 56.22 161.88 56.85 162.65 56.85Z" />
				<path id="&lt;Path&gt;" class="shp1" d="M165.44 59.64C166.21 59.64 166.83 59.01 166.83 58.24C166.83 57.47 166.21 56.85 165.44 56.85C164.67 56.85 164.04 57.47 164.04 58.24C164.04 59.01 164.67 59.64 165.44 59.64Z" />
				<path id="&lt;Path&gt;" class="shp1" d="M162.65 59.64C161.88 59.64 161.26 60.26 161.26 61.03C161.26 61.8 161.88 62.42 162.65 62.42C163.42 62.42 164.04 61.8 164.04 61.03C164.04 60.26 163.42 59.64 162.65 59.64Z" />
				<path id="&lt;Path&gt;" class="shp1" d="M165.44 65.21C166.21 65.21 166.83 64.59 166.83 63.82C166.83 63.05 166.21 62.42 165.44 62.42C164.67 62.42 164.04 63.05 164.04 63.82C164.04 64.59 164.67 65.21 165.44 65.21Z" />
				<path id="&lt;Path&gt;" class="shp1" d="M162.65 65.21C161.88 65.21 161.26 65.83 161.26 66.6C161.26 67.37 161.88 68 162.65 68C163.42 68 164.04 67.37 164.04 66.6C164.04 65.83 163.42 65.21 162.65 65.21Z" />
				<path id="&lt;Path&gt;" class="shp1" d="M154.29 51.27C154.23 51.27 154.17 51.28 154.11 51.29C154.3 51.3 154.49 51.32 154.68 51.33C154.55 51.3 154.42 51.27 154.29 51.27Z" />
				<path id="&lt;Path&gt;" class="shp1" d="M152.89 52.67C152.89 53.44 153.52 54.06 154.29 54.06C155.06 54.06 155.68 53.44 155.68 52.67C155.68 52.03 155.26 51.5 154.68 51.33C154.49 51.32 154.3 51.3 154.11 51.29C153.43 51.38 152.89 51.96 152.89 52.67Z" />
				<path id="&lt;Path&gt;" class="shp1" d="M157.08 56.85C157.85 56.85 158.47 56.22 158.47 55.45C158.47 54.68 157.85 54.06 157.08 54.06C156.31 54.06 155.68 54.68 155.68 55.45C155.68 56.22 156.31 56.85 157.08 56.85Z" />
				<path id="&lt;Path&gt;" class="shp1" d="M159.86 59.64C160.63 59.64 161.26 59.01 161.26 58.24C161.26 57.47 160.63 56.85 159.86 56.85C159.09 56.85 158.47 57.47 158.47 58.24C158.47 59.01 159.09 59.64 159.86 59.64Z" />
				<path id="&lt;Path&gt;" class="shp1" d="M157.08 59.64C156.31 59.64 155.68 60.26 155.68 61.03C155.68 61.8 156.31 62.42 157.08 62.42C157.85 62.42 158.47 61.8 158.47 61.03C158.47 60.26 157.85 59.64 157.08 59.64Z" />
				<path id="&lt;Path&gt;" class="shp1" d="M159.86 65.21C160.63 65.21 161.26 64.59 161.26 63.82C161.26 63.05 160.63 62.42 159.86 62.42C159.09 62.42 158.47 63.05 158.47 63.82C158.47 64.59 159.09 65.21 159.86 65.21Z" />
				<path id="&lt;Path&gt;" class="shp1" d="M157.08 65.21C156.31 65.21 155.68 65.83 155.68 66.6C155.68 67.37 156.31 68 157.08 68C157.85 68 158.47 67.37 158.47 66.6C158.47 65.83 157.85 65.21 157.08 65.21Z" />
				<path id="&lt;Path&gt;" class="shp1" d="M148.71 51.27C147.94 51.27 147.32 51.9 147.32 52.67C147.32 53.44 147.94 54.06 148.71 54.06C149.27 54.06 149.75 53.73 149.97 53.26L149.97 52.07C149.75 51.6 149.27 51.27 148.71 51.27Z" />
				<path id="&lt;Path&gt;" class="shp1" d="M150.11 52.67C150.11 52.45 150.06 52.25 149.97 52.07L149.97 53.26C150.06 53.08 150.11 52.88 150.11 52.67Z" />
				<path id="&lt;Path&gt;" class="shp1" d="M151.5 56.85C152.27 56.85 152.89 56.22 152.89 55.45C152.89 54.68 152.27 54.06 151.5 54.06C150.73 54.06 150.11 54.68 150.11 55.45C150.11 56.22 150.73 56.85 151.5 56.85Z" />
				<path id="&lt;Path&gt;" class="shp1" d="M154.29 59.64C155.06 59.64 155.68 59.01 155.68 58.24C155.68 57.47 155.06 56.85 154.29 56.85C153.52 56.85 152.89 57.47 152.89 58.24C152.89 59.01 153.52 59.64 154.29 59.64Z" />
				<path id="&lt;Path&gt;" class="shp1" d="M151.5 62.42C152.27 62.42 152.89 61.8 152.89 61.03C152.89 60.26 152.27 59.64 151.5 59.64C150.73 59.64 150.11 60.26 150.11 61.03C150.11 61.8 150.73 62.42 151.5 62.42Z" />
				<path id="&lt;Path&gt;" class="shp1" d="M154.29 65.21C155.06 65.21 155.68 64.59 155.68 63.82C155.68 63.05 155.06 62.42 154.29 62.42C153.52 62.42 152.89 63.05 152.89 63.82C152.89 64.59 153.52 65.21 154.29 65.21Z" />
				<path id="&lt;Path&gt;" class="shp1" d="M151.5 65.21C150.73 65.21 150.11 65.83 150.11 66.6C150.11 67.37 150.73 68 151.5 68C152.27 68 152.89 67.37 152.89 66.6C152.89 65.83 152.27 65.21 151.5 65.21Z" />
				<path id="&lt;Path&gt;" class="shp1" d="M141.75 52.67C141.75 53.44 142.37 54.06 143.14 54.06C143.91 54.06 144.53 53.44 144.53 52.67C144.53 52.14 144.23 51.68 143.8 51.45C143.28 51.49 142.76 51.55 142.25 51.6C141.94 51.86 141.75 52.24 141.75 52.67Z" />
				<path id="&lt;Path&gt;" class="shp1" d="M145.93 56.85C146.7 56.85 147.32 56.22 147.32 55.45C147.32 54.68 146.7 54.06 145.93 54.06C145.16 54.06 144.53 54.68 144.53 55.45C144.53 56.22 145.16 56.85 145.93 56.85Z" />
				<path id="&lt;Path&gt;" class="shp1" d="M148.71 56.85C147.94 56.85 147.32 57.47 147.32 58.24C147.32 59.01 147.94 59.64 148.71 59.64C149.27 59.64 149.75 59.31 149.97 58.84L149.97 57.65C149.75 57.18 149.27 56.85 148.71 56.85Z" />
				<path id="&lt;Path&gt;" class="shp1" d="M150.11 58.24C150.11 58.03 150.06 57.83 149.97 57.65L149.97 58.84C150.06 58.66 150.11 58.46 150.11 58.24Z" />
				<path id="&lt;Path&gt;" class="shp1" d="M145.93 59.64C145.16 59.64 144.53 60.26 144.53 61.03C144.53 61.8 145.16 62.42 145.93 62.42C146.7 62.42 147.32 61.8 147.32 61.03C147.32 60.26 146.7 59.64 145.93 59.64Z" />
				<path id="&lt;Path&gt;" class="shp1" d="M148.71 62.42C147.94 62.42 147.32 63.05 147.32 63.82C147.32 64.59 147.94 65.21 148.71 65.21C149.27 65.21 149.75 64.88 149.97 64.41L149.97 63.22C149.75 62.75 149.27 62.42 148.71 62.42Z" />
				<path id="&lt;Path&gt;" class="shp1" d="M150.11 63.82C150.11 63.6 150.06 63.4 149.97 63.22L149.97 64.41C150.06 64.23 150.11 64.03 150.11 63.82Z" />
				<path id="&lt;Path&gt;" class="shp1" d="M145.93 65.21C145.16 65.21 144.53 65.83 144.53 66.6C144.53 67.37 145.16 68 145.93 68C146.7 68 147.32 67.37 147.32 66.6C147.32 65.83 146.7 65.21 145.93 65.21Z" />
				<path id="&lt;Path&gt;" class="shp1" d="M137.56 54.06C138.33 54.06 138.96 53.44 138.96 52.67C138.96 52.46 138.91 52.26 138.83 52.08C137.94 52.23 137.05 52.38 136.18 52.56C136.18 52.6 136.17 52.63 136.17 52.67C136.17 53.44 136.79 54.06 137.56 54.06Z" />
				<path id="&lt;Path&gt;" class="shp1" d="M140.35 56.85C141.12 56.85 141.75 56.22 141.75 55.45C141.75 54.68 141.12 54.06 140.35 54.06C139.58 54.06 138.96 54.68 138.96 55.45C138.96 56.22 139.58 56.85 140.35 56.85Z" />
				<path id="&lt;Path&gt;" class="shp1" d="M143.14 59.64C143.91 59.64 144.53 59.01 144.53 58.24C144.53 57.47 143.91 56.85 143.14 56.85C142.37 56.85 141.75 57.47 141.75 58.24C141.75 59.01 142.37 59.64 143.14 59.64Z" />
				<path id="&lt;Path&gt;" class="shp1" d="M140.35 59.64C139.58 59.64 138.96 60.26 138.96 61.03C138.96 61.8 139.58 62.42 140.35 62.42C141.12 62.42 141.75 61.8 141.75 61.03C141.75 60.26 141.12 59.64 140.35 59.64Z" />
				<path id="&lt;Path&gt;" class="shp1" d="M143.14 65.21C143.91 65.21 144.53 64.59 144.53 63.82C144.53 63.05 143.91 62.42 143.14 62.42C142.37 62.42 141.75 63.05 141.75 63.82C141.75 64.59 142.37 65.21 143.14 65.21Z" />
				<path id="&lt;Path&gt;" class="shp1" d="M140.35 65.21C139.58 65.21 138.96 65.83 138.96 66.6C138.96 67.37 139.58 68 140.35 68C141.12 68 141.75 67.37 141.75 66.6C141.75 65.83 141.12 65.21 140.35 65.21Z" />
				<path id="&lt;Path&gt;" class="shp1" d="M134.78 56.85C135.55 56.85 136.17 56.22 136.17 55.45C136.17 54.68 135.55 54.06 134.78 54.06C134.01 54.06 133.38 54.68 133.38 55.45C133.38 56.22 134.01 56.85 134.78 56.85Z" />
				<path id="&lt;Path&gt;" class="shp1" d="M137.56 59.64C138.33 59.64 138.96 59.01 138.96 58.24C138.96 57.47 138.33 56.85 137.56 56.85C136.79 56.85 136.17 57.47 136.17 58.24C136.17 59.01 136.79 59.64 137.56 59.64Z" />
				<path id="&lt;Path&gt;" class="shp1" d="M134.78 59.64C134.01 59.64 133.38 60.26 133.38 61.03C133.38 61.8 134.01 62.42 134.78 62.42C135.55 62.42 136.17 61.8 136.17 61.03C136.17 60.26 135.55 59.64 134.78 59.64Z" />
				<path id="&lt;Path&gt;" class="shp1" d="M137.56 65.21C138.33 65.21 138.96 64.59 138.96 63.82C138.96 63.05 138.33 62.42 137.56 62.42C136.79 62.42 136.17 63.05 136.17 63.82C136.17 64.59 136.79 65.21 137.56 65.21Z" />
				<path id="&lt;Path&gt;" class="shp1" d="M134.78 65.21C134.01 65.21 133.38 65.83 133.38 66.6C133.38 67.37 134.01 68 134.78 68C135.55 68 136.17 67.37 136.17 66.6C136.17 65.83 135.55 65.21 134.78 65.21Z" />
				<path id="&lt;Path&gt;" class="shp1" d="M129.2 56.85C129.97 56.85 130.6 56.22 130.6 55.45C130.6 54.9 130.27 54.43 129.81 54.21C129.19 54.4 128.58 54.62 127.96 54.83C127.87 55.02 127.81 55.23 127.81 55.45C127.81 56.22 128.43 56.85 129.2 56.85Z" />
				<path id="&lt;Path&gt;" class="shp1" d="M131.99 59.64C132.76 59.64 133.38 59.01 133.38 58.24C133.38 57.47 132.76 56.85 131.99 56.85C131.22 56.85 130.6 57.47 130.6 58.24C130.6 59.01 131.22 59.64 131.99 59.64Z" />
				<path id="&lt;Path&gt;" class="shp1" d="M129.2 62.42C129.97 62.42 130.6 61.8 130.6 61.03C130.6 60.26 129.97 59.64 129.2 59.64C128.43 59.64 127.81 60.26 127.81 61.03C127.81 61.8 128.43 62.42 129.2 62.42Z" />
				<path id="&lt;Path&gt;" class="shp1" d="M131.99 65.21C132.76 65.21 133.38 64.59 133.38 63.82C133.38 63.05 132.76 62.42 131.99 62.42C131.22 62.42 130.6 63.05 130.6 63.82C130.6 64.59 131.22 65.21 131.99 65.21Z" />
				<path id="&lt;Path&gt;" class="shp1" d="M129.2 65.21C128.43 65.21 127.81 65.83 127.81 66.6C127.81 67.37 128.43 68 129.2 68C129.97 68 130.6 67.37 130.6 66.6C130.6 65.83 129.97 65.21 129.2 65.21Z" />
				<path id="&lt;Path&gt;" class="shp1" d="M126.41 59.64C127.18 59.64 127.81 59.01 127.81 58.24C127.81 57.47 127.18 56.85 126.41 56.85C125.64 56.85 125.02 57.47 125.02 58.24C125.02 59.01 125.64 59.64 126.41 59.64Z" />
				<path id="&lt;Path&gt;" class="shp1" d="M123.63 62.42C124.4 62.42 125.02 61.8 125.02 61.03C125.02 60.26 124.4 59.64 123.63 59.64C122.86 59.64 122.23 60.26 122.23 61.03C122.23 61.8 122.86 62.42 123.63 62.42Z" />
				<path id="&lt;Path&gt;" class="shp1" d="M126.41 65.21C127.18 65.21 127.81 64.59 127.81 63.82C127.81 63.05 127.18 62.42 126.41 62.42C125.64 62.42 125.02 63.05 125.02 63.82C125.02 64.59 125.64 65.21 126.41 65.21Z" />
				<path id="&lt;Path&gt;" class="shp1" d="M123.63 65.21C122.86 65.21 122.23 65.83 122.23 66.6C122.23 67.37 122.86 68 123.63 68C124.4 68 125.02 67.37 125.02 66.6C125.02 65.83 124.4 65.21 123.63 65.21Z" />
				<path id="&lt;Path&gt;" class="shp1" d="M120.84 59.64C121.61 59.64 122.23 59.01 122.23 58.24C122.23 57.87 122.08 57.53 121.84 57.28C121.04 57.64 120.25 58.03 119.46 58.42C119.55 59.11 120.13 59.64 120.84 59.64Z" />
				<path id="&lt;Path&gt;" class="shp1" d="M118.05 62.42C118.82 62.42 119.45 61.8 119.45 61.03C119.45 60.26 118.82 59.64 118.05 59.64C117.28 59.64 116.66 60.26 116.66 61.03C116.66 61.8 117.28 62.42 118.05 62.42Z" />
				<path id="&lt;Path&gt;" class="shp1" d="M120.84 65.21C121.61 65.21 122.23 64.59 122.23 63.82C122.23 63.05 121.61 62.42 120.84 62.42C120.07 62.42 119.45 63.05 119.45 63.82C119.45 64.59 120.07 65.21 120.84 65.21Z" />
				<path id="&lt;Path&gt;" class="shp1" d="M118.05 65.21C117.28 65.21 116.66 65.83 116.66 66.6C116.66 67.37 117.28 68 118.05 68C118.82 68 119.45 67.37 119.45 66.6C119.45 65.83 118.82 65.21 118.05 65.21Z" />
				<path id="&lt;Path&gt;" class="shp1" d="M115.26 65.21C116.03 65.21 116.66 64.59 116.66 63.82C116.66 63.05 116.03 62.42 115.26 62.42C114.49 62.42 113.87 63.05 113.87 63.82C113.87 64.59 114.49 65.21 115.26 65.21Z" />
				<path id="&lt;Path&gt;" class="shp1" d="M112.48 65.21C111.71 65.21 111.08 65.83 111.08 66.6C111.08 67.37 111.71 68 112.48 68C113.25 68 113.87 67.37 113.87 66.6C113.87 65.83 113.25 65.21 112.48 65.21Z" />
				<path id="&lt;Path&gt;" class="shp1" d="M111.08 63.82C111.08 63.7 111.06 63.59 111.04 63.49C110.34 63.98 109.64 64.48 108.96 65C109.17 65.13 109.42 65.21 109.69 65.21C110.46 65.21 111.08 64.59 111.08 63.82Z" />
				<path id="&lt;Path&gt;" class="shp1" d="M90.18 90.3C90.95 90.3 91.57 89.67 91.57 88.9C91.57 88.13 90.95 87.51 90.18 87.51C90.1 87.51 90.03 87.52 89.96 87.53C89.62 88.2 89.27 88.86 88.94 89.53C89.17 89.99 89.63 90.3 90.18 90.3Z" />
				<path id="&lt;Path&gt;" class="shp1" d="M90.18 95.87C90.95 95.87 91.57 95.25 91.57 94.48C91.57 93.71 90.95 93.09 90.18 93.09C89.41 93.09 88.78 93.71 88.78 94.48C88.78 95.25 89.41 95.87 90.18 95.87Z" />
				<path id="&lt;Path&gt;" class="shp1" d="M87.39 98.66C88.16 98.66 88.78 98.04 88.78 97.27C88.78 96.5 88.16 95.87 87.39 95.87C86.62 95.87 86 96.5 86 97.27C86 98.04 86.62 98.66 87.39 98.66Z" />
				<path id="&lt;Path&gt;" class="shp1" d="M90.18 98.66C89.41 98.66 88.78 99.28 88.78 100.05C88.78 100.82 89.41 101.45 90.18 101.45C90.95 101.45 91.57 100.82 91.57 100.05C91.57 99.28 90.95 98.66 90.18 98.66Z" />
				<path id="&lt;Path&gt;" class="shp1" d="M90.18 104.24C89.41 104.24 88.78 104.86 88.78 105.63C88.78 106.4 89.41 107.02 90.18 107.02C90.95 107.02 91.57 106.4 91.57 105.63C91.57 104.86 90.95 104.24 90.18 104.24Z" />
				<path id="&lt;Path&gt;" class="shp1" d="M90.18 109.81C89.41 109.81 88.78 110.43 88.78 111.2C88.78 111.97 89.41 112.6 90.18 112.6C90.95 112.6 91.57 111.97 91.57 111.2C91.57 110.43 90.95 109.81 90.18 109.81Z" />
				<path id="&lt;Path&gt;" class="shp1" d="M90.18 115.39C89.41 115.39 88.78 116.01 88.78 116.78C88.78 117.55 89.41 118.17 90.18 118.17C90.95 118.17 91.57 117.55 91.57 116.78C91.57 116.01 90.95 115.39 90.18 115.39Z" />
				<path id="&lt;Path&gt;" class="shp1" d="M87.39 120.96C88.16 120.96 88.78 120.34 88.78 119.57C88.78 118.8 88.16 118.17 87.39 118.17C86.62 118.17 86 118.8 86 119.57C86 120.34 86.62 120.96 87.39 120.96Z" />
				<path id="&lt;Path&gt;" class="shp1" d="M88.78 91.69C88.78 91.32 88.63 90.98 88.4 90.73C88.04 91.51 87.7 92.29 87.37 93.08C87.38 93.08 87.38 93.09 87.39 93.09C88.16 93.09 88.78 92.46 88.78 91.69Z" />
				<path id="&lt;Path&gt;" class="shp1" d="M86 100.05C86 99.54 85.71 99.09 85.29 98.85C85.02 99.7 84.78 100.57 84.55 101.44C84.57 101.44 84.58 101.45 84.6 101.45C85.37 101.45 86 100.82 86 100.05Z" />
				<path id="&lt;Path&gt;" class="shp1" d="M87.39 104.24C88.16 104.24 88.78 103.61 88.78 102.84C88.78 102.07 88.16 101.45 87.39 101.45C86.62 101.45 86 102.07 86 102.84C86 103.61 86.62 104.24 87.39 104.24Z" />
				<path id="&lt;Path&gt;" class="shp1" d="M84.6 107.02C85.37 107.02 86 106.4 86 105.63C86 104.86 85.37 104.24 84.6 104.24C84.31 104.24 84.05 104.32 83.83 104.47C83.69 105.11 83.56 105.76 83.44 106.4C83.69 106.78 84.12 107.02 84.6 107.02Z" />
				<path id="&lt;Path&gt;" class="shp1" d="M87.39 109.81C88.16 109.81 88.78 109.19 88.78 108.42C88.78 107.65 88.16 107.02 87.39 107.02C86.62 107.02 86 107.65 86 108.42C86 109.19 86.62 109.81 87.39 109.81Z" />
				<path id="&lt;Path&gt;" class="shp1" d="M84.6 112.6C85.37 112.6 86 111.97 86 111.2C86 110.43 85.37 109.81 84.6 109.81C83.83 109.81 83.21 110.43 83.21 111.2C83.21 111.97 83.83 112.6 84.6 112.6Z" />
				<path id="&lt;Path&gt;" class="shp1" d="M87.39 115.39C88.16 115.39 88.78 114.76 88.78 113.99C88.78 113.22 88.16 112.6 87.39 112.6C86.62 112.6 86 113.22 86 113.99C86 114.76 86.62 115.39 87.39 115.39Z" />
				<path id="&lt;Path&gt;" class="shp1" d="M84.6 118.17C85.37 118.17 86 117.55 86 116.78C86 116.01 85.37 115.39 84.6 115.39C83.83 115.39 83.21 116.01 83.21 116.78C83.21 117.55 83.83 118.17 84.6 118.17Z" />
				<path id="&lt;Path&gt;" class="shp1" d="M83.21 113.99C83.21 113.5 82.95 113.07 82.56 112.82C82.49 113.63 82.42 114.44 82.38 115.26C82.87 115.05 83.21 114.56 83.21 113.99Z" />
				<path id="&lt;Path&gt;" class="shp1" d="M214.22 102.84C214.22 103.61 214.84 104.24 215.61 104.24C215.76 104.24 215.91 104.21 216.04 104.16C215.84 103.26 215.63 102.36 215.4 101.47C214.73 101.57 214.22 102.15 214.22 102.84Z" />
				<path id="&lt;Path&gt;" class="shp1" d="M217.01 116.78C217.01 117.26 217.26 117.69 217.63 117.94C217.62 117.18 217.61 116.42 217.58 115.66C217.23 115.92 217.01 116.32 217.01 116.78Z" />
				<path id="&lt;Path&gt;" class="shp1" d="M215.61 118.17C214.84 118.17 214.22 118.8 214.22 119.57C214.22 120.34 214.84 120.96 215.61 120.96C216.38 120.96 217.01 120.34 217.01 119.57C217.01 118.8 216.38 118.17 215.61 118.17Z" />
				<path id="&lt;Path&gt;" class="shp1" d="M211.43 94.48C211.43 95.25 212.06 95.87 212.83 95.87C213.1 95.87 213.36 95.79 213.58 95.65C213.26 94.79 212.93 93.95 212.58 93.11C211.93 93.23 211.43 93.79 211.43 94.48Z" />
				<path id="&lt;Path&gt;" class="shp1" d="M212.83 101.45C213.6 101.45 214.22 100.82 214.22 100.05C214.22 99.28 213.6 98.66 212.83 98.66C212.06 98.66 211.43 99.28 211.43 100.05C211.43 100.82 212.06 101.45 212.83 101.45Z" />
				<path id="&lt;Path&gt;" class="shp1" d="M210.04 104.24C210.81 104.24 211.43 103.61 211.43 102.84C211.43 102.07 210.81 101.45 210.04 101.45C209.27 101.45 208.64 102.07 208.64 102.84C208.64 103.61 209.27 104.24 210.04 104.24Z" />
				<path id="&lt;Path&gt;" class="shp1" d="M212.83 104.24C212.06 104.24 211.43 104.86 211.43 105.63C211.43 106.4 212.06 107.02 212.83 107.02C213.6 107.02 214.22 106.4 214.22 105.63C214.22 104.86 213.6 104.24 212.83 104.24Z" />
				<path id="&lt;Path&gt;" class="shp1" d="M215.61 107.02C214.84 107.02 214.22 107.65 214.22 108.42C214.22 109.19 214.84 109.81 215.61 109.81C216.22 109.81 216.73 109.42 216.92 108.88C216.85 108.44 216.78 108 216.7 107.56C216.45 107.23 216.06 107.02 215.61 107.02Z" />
				<path id="&lt;Path&gt;" class="shp1" d="M212.83 109.81C212.06 109.81 211.43 110.43 211.43 111.2C211.43 111.97 212.06 112.6 212.83 112.6C213.6 112.6 214.22 111.97 214.22 111.2C214.22 110.43 213.6 109.81 212.83 109.81Z" />
				<path id="&lt;Path&gt;" class="shp1" d="M215.61 115.39C216.38 115.39 217.01 114.76 217.01 113.99C217.01 113.22 216.38 112.6 215.61 112.6C214.84 112.6 214.22 113.22 214.22 113.99C214.22 114.76 214.84 115.39 215.61 115.39Z" />
				<path id="&lt;Path&gt;" class="shp1" d="M212.83 118.17C213.6 118.17 214.22 117.55 214.22 116.78C214.22 116.01 213.6 115.39 212.83 115.39C212.06 115.39 211.43 116.01 211.43 116.78C211.43 117.55 212.06 118.17 212.83 118.17Z" />
				<path id="&lt;Path&gt;" class="shp1" d="M210.04 118.17C209.27 118.17 208.64 118.8 208.64 119.57C208.64 120.34 209.27 120.96 210.04 120.96C210.81 120.96 211.43 120.34 211.43 119.57C211.43 118.8 210.81 118.17 210.04 118.17Z" />
				<path id="&lt;Path&gt;" class="shp1" d="M212.83 120.96C212.06 120.96 211.43 121.58 211.43 122.35C211.43 123.12 212.06 123.75 212.83 123.75C213.6 123.75 214.22 123.12 214.22 122.35C214.22 121.58 213.6 120.96 212.83 120.96Z" />
				<path id="&lt;Path&gt;" class="shp1" d="M210.04 93.09C210.81 93.09 211.43 92.46 211.43 91.69C211.43 90.92 210.81 90.3 210.04 90.3C209.27 90.3 208.64 90.92 208.64 91.69C208.64 92.46 209.27 93.09 210.04 93.09Z" />
				<path id="&lt;Path&gt;" class="shp1" d="M210.04 98.66C210.81 98.66 211.43 98.04 211.43 97.27C211.43 96.5 210.81 95.87 210.04 95.87C209.27 95.87 208.64 96.5 208.64 97.27C208.64 98.04 209.27 98.66 210.04 98.66Z" />
				<path id="&lt;Path&gt;" class="shp1" d="M210.04 109.81C210.81 109.81 211.43 109.19 211.43 108.42C211.43 107.65 210.81 107.02 210.04 107.02C209.27 107.02 208.64 107.65 208.64 108.42C208.64 109.19 209.27 109.81 210.04 109.81Z" />
				<path id="&lt;Path&gt;" class="shp1" d="M210.04 112.6C209.27 112.6 208.64 113.22 208.64 113.99C208.64 114.76 209.27 115.39 210.04 115.39C210.81 115.39 211.43 114.76 211.43 113.99C211.43 113.22 210.81 112.6 210.04 112.6Z" />
			</g>
		</g>
	</g>
	<g id="facialhair10">
	</g>
	<g id="uniform5">
	</g>
</svg>