<svg version="1.2" baseProfile="tiny-ps" xmlns="http://www.w3.org/2000/svg" viewBox="0 0 302 362" width="302" height="362">
	<title>footium-batch-all1</title>
	<style>
		tspan { white-space:pre }
		.shp0 { fill: #ffed75 } 
		.shp1 { fill: none;stroke: #ffed75;stroke-linecap:round;stroke-linejoin:round;stroke-width: 2 } 
		.shp2 { fill: #ff6f29 } 
	</style>
	<g id="background5">
	</g>
	<g id="ears5">
	</g>
	<g id="neck5">
	</g>
	<g id="heads5">
	</g>
	<g id="face5">
	</g>
	<g id="haircut10">
		<g id="haircut1">
			<g id="&lt;Group&gt;">
				<path id="&lt;Path&gt;" class="shp0" d="M191.48 65.15C191.38 65.05 191.27 64.94 191.15 64.85C190.58 64.42 190 64 189.42 63.59C189.22 63.45 189.03 63.31 188.83 63.17C188.28 62.79 187.73 62.43 187.18 62.07C186.91 61.89 186.64 61.72 186.37 61.55C185.83 61.21 185.29 60.87 184.74 60.55C184.45 60.38 184.15 60.21 183.86 60.04C183.31 59.73 182.76 59.41 182.19 59.11C181.96 58.98 181.71 58.87 181.47 58.74C180.69 58.33 179.9 57.94 179.1 57.57C178.84 57.44 178.58 57.33 178.31 57.21C177.91 57.03 177.52 56.84 177.12 56.67C176.64 56.46 176.15 56.26 175.66 56.07C175.2 55.88 174.75 55.7 174.29 55.53C173.82 55.35 173.34 55.18 172.87 55.01C172.37 54.83 171.86 54.66 171.35 54.49C170.9 54.35 170.46 54.2 170 54.06C169.4 53.88 168.78 53.71 168.17 53.54C167.8 53.44 167.44 53.34 167.08 53.24C166.12 53 165.15 52.78 164.17 52.57C163.85 52.5 163.52 52.45 163.19 52.39C162.49 52.25 161.79 52.12 161.09 52.01C160.7 51.95 160.31 51.9 159.92 51.84C159.25 51.75 158.58 51.66 157.91 51.59C157.52 51.54 157.13 51.5 156.74 51.46C156.02 51.4 155.3 51.34 154.58 51.3C154.23 51.28 153.89 51.25 153.55 51.23C152.49 51.18 151.42 51.15 150.34 51.15C150.12 51.15 149.91 51.17 149.69 51.17L149.73 51.15C130.52 51.27 115.27 57.28 103.98 69.18L104.37 69.18L110.98 69.18L134.43 69.18L168.78 69.18C170.1 69.18 171.18 68.1 171.18 66.78C171.18 65.87 171.65 65.15 172.3 64.75C172.49 64.65 173.74 64.05 174.94 65.2L174.94 65.19L182.14 72.96C182.33 73.16 182.6 73.28 182.87 73.28C183 73.28 183.12 73.25 183.24 73.21C183.62 73.06 183.87 72.69 183.87 72.28L183.87 69.53C183.87 67.04 182.3 65.78 182.3 65.78L181.03 64.72C180.83 64.56 180.79 64.27 180.93 64.06C181.07 63.85 181.35 63.78 181.57 63.89C181.63 63.92 182.31 64.28 183.04 64.99L183.03 64.98L187.95 69.18L189.71 69.18L196.32 69.18C194.78 67.75 193.15 66.43 191.48 65.15Z" />
			</g>
			<path id="&lt;Path&gt;" class="shp1" d="M150.15 54.35C150.13 47.93 146.92 44.71 140.51 44.71" />
			<path id="&lt;Path&gt;" class="shp1" d="M121.11 48.34C122.28 50.83 125.02 52.08 129.33 52.08L150.05 52.08" />
			<path id="&lt;Path&gt;" class="shp2" d="" />
		</g>
	</g>
	<g id="facialhair10">
	</g>
	<g id="uniform5">
	</g>
</svg>