<svg version="1.2" baseProfile="tiny-ps" xmlns="http://www.w3.org/2000/svg" viewBox="0 0 302 362" width="302" height="362">
	<title>footium-batch-all1</title>
	<style>
		tspan { white-space:pre }
		.shp0 { fill: #ff6f29 } 
		.shp1 { fill: #b46918 } 
		.shp2 { fill: none;stroke: #85500f;stroke-linecap:round;stroke-linejoin:round;stroke-width: 2 } 
		.shp3 { fill: #85500f } 
	</style>
	<g id="background5">
	</g>
	<g id="ears5">
	</g>
	<g id="neck5">
	</g>
	<g id="heads5">
		<g id="head1">
			<path id="&lt;Path&gt;" class="shp0" d="M218.03 118.84C218.03 81.46 187.72 51.15 150.34 51.15C112.96 51.15 82.66 81.46 82.66 118.84C82.66 125.76 83.7 132.43 85.63 138.71C85.63 138.73 85.64 138.75 85.64 138.76C86.13 140.35 86.69 141.91 87.29 143.45C91.29 153.68 97.7 162.7 105.83 169.81L105.82 169.82C111.77 174.62 114.74 180.8 114.73 188.38L114.73 221.42L185.96 221.42L185.96 188.38C185.95 180.8 188.92 174.62 194.87 169.82L194.86 169.81C209.05 157.4 218.03 139.17 218.03 118.84Z" />
			<path id="&lt;Path&gt;" class="shp0" d="M218.03 118.91C218.03 156.29 187.72 186.6 150.34 186.6C112.96 186.6 82.66 156.29 82.66 118.91C82.66 81.53 112.96 51.22 150.34 51.22C187.72 51.22 218.03 81.53 218.03 118.91Z" />
			<path id="&lt;Path&gt;" class="shp0" d="M185.96 221.42L114.73 221.42L114.73 109.62L185.96 109.62L185.96 221.42Z" />
			<path id="&lt;Path&gt;" class="shp0" d="M105.82 169.89C111.77 174.69 114.74 180.87 114.73 188.45L129.02 174.16L123.05 163.39L114.73 158.38" />
			<path id="&lt;Path&gt;" class="shp0" d="M218.03 118.91C218.03 81.53 187.72 51.22 150.34 51.22C112.96 51.22 82.66 81.53 82.66 118.91C82.66 125.83 83.7 132.5 85.63 138.78C85.63 138.8 85.64 138.82 85.64 138.83C86.13 140.42 86.69 141.98 87.29 143.52C91.29 153.75 97.7 162.77 105.83 169.88L105.82 169.89C111.77 174.69 114.74 180.87 114.73 188.45L114.73 221.42L185.96 221.42L185.96 188.45C185.95 180.87 188.92 174.69 194.87 169.89L194.86 169.88C209.05 157.47 218.03 139.24 218.03 118.91Z" />
			<g id="&lt;Group&gt;">
				<path id="&lt;Path&gt;" class="shp1" d="M150.34 51.15C112.96 51.15 82.66 81.46 82.66 118.84C82.66 125.76 83.7 132.43 85.63 138.71C85.63 138.73 85.64 138.75 85.64 138.76C86.13 140.35 86.69 141.91 87.29 143.45C91.29 153.68 97.7 162.7 105.83 169.81L105.82 169.82C111.77 174.62 114.74 180.8 114.73 188.38L114.73 221.42L150.34 221.42L150.34 204.29L150.34 51.15Z" />
				<path id="&lt;Path&gt;" class="shp0" d="M185.96 188.38C185.95 180.8 188.92 174.62 194.87 169.82L194.86 169.81C209.05 157.4 218.03 139.17 218.03 118.84C218.03 81.46 187.72 51.15 150.34 51.15L150.34 204.29L150.34 221.42L185.96 221.42L185.96 188.38Z" />
			</g>
			<path id="&lt;Path&gt;" class="shp2" d="M150.34 199.45C147.84 213.48 140.31 220.49 127.74 220.49" />
			<g id="&lt;Group&gt;">
				<path id="&lt;Path&gt;" class="shp1" d="M194.86 169.88L194.87 169.89C188.92 174.69 185.95 180.87 185.96 188.45L185.96 221.42L213.32 143.74C209.31 153.88 202.93 162.82 194.86 169.88Z" />
			</g>
			<g id="&lt;Group&gt;">
				<path id="&lt;Path&gt;" class="shp3" d="M105.83 169.88L105.82 169.89C111.77 174.69 114.74 180.87 114.73 188.45L114.73 221.49L87.37 143.74C91.37 153.88 97.75 162.82 105.83 169.88Z" />
			</g>
			<path id="&lt;Path&gt;" class="shp1" d="M150.33 203.19L157.68 214.01L172.03 221.42L146.23 221.42" />
			<path id="&lt;Path&gt;" class="shp2" d="M150.34 199.45C152.85 213.48 160.38 220.49 172.94 220.49" />
			<path id="&lt;Path&gt;" class="shp3" d="M150.34 199.45L146.23 211.55C147.34 209.76 148.71 208.86 150.34 208.86C152 208.82 153.36 209.72 154.44 211.55L150.34 199.45Z" />
		</g>
	</g>
	<g id="face5">
	</g>
	<g id="haircut10">
	</g>
	<g id="facialhair10">
	</g>
	<g id="uniform5">
	</g>
</svg>